<?xml version="1.0" encoding="utf-8"?>
<!-- Generator: Adobe Illustrator 26.3.1, SVG Export Plug-In . SVG Version: 6.00 Build 0)  -->
<svg version="1.1" id="full_identifier_English" xmlns="http://www.w3.org/2000/svg" xmlns:xlink="http://www.w3.org/1999/xlink"
	 x="0px" y="0px" viewBox="0 0 167.8 140.1" style="enable-background:new 0 0 167.8 140.1;" xml:space="preserve">
<style type="text/css">
	.st0{fill:#009EDB;}
</style>
<path id="emblem" class="st0" d="M133.6,127.4c0.1,0,0.2,0.1,0.2,0.1c-3,3-6.7,5.2-10.7,6.4c-2.8,0.8-5.6,1-8.5,0.6
	c-4.3-0.6-8.4-2.2-12-4.7c-2.2-1.4-4.4-2.9-6.5-4.4c-2.4-1.6-5.3-2.1-8.1-1.5c-1.6,0.2-0.4,0.9-0.1,1c3.9,1.9,7.6,4.2,11,6.8
	c2.3,1.7,6.5,5.7,6.5,5.7l-3.1,2.7c0,0-2.4-2.7-3.4-3.7c-4.1-4.4-8.9-8.1-14.2-11c-0.2-0.1-0.4-0.2-0.7-0.3c-0.3,0-0.5,0.1-0.7,0.3
	c-5.3,2.9-10,6.6-14.2,11c-1,1-3.4,3.7-3.4,3.7l-3.1-2.7c0,0,4.1-4,6.5-5.7c3.4-2.6,7.1-4.9,11-6.8c0.2-0.1,1.4-0.9-0.1-1
	c-2.8-0.6-5.7,0-8.1,1.5c-2.2,1.5-4.3,3-6.5,4.4c-3.6,2.5-7.7,4.1-12,4.7c-2.8,0.4-5.7,0.2-8.5-0.6c-4.1-1.2-7.8-3.4-10.8-6.4
	c0.1-0.1,0.1-0.1,0.2-0.1l0.7,0.3c4.4,2.2,9.5,2.8,14.2,1.7c3.3-0.8,6.5-1.9,9.6-3.3c2.2-1,4.4-2,6.8-2.8c5.9-1.9,12.2-2,18.1-0.4
	L84,123l0.3-0.1c6-1.6,12.2-1.5,18.1,0.4c2.3,0.8,4.5,1.8,6.8,2.8c3.1,1.5,6.3,2.6,9.6,3.3c4.8,1.1,9.8,0.5,14.2-1.7L133.6,127.4z
	 M148,114.4c-1.9,1.5-4.1,2.7-6.4,3.4c-3.3,1-6.7,1.5-10.1,1.5c-4.4,0.1-8.8,0.5-13.2,1.1h-0.1c-0.3,0-0.4-0.1-0.3-0.2l0.1-0.1
	c3.9-1.4,6.6-4.5,8.6-8.3c1.4-2.6,3.7-7.8,4.3-8.7c0-0.1,0-0.2,0-0.2c-0.3,0.1-4.6,3.8-6.6,5.6c-2.4,2.3-4.7,4.7-7.2,7
	c-3.8,3.6-9.3,5.2-11.3,5.8c-0.1,0-0.1,0-0.1,0.1c0,0.1-0.1,0.1-0.1,0.2l0,0h0.1c1.5,0.4,6,1.3,8.3,1.9c3.5,1,7.1,1.7,10.7,2
	c9.4,0.9,18.5-3.3,23.8-11.1l0,0C148.2,114.4,148.1,114.4,148,114.4L148,114.4z M161.4,93.8c-2.2,2.6-4.8,4.9-7.7,6.7
	c-2.5,1.7-5.1,3.1-7.9,4.3c-3.5,1.5-6.7,3.4-9.7,5.7c-0.2,0.2-0.4,0.3-0.6,0.4s-0.2-0.1-0.1-0.2s4.6-4.8,6-14.5
	c0.5-3.4,0.5-7.1,1.6-10.3c0-0.1,0-0.2-0.1-0.3l0,0c-3.3,3.8-6,9.6-7.3,13.3c-0.9,2.6-1.8,5.2-2.7,7.8c-1.1,3.5-3.1,6.8-5.6,9.4
	l-0.2,0.3c0,0.1,0,0.1,0,0.2l0,0l0.9-0.1c3-0.6,6-1.3,9-1.8c4.9-0.8,9.5-2.7,13.4-5.7c4.1-3,7.5-6.9,9.8-11.4
	c0.6-1.2,1.1-2.4,1.5-3.7C161.6,93.8,161.5,93.8,161.4,93.8z M167.3,70.7c-1.3,4.1-3.6,7.5-7,11c-2.7,2.8-7.8,8-10.2,11.6
	c-0.1,0.1-0.2,0.1-0.2-0.1c1.3-4.2,1.6-8.6,1-13c-0.6-3.7-2.2-7.7-2.6-12.2l0,0c0-0.1-0.1-0.2-0.2-0.2c-0.1,0.1-0.1,0.3-0.2,0.4
	c-1,2.9-1.6,5.9-1.9,8.9c-0.2,3.7,0.5,8.4,0.2,12.2c-0.4,4.4-0.6,8.7-2.7,12.7c0,0,0,0,0,0.1s0.1,0.3,0.1,0.3l0,0
	c1.6-1,6.2-3.7,9.2-5.8c3.8-2.4,7.1-5.6,9.7-9.3c3.3-4.7,5.1-10.4,5-16.1c0-0.2,0-0.4,0-0.6C167.6,70.6,167.3,70.7,167.3,70.7z
	 M157.6,73.2C157.6,73.3,157.5,73.3,157.6,73.2c-0.1,0.1-0.2,0-0.2,0c0.1-1.2,0.2-2.5,0.1-3.7c-0.3-4.3-2.9-7.9-5.2-11.5
	c-1.6-2.3-3-4.8-4.1-7.4c0,0-0.2-0.1-0.2-0.1c0,0.4,0.1,1.7,0.1,2.5c0.6,6.2,2.6,12.2,4.6,18.1c1.4,3.6,2,7.6,1.6,11.4
	c0,0.3,0,0.4,0.1,0.5s0,0,0,0c1.4-2,4.1-4.8,5.8-6.9c1.8-2.2,10.9-12.6,6.4-27.1c-0.2-0.6-0.4-1.2-0.7-1.8c-0.1,0-0.2,0.2-0.2,0.2
	c0,10.4-5,14.9-7.1,22C158.2,70.9,157.8,72.2,157.6,73.2L157.6,73.2z M149.7,40.8c-2.1-1.8-4-3.9-5.6-6.2l0,0c0,0,0,0-0.1-0.1
	c-0.1,0-0.2,0-0.2,0c-0.1,0-0.1,0-0.1,0c0.7,2.4,1.5,4.8,2.4,7.2c1.3,3.1,3.5,5.7,5.5,8.3c0.1,0.2,0.3,0.4,0.4,0.6
	c2,2.7,5.3,8.5,6,11.5c0,0.1,0.2,0.2,0.2,0.1c0.3-1.1,1.6-5.2,2.6-8c0.9-2.8,1.7-5.7,2.3-8.6c1-6.9-1.3-15.8-5.3-20.6
	c-0.1,0-0.1,0.2-0.1,0.2c0.1,0.2,0.1,0.4,0.2,0.6s0.2,0.6,0.2,0.9c1,4.5,0.7,7.6,0.2,11.4c-0.6,3-0.8,6-0.8,9.1
	c0,0.5,0.3,4.3,0.3,4.4s-0.2,0-0.2,0s-0.5-1.4-1-2.5c-0.2-0.5-0.4-1-0.6-1.3C154.4,44.7,152.4,43,149.7,40.8z M145.3,13.1
	c1.3,1.2,2.3,2.7,3,4.3c1.1,2.6,1.4,6.5,2.1,9.4c0.4,1.8,0.7,3,1.3,5.1c0,0.2-0.1,0.3-0.2,0.1l-0.1-0.1c-2.1-2.8-4.6-4.5-8.3-6.8
	c-2.1-1.3-3.9-2.9-5.4-4.8l-0.8-1.1c-0.1,0-0.2-0.1-0.2-0.1c0,0.2,0,0.3,0.1,0.4c0.5,2.3,2,6.7,4.7,9.3c1.9,1.8,4.1,3.5,6.2,5.2
	c2.7,2.3,5.1,4.8,7.3,7.5l0,0c0,0,0.2,0.1,0.2,0l0,0l0,0c0-0.6-0.1-1.4-0.1-2.4c0-2.3,0.1-5.3,0.2-7.4c0-0.8,0.1-1.7,0.1-2.5
	c0.1-2.5-0.4-5-1.3-7.4c-1.5-3.8-4.4-7-8.1-8.8c-0.2-0.1-0.5-0.2-0.7-0.3C145.2,12.8,145.2,12.9,145.3,13.1
	C145.2,13,145.3,13.1,145.3,13.1z M129.5,5.8c2.1,2,4,4.3,5.6,6.7c1.5,2.4,3.3,4.6,5.3,6.6c1.4,1.4,5.6,4.7,6.6,5.5l0,0
	c0,0,0.1,0,0.1,0c0,0,0,0,0-0.1c-0.2-1.2-2.1-10-7.6-14.3c-3.1-2.5-6.8-4.2-10.7-5.2c0,0.1,0,0.3,0,0.3
	C129.2,5.5,129.3,5.6,129.5,5.8z M43.3,125.6c3.6-0.3,7.2-1,10.7-2c2.3-0.6,6.7-1.6,8.3-1.9h0.1l0,0c0-0.1-0.1-0.1-0.1-0.2
	c0,0-0.1-0.1-0.2-0.1c-2-0.5-7.5-2.1-11.3-5.8c-2.4-2.3-4.7-4.7-7.2-7c-2-1.8-6.3-5.5-6.6-5.6c0,0.1-0.1,0.2-0.1,0.2
	c0.6,0.8,2.9,6,4.3,8.7c2,3.8,4.7,6.9,8.6,8.3l0.1,0.1c0.1,0.1,0,0.2-0.3,0.2h-0.1c-4.4-0.6-8.8-1-13.2-1.1c-3.4,0-6.8-0.5-10.1-1.5
	c-2.3-0.7-4.5-1.9-6.4-3.4c-0.1,0-0.2,0-0.3,0l0,0C24.8,122.2,33.9,126.5,43.3,125.6L43.3,125.6z M39.9,116.6l0.9,0.1l0,0
	c0-0.1,0-0.1-0.1-0.1l-0.2-0.3c-2.6-2.7-4.5-5.9-5.6-9.4c-0.9-2.6-1.8-5.2-2.7-7.8c-1.3-3.7-4-9.5-7.3-13.3l0,0
	c-0.1,0.1-0.1,0.2-0.1,0.3c1.1,3.3,1.2,6.9,1.6,10.3c1.3,9.7,5.8,14.3,6,14.5s0,0.3-0.1,0.2s-0.4-0.3-0.6-0.4
	c-3-2.3-6.2-4.2-9.7-5.7c-2.8-1.2-5.4-2.6-7.9-4.3c-2.9-1.9-5.5-4.2-7.7-6.8c-0.1,0-0.2,0-0.3,0c0.4,1.3,0.9,2.5,1.5,3.7
	c2.3,4.5,5.7,8.4,9.8,11.4c3.9,3,8.6,5,13.5,5.8C33.9,115.2,36.9,115.9,39.9,116.6L39.9,116.6z M15,96.6c3,2,7.6,4.7,9.2,5.8l0,0
	c0,0,0.1-0.2,0.1-0.3s0,0,0-0.1c-2-4-2.3-8.3-2.7-12.7c-0.3-3.8,0.4-8.5,0.2-12.2c-0.3-3-0.9-6-1.9-8.9c0-0.1-0.1-0.3-0.2-0.4
	c-0.1,0-0.2,0.1-0.2,0.2l0,0c-0.4,4.5-2,8.5-2.6,12.2c-0.6,4.4-0.3,8.8,1,13c0.1,0.2-0.1,0.2-0.2,0.1c-2.4-3.5-7.6-8.7-10.2-11.5
	c-3.4-3.6-5.7-6.9-7-11c0,0-0.2-0.2-0.2-0.1c0,0.2,0,0.4,0,0.6c-0.1,5.8,1.7,11.4,5,16.1C8,91,11.2,94.1,15,96.6L15,96.6z M13.4,83
	L13.4,83c0,0,0.1-0.1,0.1-0.5c-0.4-3.9,0.2-7.8,1.6-11.4c2-5.9,4-11.9,4.7-18.1c0.1-0.8,0.2-2.1,0.1-2.5c-0.1,0-0.2,0-0.2,0.1
	c-1.2,2.6-2.6,5-4.1,7.4c-2.3,3.6-4.9,7.2-5.2,11.5c-0.1,1.2-0.1,2.5,0.1,3.7c0,0,0,0.1-0.1,0.1s-0.1,0-0.1-0.1
	c-0.3-1-0.6-2.3-1-3.7c-2.1-7.1-7.1-11.6-7.1-22c0-0.1-0.1-0.2-0.2-0.2c-0.3,0.6-0.5,1.2-0.7,1.8C-3.3,63.6,5.8,74,7.6,76.2
	C9.3,78.2,12,81,13.4,83z M6.9,54.2c1,2.8,2.3,6.9,2.6,8c0,0,0.2,0,0.2-0.1c0.8-3,4-8.8,6-11.5c0.1-0.2,0.3-0.4,0.4-0.6
	c2-2.7,4.2-5.2,5.5-8.3c0.9-2.3,1.8-4.7,2.4-7.2c0,0,0,0-0.1,0c-0.1,0-0.2,0-0.2,0c0,0,0,0-0.1,0.1l0,0c-1.6,2.3-3.5,4.4-5.6,6.2
	c-2.7,2.2-4.7,3.8-6.3,7c-0.2,0.3-0.4,0.8-0.6,1.3c-0.5,1.1-1,2.5-1,2.5s-0.2,0.2-0.2,0s0.3-3.9,0.3-4.4c0-3-0.3-6.1-0.8-9.1
	c-0.5-3.8-0.9-6.9,0.2-11.4c0.1-0.3,0.2-0.6,0.2-0.9s0.1-0.4,0.2-0.6c0,0,0-0.2-0.1-0.2c-4,4.9-6.3,13.8-5.3,20.6
	C5.2,48.5,6,51.4,6.9,54.2z M12.7,39.2c0,1,0,1.9-0.1,2.4l0,0l0,0c0,0.1,0.2,0,0.2,0l0,0c2.2-2.7,4.6-5.3,7.3-7.5
	c2.1-1.7,4.2-3.3,6.2-5.2c2.7-2.6,4.3-6.9,4.7-9.3c0-0.1,0.1-0.3,0.1-0.4c-0.1,0-0.2,0-0.2,0.1L30,20.3c-1.5,1.9-3.3,3.6-5.4,4.8
	c-3.6,2.3-6.2,4-8.3,6.8L16.3,32c-0.1,0.2-0.3,0.1-0.2-0.1c0.6-2,0.9-3.3,1.3-5.1c0.7-2.9,1-6.8,2.2-9.4c0.7-1.6,1.7-3.1,3-4.3l0,0
	c0-0.1,0-0.2,0-0.3c-0.2,0.1-0.5,0.2-0.7,0.3c-3.7,1.9-6.5,5-8.1,8.8c-0.9,2.3-1.4,4.8-1.3,7.3c0,0.8,0,1.7,0.1,2.5
	C12.6,33.9,12.7,36.9,12.7,39.2z M20.6,24.6C20.6,24.6,20.7,24.6,20.6,24.6L20.6,24.6c1.1-0.8,5.3-4,6.7-5.5c2.1-2,3.8-4.2,5.3-6.6
	c1.6-2.5,3.5-4.7,5.6-6.7c0.2-0.2,0.3-0.3,0.5-0.4c0,0,0.1-0.2,0-0.3c-3.9,0.9-7.5,2.7-10.7,5.2C22.6,14.6,20.7,23.4,20.6,24.6
	C20.6,24.6,20.6,24.6,20.6,24.6z M82.4,72.4c0.4-0.6-0.6-1-0.9,0.1S82,73,82.4,72.4z M94.1,45.4c-0.4-0.2-2.1,1.9-1.9,2.2
	C93,46.9,93.6,46.2,94.1,45.4L94.1,45.4z M94.5,45c0.3,0.1,1.4-0.5,1.2-0.7s-1.5-0.8-1.6-0.4C94.1,44.5,94.2,44.8,94.5,45L94.5,45z
	 M115.1,63.1c-0.5,0-1.1,0.8-1,0.8c0.4,0,0.7,0.3,1,0.2C115.7,63.9,115.6,63,115.1,63.1L115.1,63.1z M107.6,43.6
	c-0.5,0-0.6,0.5-0.1,0.8c0.4,0.1,0.8,0,1.1-0.2c0.3-0.2,0.7-0.4,0.6-0.9c0-0.3-0.7-1.1-0.4-1.4s0.8,0.2,1.1,0s0.4-0.4,0.4-0.8
	s-0.2-1.2-0.8-1.2c-0.5,0-1.2,1.2-1.3,1.3c-0.1,0.3-0.1,0.7,0,1C108.6,42.8,108.5,43.5,107.6,43.6L107.6,43.6z M117.7,43.7
	c0,0.3,0.8,2.2,0.9,2.8s0.2,2.1,0.7,2c0.3-0.1,0.2-1.1,0.2-1.5c-0.2-1.1-0.4-2.2-0.8-3.3c-0.2-0.7-1.2-2.8-1.5-2.8s0.5,1.6,0.6,2.1
	C117.8,43.2,117.8,43.4,117.7,43.7L117.7,43.7z M112.4,17.6c0.5,0.2,0.5-0.8-0.4-1.4s-2-0.3-1.7,0C111,16.7,111.7,17.2,112.4,17.6z
	 M89.4,10.9c-1-0.7-0.2-1.5-1-2.1c-0.9-0.3-1.8-0.1-2.5,0.5c-0.7,0.9,0.9,0.6,1.4,0.8s2,1.4,2.2,1.2S89.5,11,89.4,10.9z M95.5,7.9
	c-1.4-0.6-6.4-0.6-6.3,0.7c0.1,1.1,2.9,0.1,3.7,0S96.7,8.5,95.5,7.9L95.5,7.9z M80.6,67.1c-0.1-0.2-0.5-0.2-0.4,0s-0.1,0.5,0.1,0.8
	c0.4,0.3,0.9,0.3,1.3,0c0.2-0.2,0.1-0.5-0.1-0.7C81.2,67.1,80.6,67.3,80.6,67.1L80.6,67.1z M78.6,57c0.4,0,0.4-0.3,0.6-0.3
	s0,0.3,0.5,0.3s0.9-1.1-0.5-1.1C78.1,55.9,78.3,56.9,78.6,57L78.6,57z M80.4,58.1c-0.8-0.2-0.7,0.3-1.2,0.3c-0.9,0.1-0.1-0.6-0.5-1
	c-0.2-0.1-0.7,0.6-0.7,1c0,0.2,0,1,0.3,1s2.3,0.2,2.9,0.4S81.2,58.3,80.4,58.1L80.4,58.1z M71,68.2c0.3,0,0.4-0.9,0.3-1.4
	s-1-0.1-1.1,0.1S70.7,68.2,71,68.2z M58.6,68.1c0-0.4,0-1.6-0.3-1.8s-0.2,0.2-0.4,0.2S57.8,66,57.6,66s0.1,0.9,0.3,1.4
	S58.6,68.8,58.6,68.1L58.6,68.1z M58.3,65.3c0.3-0.9,0.4-1.9,0.4-2.8c-0.1-0.7-0.5-1.4-0.6-1.4s0.1,0.5,0.1,1.2
	c-0.1,0.8-0.2,1.6-0.5,2.3C57.8,65,58.1,65.7,58.3,65.3z M25.4,58.5C25.4,26.2,51.6,0,83.9,0.1c32.3,0,58.4,26.2,58.4,58.5
	c0,32.3-26.2,58.4-58.5,58.4c-15.5,0-30.3-6.2-41.3-17.1C31.5,88.9,25.4,74,25.4,58.5z M43.4,97.2l6.4-6.4c-1.3-1.3-2.4-2.7-3.5-4.2
	c-0.5-0.2-1-0.5-1.3-0.9c-0.5-0.7-0.8-1.7-1.1-1.7s0,0.6-0.6,0.7c-0.8,0.1-1.9-1.8-2.3-2.6s-1.3-0.8-1.8-1.6
	c-0.1-0.2-0.4-0.9-0.7-0.5c-0.4,0.7-1.9-1.5-2.3-1.4s-0.1,0.6-0.3,0.8c-0.4,0.4-1.7-1.7-2.2-1.5s-0.5,0.5-0.6,1s0.7,2,0.4,2.2
	s-2.2-4.5-1.8-4.7c0.2-0.1,0.2,0.2,0.4,0.1s-0.2-0.5-0.3-1s-0.6-0.5-0.6-1.1s0.8-0.4,0.8-0.7c0-0.3,0.1-0.6,0.3-0.8
	c0.3-0.2,0.9,0,1-0.8s0.5,0,0.5,0.5s1.6,0.8,1.7,0.3c0-0.3-0.6-0.2-0.6-0.5c0-0.4,0.8,0,1.4,0c0.2,0,0.7-0.4,1.3-0.1
	c0.4,0.3,0.9,0.4,1.4,0.5c-1.4-4.3-2.1-8.8-2.2-13.3H28C28.2,73.7,33.7,87.1,43.4,97.2z M80.4,45.3c0.1,0.1-0.6,0.7-0.9,1.3
	c1-0.4,2.1-0.6,3.2-0.8v-9c-4.9,0.3-9.5,2.2-13.1,5.4l6.3,6.3c0.7-0.6,1.5-1.1,2.4-1.6c0.2-0.1,0.4-0.2,0.7-0.3
	C79.3,46.1,80.3,45.2,80.4,45.3z M58.3,78.8c0,0.2,0,0.3,0,0.5c0.5,0.6,0.9,1.1,1.4,1.7l6.4-6.3c-3-3.4-5.1-7.5-5.9-12
	c-0.2,0.1-0.4,0-0.5-0.2c-0.1-0.2,0.1-0.4,0.3-0.7c-0.1-0.7-0.2-1.4-0.2-2.1h-4.2c0,0.7,0.3,1.6-0.1,2s-0.9,0-1.2,0
	c-0.8,0.1-1,1.1-0.8,1.8c0.2,0.4,0.3,0.8,0.3,1.3c-0.1,0.4-0.3,0.8,0.4,1.2s1.7,1.7,1.6,1.9s-0.8-0.3-0.8,0.3c0,0.3,1-0.1,0.9,1
	c0,0.6,0.1,1.2,0.3,1.8c0.5,0.8,0.7,1.7,0.8,2.6c-0.1,0.9-0.1,1.8,0.2,2.6C57.6,77.1,58.2,77.8,58.3,78.8L58.3,78.8z M53,63.7
	c-0.5-0.6,0.3-2.3,0.5-2.6s0.9-0.8,1.2-1.3h-3.8c0.1,1.9,0.3,3.9,0.7,5.8C52.5,65.8,54.2,65.1,53,63.7z M50.6,87.9L50.6,87.9
	c0.2,0.4,0.6,0.8,0.9,1.1l0.7-0.7C51.6,87.9,51,87.7,50.6,87.9L50.6,87.9z M66,42.4L59.7,36c-5.4,5.8-8.5,13.3-8.8,21.2h4.4
	c0.7-1.2,0.5-2.1,0.7-2.8c0.3-0.7,0.6-1.3,1-1.9c0.3-0.5,0.7-1.1,1.4-1.1c1.4,0,1.8-0.8,2.7-1.2s2.5-0.7,2.3-1.1s-3.4,0.9-3.4,0.7
	c-0.1-0.4,1-0.4,1.5-0.8c0.1-0.1,0.2-0.1,0.3-0.2C62.9,46.4,64.3,44.3,66,42.4L66,42.4z M64.9,48.3l0.3-0.1c1-0.5,2.1-0.6,3.1-0.2
	c0.8,0.4,1.5,1,2.2,1.6c0.2,0.1,0.3-0.1,1.2-0.3c0.4-0.1,0.5,0.3,1,0.4c0.2,0,0.4,0,0.6,0l-5.5-5.5C66.6,45.4,65.7,46.8,64.9,48.3
	L64.9,48.3z M58.6,55.1c-1-0.1-1.9,0.6-2,1.6c0,0.2,0,0.4,0,0.6h3.2c0-0.6,0.1-1.2,0.2-1.8C59.6,55.2,59.1,55.1,58.6,55.1L58.6,55.1
	z M67.8,72.9l6.3-6.3c-0.5-0.6-1-1.3-1.4-2l0,0c-0.1,0.1-0.2,0.2-0.2,0.3c-0.1,0.3,0,1.2-0.4,1.6s-1.9-1.2-2.3-1.3S69,65.7,69,65.9
	c0.1,0.5,0,0.7-0.2,0.7s-1.3-0.7-0.8-0.9s-0.1-0.7-0.4-0.9c-0.4-0.3-1,0-1.4-0.4c-0.3-0.4-0.7-0.7-1.1-0.8c-0.4-0.2-0.8-0.2-1.2-0.1
	c-0.3,0.2-0.7-0.2-0.9-0.4s-0.3-0.3-0.4-0.4C63.4,66.5,65.2,70,67.8,72.9L67.8,72.9z M74.1,62c0-0.1,0-0.1,0-0.2l0,0
	c0,0,0-0.1,0-0.1s0,0,0-0.1v-0.1l0,0l0,0v-0.2l0,0c0-0.1,0-0.1,0-0.1l0,0v-0.1l0,0c0,0,0-0.1,0-0.1l0,0l0.1-0.1
	c0.1-0.1,0.2-0.1,0.3-0.1c0.3,0.1,0.5,0.1,0.8,0.2c0.2,0,0.4-0.1,0.6-0.3c0.1-0.1,0.1-0.2,0.2-0.3c0-0.1,0.1-0.2,0.1-0.3
	c0,0,0-0.1,0-0.1c0-0.1-0.2-0.1-0.4,0L75.5,60l-0.3,0.1h-0.1c-0.1,0-0.3-0.1-0.4-0.2c0,0-0.1-0.1-0.1-0.1c0-0.1-0.1-0.1-0.1-0.2
	c-0.2-0.2-0.4-0.4-0.6-0.5c-0.1-0.1-0.2-0.2-0.4-0.2l-0.2-0.2l-0.1-0.1h-0.1l-0.1-0.1L73,58.3l-0.1-0.1l-0.1-0.1h-0.1h-0.1h-0.1
	l-0.1-0.1l0,0h-0.1l0,0c-0.3-0.1-0.7,0.1-0.9,0.3l0,0c-0.1,0-0.1,0.1-0.1,0.1l0,0c-0.1,0.1-0.1,0.1-0.1,0.2l0,0
	c0,0.1-0.1,0.2-0.1,0.2c-0.1,0.2-0.2,0.4-0.3,0.6c-0.7,1.9-1.6,1.3-1.4,2c0,0.1,0.2,0.1,0.5,0.2h0.8h0.5h0.2h0.1h0.1h0.1h0.1H72
	l0.2-0.1l0.3-0.1l0,0c0.1,0,0.2-0.1,0.3-0.1c0.4-0.1,0.7,0,0.9,0.4C73.8,61.9,74,61.9,74.1,62L74.1,62z M82.7,34.4v-9
	c-7.9,0.3-15.5,3.4-21.3,8.8l6.3,6.3C71.9,36.8,77.1,34.7,82.7,34.4L82.7,34.4z M82.7,23v-9c-10.9,0.3-21.4,4.6-29.3,12.2l6.3,6.3
	C65.9,26.6,74.1,23.2,82.7,23L82.7,23z M51.6,28c-7.5,7.9-11.8,18.4-12.2,29.3h9c0.3-8.6,3.7-16.7,9.5-23L51.6,28z M39.4,59.7
	c0.1,4.5,0.9,9,2.4,13.3H42c0.9,0.1,1.8-0.1,2.7-0.5c0.9-0.7,0.1-3.1,0.6-4.1c0.7-1.3,2.4-4.2,2.9-4.2s0.4,0.3,0.7,0.4
	c-0.3-1.6-0.4-3.2-0.5-4.9H39.4z M82.7,105.5c-11.6-0.3-22.7-4.9-31.1-12.9L45.2,99c10.1,9.7,23.5,15.2,37.5,15.5V105.5z M82.7,94.1
	c-7.9-0.3-15.4-3.1-21.5-8.2c0.1,0.2,0.2,0.3,0.3,0.5c0.4,0.7,1.8,2.2,0.9,2.7s-2,0.2-2.7,0.1s-1.9,1.1-2.6,1.3
	c-0.7,0.2-1.5,0.1-2.1-0.2c-0.3-0.1-0.5-0.3-0.7-0.4l-1,1c7.9,7.5,18.4,11.9,29.3,12.2L82.7,94.1z M82.7,90.9
	c-1.2,0.2-2.4,0.1-3.6-0.2c-0.9-0.6-2.1-1.3-2.2-1.8c-0.2-0.9-1.4-1.6-1.4-2.4s1.3-1.2,0.9-2.2c-0.3-0.8,0.5-1.7,1.8-2.4
	c-3.9-1-7.4-2.8-10.4-5.5l-6.4,6.3c5.8,5.4,13.3,8.5,21.3,8.8L82.7,90.9z M84.6,78.9c1-0.2,2-0.4,2.8-0.5s0,1.2,0.5,1.3
	s3.4,0.5,3.6-0.1s0.2-0.7,0.8-0.9c1-0.1,2-0.4,2.9-0.9c0.3-0.2,1-0.4,1.2-0.7s-0.1-2.2-0.8-1.9c-0.3,0.1-0.7,0.6-1.4,1
	s-1.1,0.5-1.6-0.1s0.2-1,0.6-1.4c0.5-0.6,1-1.2,1.6-1.2c0.2,0,1.4-0.6,1.3-1.1c-0.1-0.7-1.5,0.1-1.9-0.2s0-0.7-0.2-0.8
	s-0.7,0.6-0.3,1c0.2,0.2-0.3,0.8-0.9,0.4s-0.6,1.4-0.6,1.7s0.7,0.2,0.3,0.8s-0.6,0.1-0.9,0.4s-0.5,0.5,0,0.9s-0.2,1.1-0.4,0.4
	c-0.1-0.4-1.1-0.3-1.2-0.8s-1-0.5-1.9-1c-0.7-0.4-0.6,0.7,0.6,1c1,0.2,1,0.4,0.7,1s-0.2-0.4-1.4-0.7c-0.8-0.2-0.8-0.6-1.5-0.6
	s-0.4,0.6-1.1,0.4c-0.5-0.1-0.6,0.6-1,0.8s-0.5,1.3-1.1,1.6c-0.9,0.4-2.6,0.1-2.5-0.7s0.1-1.5,0.6-1.8s1.1,0.5,1.8,0.2
	s0.5-1,0.1-1.4c-0.1-0.1-0.6-0.4-0.6-0.5s0.9-0.3,1.4-0.6c0.4-0.4,0.8-0.8,1.2-1.3c0.2-0.2,0.7-0.2,0.8-0.4s-0.3-0.6-0.3-0.9
	s0.1-0.5,0.4-0.5s0.5,0.6,0.3,0.8s0.1,0.5,0.4,0.3s1.4-0.5,1.6-0.6s-0.1-1.1,0-1.2s0.2,0.1,0.4-0.1s-0.3-0.3-0.2-0.7
	s1.1-0.6,0.9-0.8s-0.7,0.4-0.9,0.5c-0.6,0.2-0.8-0.4-0.8-0.8c0-0.2,0.3-1,0.1-1.1s-0.4,0.7-0.5,0.9c-0.2,0.4-0.2,1,0.1,1.4
	c0.2,0.4,0.1,1.8-0.3,1.9s-0.6-0.7-0.9-1.1c0-0.1-0.1-0.1-0.1-0.1h-0.1H86l0,0L86,70l-0.1,0.2c-0.1,0.1-0.1,0.3-0.2,0.4
	c0,0.1-0.2,0.3-0.3,0.3c-0.5,0.1-0.9,0.1-1.4,0.1h-0.5c0.1,0.3,0.2,0.5,0.3,0.8c0.2,0.5,0.7,0.9,0.6,1.2s-1.5,0.7-1.6,0.4
	s0.4-0.9,0.3-1.2c-0.1-0.5-0.3-0.8-0.3-1.2c-2.5-0.2-4.8-1.2-6.8-2.8l-6.3,6.3c3.2,2.9,7.2,4.7,11.4,5.3c0.6-0.4,0.9-1.1,1.4-0.7
	C83.1,79.8,84,79,84.6,78.9L84.6,78.9z M85.2,94v9c3.6-0.1,7.1-0.6,10.5-1.6c-0.7-0.6-1-1.6-1.9-1.9c-1.5-0.5-1.9-1.4-1.1-2.8
	c0.4-0.7,0.3-1-0.2-1.8c-0.5-0.7-1.2-1.3-2-1.6C88.7,93.8,86.9,94,85.2,94L85.2,94z M89.5,91.1c-0.4-0.3-0.9-0.4-1.3-0.2
	c-1.5,0.4-1-0.8-3-0.5v1.1C86.6,91.5,88,91.3,89.5,91.1L89.5,91.1z M122.6,98.9l-6.4-6.4c-3.3,3.1-7,5.8-11.1,7.8
	c-1.3,0.9-2.7,1.7-4.2,2.3c-0.5,0.3-1.1,0.5-1.7,0.5c-0.2,0-0.4-0.1-0.5-0.2c-4.4,1.5-9,2.3-13.6,2.4v8.9
	C99.2,114.1,112.5,108.6,122.6,98.9L122.6,98.9z M110.1,34.2C110.1,34.2,110.1,34.3,110.1,34.2c1.4,1.7,2.8,3.4,3.9,5.3
	c0.1-0.2,0.2-0.3,0.4-0.1c0.3,0.4-0.3,1,0.6,0.8c0.6-0.1,0.4,0.6,0,1c0.3,0.5,0.6,1.1,0.8,1.6c0.3,0.2,0.6,0.3,0.6,0.5
	c0.2,0.7,0.4,1.3,0.5,2c0.4,1.1,0.8,2.3,1.2,3.5c0.5-0.4,1-0.2,1,0.5c0,0.7-0.1,1.4-0.4,2c0.4,2,0.7,4,0.7,6h9
	c-0.2-5.8-1.5-11.5-3.8-16.8c-0.2,0.1-0.4,0.2-0.7,0.5c-0.5,0.6-1.2-0.1-1.6-0.6c-0.8-0.9-2.5-3.5-3.3-3.7s-1.2-1-1.9-1.1
	s-1.6-0.5-1.7-1.3c0-0.6-0.5-1.2-1.2-1.2c-0.8-0.1-1.6-0.5-2.1-1.1L110.1,34.2C110.1,34.2,110.1,34.2,110.1,34.2L110.1,34.2z
	 M115.8,88.5l0.5,0.5c7.5-7.9,11.8-18.4,12.1-29.3h-9c-0.3,8.6-3.7,16.7-9.5,23l3.2,3.2l0.1-0.1c0.2-0.6,0.2-1.2,0.2-1.8
	c0-0.3,1.3-0.2,1.4,0.3c0.2,0.7,0.5,1.3,0.7,2C115.8,87,115.9,87.8,115.8,88.5L115.8,88.5z M109,94.1c-0.2,0.6-1.4,1.6-1.2,1.9
	c2.4-1.5,4.7-3.3,6.8-5.2l-6.3-6.3c-0.4,0.4-0.9,0.8-1.4,1.2c-0.1,0.7,0,1.3,0.9,1.6s2.6,1.3,2.2,2.2s-1.3,2.1-1.8,3
	S109.3,93.5,109,94.1L109,94.1z M110.5,57.1c0,0,0,0.1-0.1,0.1h6.6c0-0.9-0.1-1.9-0.2-2.8c-0.1,0.1-0.1,0.2-0.1,0.3
	c-0.5,1-0.6,0.4-0.5,0c0.1-0.6,0.2-1.1,0.5-1.7c0-0.3-0.1-0.6-0.2-0.9c-0.2,0.3-0.6,0.6-0.9,0.7c-0.3,0.1-0.6,0.8-0.7,1.1
	s-0.9-0.1-1.4,0.2c-1,0.5-2.1,0.6-1.4,1.7C112.5,56.4,110.8,56.2,110.5,57.1L110.5,57.1z M108.2,36l-6.3,6.3
	c1.1,1.2,2.1,2.5,2.9,3.9c0.9,0.1,1.8,0.6,2.4,1.3c0.5,0.6,1.8,1.8,1.6,2.3c-0.1,0.3,0.2,0.7,0.5,0.9c0.5,0.3,0.8,0.3,1.1,0
	c0.5-0.6,0.5-1.4,1.2-1.9s2.3,1.2,2.3,1.5s-0.4,0.4-0.5,1c-0.2,0.8-0.9,1.8-0.1,2c1.1,0.4,1.3-0.1,1.8-0.9c0.3-0.4,0.2-1,0.5-1.3
	c0.2-0.2,0.4-0.4,0.7-0.5c-0.4-1.8-1-3.5-1.7-5.2c-0.2-0.2-0.4-0.3-0.6-0.4c-0.4-0.1-0.2-0.5-0.7-0.7s-0.9-0.4-0.9-1.4
	c-0.1-0.9,0.7,0.3,0.9,0.1c0,0,0.1-0.1,0.1-0.1C111.8,40.5,110.2,38.1,108.2,36L108.2,36z M100.5,44.6c-0.3,0-0.5,0-0.8-0.1
	l-2.1,2.1c0.4,0.1,0.8,0,1.3,0.2s0.3-1.6,1.1-1.4s1.1,0.7,0.4,1c-0.6,0.2,0.1,0.7-0.6,0.9s0.5,0.8,0.5,1s-0.9,0.5,0.4,0.9
	s0-1.1,0.2-1.3s0.9,0.4,1.1,0.1c0.1-0.1,0.2-0.3,0.4-0.5C101.9,46.4,101.2,45.5,100.5,44.6L100.5,44.6z M97.2,77.8
	c0,0.4-0.4,0.1-0.6,0.2c1.3,0.8,2.7,1.5,4.1,1.9c0.8,0.2,1.6,0.3,2.5,0.1c0.9-0.2,1.1,0.2,1.6,0.2c0.6,0,1-0.8,1.3-1.3
	c0.9-1.3,0.7-1.5,1-1.7s1.2,1.7,1.1,3c0,0.2,0,0.4-0.1,0.6l0.1,0.1c5.4-5.8,8.5-13.3,8.8-21.3h-6.8c0.4,0.6,0.8,1.2,1.1,1.8
	c0.4,0.7,0.6,1.8,1.1,1.9c0.9,0.1,1.9,0.9,1.9,1.5c0.1,1.4-4.2,1.7-4.7,1.5s-0.8-0.2-0.8,0.6s-1.5,0.8-2.1,1.3s-0.7,1.6-1.2,2.3
	c-0.7,0.8-1.4,1.5-2.2,2.2c-1,0.7-2.9,0.7-2.1,1.2c0.6,0.3,2,0.4,1.9,0.1s0.1-0.4,0.4-0.1s0.9-0.2,0.8-0.6s-0.1-1.1,0.3-1.1
	c0.6,0,1.2-0.7,1.6-0.6s0.8,0.8,0.4,3.1c-0.3,1.7-0.9,3.3-1.9,4.7c-0.5,0.8-0.9,0.2-1.6-0.1c-0.9-0.3-1.9-0.5-2.9-0.7
	C99.7,78.4,97.2,77.5,97.2,77.8L97.2,77.8z M139.9,59.7h-8.9c-0.3,11.6-4.9,22.7-12.9,31.1l6.4,6.4
	C134.1,87.1,139.6,73.7,139.9,59.7z M124.4,19.8l-6.6,6.6c1,1.5,2.1,2.8,3.4,4c0.7,0.7,1.4,1.3,2,1.9s4.2,5.1,3.5,5.7
	c0,0.1-0.1,0.1-0.2,0.1c2.8,5.9,4.4,12.4,4.6,19h8.9C139.7,43.2,134.1,29.9,124.4,19.8z M85.2,11.5c7.4,0.2,14.6,2.1,21.1,5.6
	c0.5-0.1,1.1-0.2,1.6-0.3c0.8-0.4,2.4,0.5,3.1,0.9s1.2,1,2,1.4c1.1,0.7,1.9,1.8,2.3,3c0.3,1.3,1.1,1.2,0.7,1.7
	c-0.2,0.3,0.1,0.3,0.5,0.6l6.2-6.2C112.6,8.4,99.2,2.8,85.2,2.6L85.2,11.5z M85.2,22.9c7.3,0.3,14.4,2.8,20.2,7.2
	c-0.6-0.8-1.3-1.7-1.6-2.1c-0.6-0.6-2.6-1.3-2.4-1.6s2,1.1,2.4,0.9s-0.9-2-0.8-2c1,0.7,1.8,1.6,2.5,2.7c0.3,0.5,1.1,0.2,1.8,0.7
	s0.6,1.1,1.1,1.5c0.1,0.1,1.1,0.7,0.5,0.6c-0.2,0-0.4-0.4-0.6-0.2s0.1,0.8,0.4,1.4l3-3c-0.4-0.9-1.3-2-1.9-2.2s-1,0.4-1.4,0.7
	s-0.9,0.5-1,0.2c0-0.4,0-0.8,0.1-1.2c0-0.3-0.3-0.6-0.4-0.9c-0.2-0.8,0.1-1.6-0.4-2.2c-0.5-0.7-0.9-1.3-1.3-2.1
	c-0.6-0.8-1.1-1.7-1.3-2.7c-5.9-3-12.3-4.6-18.8-4.7L85.2,22.9z M85.2,34.4c5.5,0.3,10.8,2.5,14.9,6.2l6.3-6.3
	c-5.8-5.4-13.3-8.5-21.2-8.8L85.2,34.4z M85.2,45.8c0.8,0.1,1.7,0.3,2.5,0.5c0.2-0.5,0.8-0.8,1.2-1.1s0.9-0.8,0.8,0.2
	c0,0.5-0.3,1-0.7,1.3c0.9,0.4,1.7,0.9,2.5,1.4l0.5,0.4l0.9-0.9c0,0,0-0.1,0-0.1c0-0.5,0.7-1.1,1.5-1.4l2.8-2.8H97
	c-0.4,0-0.9,0.7-1.3,0.5s1.2-1.7,2-1.4l0.3,0.1l0.4-0.4c-3.6-3.3-8.3-5.2-13.1-5.4L85.2,45.8z M84,48.3c-1,0-2,0.2-3,0.5
	c-0.1,0.1-0.2,0.3-0.1,0.4c0.2,0.4,1-0.4,1.1,0.3c0.1,0.5-0.8,0.1-0.8,0.5s0.7,0.2,0.7,0.6c-0.1,0.5-0.3,1-0.7,1.3
	c-0.4,0.3-2.6,0.5-2.8,1c-0.2,0.4-0.4,0.8-0.7,1.2c-0.4,0.4-2.1,1.4-2.1,1.7c0,0.6,0.8-0.2,1.1-0.4s0.9-0.4,1.4-0.7
	c0.8-0.4,1.1,1.1,0.2,1.1c-0.5,0-0.9,1.5-1.7,1.2c-0.2-0.1-0.8-0.4-0.9-0.1s1.2,0.4,1.6,0.7c1,0.7-0.8,0.6-1.1,0.8s-0.1,0.6,0.3,0.4
	s0.9-0.6,1.1,0.1c0.3,0.9-1.5,4.1-2,3.8c-0.3-0.2-0.6,0.1-0.9,0.2c0.4,0.7,0.8,1.4,1.3,2.1c0.4-0.6,0.9-1.4,1.1-1.4s0.2-0.3,0.4-0.5
	s0.6,0,0.6-0.4s1-0.9,1.1-1.5c0.1-0.3-0.3-0.6-0.2-0.9c0.1-0.2,0.3-0.4,0.5-0.4c0.2-0.1,0.7,0.4,0.8,0.2s0.8,0,1.4,0.3
	c0.2,0.1,0.7,0,1,0.4c0.4,0.6,0,0.6,0,0.7s0.2-0.1,0.4,0s-1.1,1-0.9,1.4s-1.1,2.4-1.4,2.7s-1.2-0.1-1.5,0s-0.4,0.4-0.9,0.2
	c-0.4,0-0.9,0-1.3,0.3c1.9,1.6,4.2,2.5,6.7,2.5c0.5,0,1.1,0,1.6-0.1c0.3-0.4,0.5-0.9,0.5-1.5c0-0.3,0-0.6,0.1-0.9
	c0.1-0.2,1-1.2,1.3-1.2s0.5,0.3,0.9,0.1c0.8-0.2,1.3,0,1.3,0.3s-1,0.4-1,0.6s0.8,0.5,1,0.2c0.3-0.4,0.5-0.9,0.3-1.4
	c-0.3-0.4-0.3-0.6,0.2-0.4c0.3,0.1,0.3-1,0.6-1.5c0.4-0.6-0.7-0.2-1.1-0.1s-0.8-0.8-0.8-1.1s0.8,0.8,1.2,0.8c0.5,0,0.9-0.4,1-0.9
	c0-0.4-0.9-0.4-1-0.9c-0.1-0.3,0.7,0,0.6-0.3s0.1-0.8-0.4-1s-1-1.8-1.4-1.9s-0.6,0.4-0.9,0.6s-0.6-0.1-0.4-0.3
	c0.4-0.3,0.7-0.7,1-1.1c0.2-0.7,1.1,0,0.9-0.9s-1-0.8-0.6-1.3c0.3-0.3,0.2-0.7-0.1-1c-0.2-0.2-0.4-0.2-0.7-0.1
	c-0.4,0.1-0.8-0.6-0.8-1.1c0-0.3-0.9-0.3-0.9-0.6c0.1-0.6-0.9-0.7-1.5-0.7c-0.7-0.2-1.4-0.5-1.9-1.1c-0.1-0.2-1,0.2-0.7-0.7
	s1.1,0.2,1.4-0.1c0.3-0.2,0.3-0.5,0.2-0.7L84,48.3z M45.3,18l6.3,6.3c8.4-8,19.5-12.6,31.1-12.9V2.5C68.7,2.8,55.3,8.3,45.3,18
	L45.3,18z M28,57.2h8.9c0.3-11.6,4.9-22.7,12.9-31.1l-6.4-6.4C33.7,29.9,28.2,43.2,28,57.2z"/>
</svg>
