<svg xmlns="http://www.w3.org/2000/svg" xmlns:xlink="http://www.w3.org/1999/xlink" version="1.1" id="Calque_1" x="0px" y="0px" style="enable-background:new 0 0 240.95 155.91;" xml:space="preserve" viewBox="73.71 21.64 91.62 113.65">
<style type="text/css">
	.st0{fill:#5091CD;}
	.st1{fill-rule:evenodd;clip-rule:evenodd;fill:#5091CD;}
	.st2{fill:#FFFFFF;}
	.st3{fill:none;stroke:#5091CD;stroke-width:0.9725;}
	.st4{fill:none;stroke:#5091CD;stroke-width:0.9185;}
	.st5{fill:none;stroke:#5091CD;stroke-width:0.8645;}
</style>
<g>
	<path class="st0" d="M82.53,122.56h1.66v7.23c0,1.26-0.14,2.25-0.43,3c-0.29,0.74-0.8,1.34-1.54,1.8c-0.74,0.47-1.72,0.7-2.92,0.7   c-1.17,0-2.13-0.2-2.88-0.61c-0.75-0.4-1.28-0.99-1.6-1.75c-0.32-0.77-0.48-1.81-0.48-3.13v-7.23H76v7.22c0,1.09,0.1,1.89,0.3,2.4   c0.2,0.52,0.55,0.91,1.04,1.19c0.49,0.28,1.1,0.42,1.81,0.42c1.22,0,2.09-0.28,2.6-0.83c0.52-0.55,0.77-1.61,0.77-3.18V122.56   L82.53,122.56z"/>
	<polygon class="st0" points="91.2,135.08 91.2,122.56 92.9,122.56 99.47,132.39 99.47,122.56 101.06,122.56 101.06,135.08    99.36,135.08 92.79,125.25 92.79,135.08 91.2,135.08  "/>
	<path class="st0" d="M117.05,130.69l1.66,0.42c-0.35,1.36-0.97,2.4-1.87,3.11c-0.9,0.71-2,1.07-3.31,1.07   c-1.35,0-2.44-0.27-3.29-0.82c-0.84-0.55-1.49-1.35-1.93-2.39c-0.44-1.04-0.66-2.16-0.66-3.36c0-1.3,0.25-2.44,0.75-3.41   c0.5-0.97,1.21-1.71,2.13-2.21c0.92-0.5,1.93-0.75,3.03-0.75c1.25,0,2.3,0.32,3.16,0.96c0.85,0.64,1.45,1.53,1.78,2.69l-1.63,0.38   c-0.29-0.91-0.71-1.57-1.26-1.99c-0.55-0.42-1.24-0.62-2.08-0.62c-0.96,0-1.76,0.23-2.41,0.69c-0.65,0.46-1.1,1.08-1.36,1.86   c-0.26,0.78-0.39,1.58-0.39,2.4c0,1.07,0.15,1.99,0.46,2.79c0.31,0.79,0.79,1.39,1.45,1.78c0.66,0.39,1.36,0.59,2.13,0.59   c0.93,0,1.71-0.27,2.35-0.8C116.38,132.54,116.82,131.74,117.05,130.69L117.05,130.69z"/>
	<polygon class="st0" points="128.2,135.08 128.2,124.04 124.08,124.04 124.08,122.56 134,122.56 134,124.04 129.86,124.04    129.86,135.08 128.2,135.08  "/>
	<path class="st0" d="M137.3,135.08l4.81-12.51h1.78l5.12,12.51h-1.89l-1.46-3.79h-5.23l-1.37,3.79H137.3L137.3,135.08z    M140.91,129.94h4.25l-1.31-3.46c-0.4-1.05-0.69-1.92-0.89-2.6c-0.16,0.8-0.38,1.6-0.68,2.39L140.91,129.94L140.91,129.94z"/>
	<path class="st0" d="M154.61,135.08v-12.51h4.31c0.97,0,1.72,0.06,2.23,0.18c0.72,0.16,1.33,0.46,1.84,0.89   c0.66,0.56,1.15,1.27,1.48,2.14c0.33,0.87,0.49,1.86,0.49,2.98c0,0.95-0.11,1.79-0.34,2.53c-0.22,0.73-0.5,1.34-0.85,1.82   c-0.35,0.48-0.73,0.86-1.14,1.13c-0.41,0.28-0.91,0.49-1.49,0.63c-0.59,0.14-1.26,0.21-2.01,0.21H154.61L154.61,135.08z    M156.26,133.6h2.67c0.82,0,1.47-0.08,1.94-0.23c0.47-0.15,0.84-0.37,1.12-0.65c0.39-0.39,0.7-0.92,0.92-1.58   c0.22-0.66,0.33-1.47,0.33-2.41c0-1.31-0.22-2.31-0.64-3.02c-0.43-0.7-0.95-1.17-1.57-1.41c-0.44-0.17-1.16-0.26-2.14-0.26h-2.63   V133.6L156.26,133.6z"/>
	<polygon class="st1" points="74,119.27 164.93,119.27 164.93,119.68 74,119.68 74,119.27  "/>
	<path class="st0" d="M79.76,108.11h1.04v4.68c0,0.81-0.09,1.46-0.27,1.94c-0.18,0.48-0.5,0.87-0.97,1.17   c-0.47,0.3-1.08,0.45-1.84,0.45c-0.74,0-1.34-0.13-1.81-0.39c-0.47-0.26-0.8-0.64-1-1.13c-0.2-0.5-0.3-1.17-0.3-2.03v-4.68h1.04   v4.67c0,0.7,0.06,1.22,0.19,1.55c0.13,0.33,0.35,0.59,0.65,0.77c0.31,0.18,0.69,0.27,1.13,0.27c0.77,0,1.31-0.18,1.64-0.54   c0.32-0.36,0.49-1.04,0.49-2.06V108.11L79.76,108.11z"/>
	<polygon class="st0" points="82.52,116.21 82.52,108.11 83.59,108.11 87.72,114.47 87.72,108.11 88.72,108.11 88.72,116.21    87.65,116.21 83.52,109.85 83.52,116.21 82.52,116.21  "/>
	<polygon class="st0" points="90.64,116.21 90.64,108.11 91.69,108.11 91.69,116.21 90.64,116.21  "/>
	<polygon class="st0" points="95.52,116.21 95.52,109.07 92.93,109.07 92.93,108.11 99.16,108.11 99.16,109.07 96.56,109.07    96.56,116.21 95.52,116.21  "/>
	<polygon class="st0" points="100.25,116.21 100.25,108.11 105.93,108.11 105.93,109.07 101.29,109.07 101.29,111.55 105.64,111.55    105.64,112.5 101.29,112.5 101.29,115.25 106.12,115.25 106.12,116.21 100.25,116.21  "/>
	<path class="st0" d="M107.55,116.21v-8.09h2.71c0.61,0,1.08,0.04,1.4,0.12c0.45,0.11,0.83,0.3,1.15,0.58   c0.41,0.36,0.73,0.82,0.93,1.38c0.21,0.56,0.31,1.2,0.31,1.92c0,0.61-0.07,1.16-0.21,1.63c-0.14,0.47-0.32,0.87-0.54,1.18   c-0.22,0.31-0.46,0.56-0.72,0.73c-0.26,0.18-0.57,0.31-0.94,0.41c-0.37,0.09-0.79,0.14-1.26,0.14H107.55L107.55,116.21z    M108.59,115.25h1.68c0.52,0,0.93-0.05,1.22-0.15c0.29-0.1,0.53-0.24,0.71-0.42c0.25-0.25,0.44-0.6,0.58-1.02   c0.14-0.43,0.21-0.95,0.21-1.56c0-0.85-0.14-1.5-0.4-1.95c-0.27-0.46-0.6-0.76-0.98-0.91c-0.28-0.11-0.73-0.17-1.35-0.17h-1.65   V115.25L108.59,115.25z"/>
	<polygon class="st0" points="118.53,116.21 118.53,108.11 119.59,108.11 123.72,114.47 123.72,108.11 124.72,108.11 124.72,116.21    123.65,116.21 119.52,109.85 119.52,116.21 118.53,116.21  "/>
	<path class="st0" d="M125.61,116.21l3.02-8.09h1.12l3.22,8.09h-1.19l-0.92-2.45h-3.29l-0.86,2.45H125.61L125.61,116.21z    M127.87,112.88h2.67l-0.82-2.24c-0.25-0.68-0.44-1.24-0.56-1.68c-0.1,0.52-0.24,1.04-0.42,1.55L127.87,112.88L127.87,112.88z"/>
	<polygon class="st0" points="134.98,116.21 134.98,109.07 132.39,109.07 132.39,108.11 138.62,108.11 138.62,109.07 136.02,109.07    136.02,116.21 134.98,116.21  "/>
	<polygon class="st0" points="139.87,116.21 139.87,108.11 140.91,108.11 140.91,116.21 139.87,116.21  "/>
	<path class="st0" d="M142.42,112.26c0-1.34,0.35-2.4,1.05-3.16c0.7-0.76,1.61-1.14,2.71-1.14c0.72,0,1.38,0.18,1.96,0.54   c0.58,0.36,1.03,0.86,1.33,1.49c0.31,0.64,0.46,1.36,0.46,2.17c0,0.82-0.16,1.56-0.48,2.2c-0.32,0.65-0.78,1.14-1.37,1.47   c-0.59,0.33-1.23,0.5-1.91,0.5c-0.74,0-1.4-0.18-1.98-0.55c-0.58-0.37-1.03-0.87-1.33-1.51   C142.57,113.65,142.42,112.97,142.42,112.26L142.42,112.26z M143.5,112.28c0,0.98,0.25,1.74,0.76,2.3   c0.51,0.56,1.15,0.84,1.92,0.84c0.78,0,1.43-0.28,1.93-0.85c0.5-0.57,0.76-1.37,0.76-2.41c0-0.66-0.11-1.23-0.33-1.72   c-0.22-0.49-0.53-0.87-0.95-1.14c-0.42-0.27-0.88-0.4-1.4-0.4c-0.74,0-1.37,0.26-1.9,0.78C143.76,110.19,143.5,111.06,143.5,112.28   L143.5,112.28z"/>
	<polygon class="st0" points="151.27,116.21 151.27,108.11 152.34,108.11 156.47,114.47 156.47,108.11 157.47,108.11 157.47,116.21    156.4,116.21 152.27,109.85 152.27,116.21 151.27,116.21  "/>
	<path class="st0" d="M158.86,113.61l0.98-0.09c0.04,0.41,0.15,0.74,0.32,1c0.17,0.26,0.43,0.47,0.79,0.63   c0.36,0.16,0.76,0.24,1.21,0.24c0.4,0,0.75-0.06,1.05-0.18c0.3-0.12,0.53-0.29,0.68-0.5c0.15-0.21,0.22-0.44,0.22-0.69   c0-0.25-0.07-0.47-0.22-0.66c-0.14-0.19-0.38-0.35-0.71-0.48c-0.21-0.08-0.68-0.22-1.4-0.4c-0.72-0.18-1.23-0.35-1.52-0.5   c-0.38-0.2-0.66-0.45-0.84-0.75c-0.18-0.3-0.27-0.63-0.27-1.01c0-0.41,0.11-0.79,0.34-1.14c0.23-0.36,0.55-0.63,0.99-0.81   c0.43-0.18,0.91-0.27,1.44-0.27c0.58,0,1.1,0.1,1.54,0.29c0.45,0.19,0.79,0.48,1.03,0.85c0.24,0.38,0.37,0.8,0.39,1.28l-1,0.08   c-0.06-0.51-0.24-0.9-0.55-1.16c-0.31-0.26-0.77-0.39-1.37-0.39c-0.63,0-1.09,0.12-1.38,0.36c-0.29,0.24-0.43,0.52-0.43,0.86   c0,0.29,0.1,0.53,0.31,0.72c0.2,0.19,0.72,0.38,1.57,0.58c0.85,0.2,1.43,0.37,1.74,0.52c0.46,0.22,0.8,0.49,1.01,0.83   c0.22,0.33,0.33,0.72,0.33,1.15s-0.12,0.84-0.36,1.22c-0.24,0.38-0.58,0.68-1.03,0.89c-0.45,0.21-0.95,0.32-1.51,0.32   c-0.71,0-1.31-0.11-1.79-0.32c-0.48-0.21-0.86-0.53-1.13-0.96C159.02,114.63,158.88,114.15,158.86,113.61L158.86,113.61z"/>
</g>
<g>
	<path class="st0" d="M119.99,27.3l0.08-0.03c0.2,0.04,0.43,0.02,0.63-0.02c0.19,0.02,0.4,0.04,0.5,0.24c0.09,0.1,0.2,0.2,0.36,0.15   c0.1-0.03,0.2-0.09,0.31-0.05c0.14,0.13,0.17,0.38,0.39,0.4l0.31,0.04c0.14-0.03,0.27,0.05,0.41,0.03   c0.08-0.04,0.06-0.12,0.04-0.18c-0.08-0.14-0.24-0.18-0.36-0.27c-0.18-0.05-0.19-0.24-0.28-0.35c0-0.04-0.01-0.07,0.02-0.11   c0.03-0.04,0.04-0.1,0.07-0.14c0.02-0.15-0.2-0.13-0.2-0.28c-0.12-0.02-0.12-0.14-0.14-0.23c0-0.01,0-0.03,0.02-0.03   c0.03,0.03,0.04,0.08,0.09,0.1c0.02,0.08,0.12,0.04,0.17,0.08c0.27-0.03,0.4,0.25,0.66,0.2c0.2-0.03,0.39-0.11,0.56-0.21   c0.25-0.07,0.52-0.09,0.75-0.19c0.08-0.01,0.19-0.02,0.26,0.03c0.19,0.01,0.4,0.04,0.56-0.06c0.09,0,0.17-0.06,0.25-0.09   c0.03-0.03-0.03-0.12,0.03-0.12c0.04,0,0.06,0.03,0.08,0.06l0.33-0.05c0.09,0.03,0.19,0,0.25-0.06c-0.02-0.14-0.21-0.17-0.23-0.29   c-0.06-0.09-0.22-0.04-0.24-0.18c-0.13,0-0.21-0.06-0.34-0.06c-0.06-0.05-0.14-0.09-0.2-0.12c-0.18,0.01-0.3-0.1-0.47-0.1   c-0.15,0.04-0.3,0.02-0.44,0.08c-0.1,0.06-0.22,0.09-0.29,0.18c-0.24,0.13-0.51,0.18-0.79,0.21c-0.16,0.03-0.34,0.13-0.41,0.28   c-0.1,0.11-0.2-0.08-0.33-0.02c-0.07,0.02-0.15,0.05-0.17,0.13c-0.02,0.06-0.05,0.13-0.1,0.16c-0.04-0.03-0.02-0.1-0.03-0.14   c-0.08-0.12-0.22-0.08-0.33-0.12c-0.29-0.03-0.5,0.19-0.78,0.19c-0.1,0.03-0.22,0.07-0.25,0.19c-0.07,0.08-0.19-0.01-0.27,0.08   l-0.08,0.02c-0.11,0.05-0.26,0.2-0.39,0.18L119.99,27.3z"/>
	<path class="st0" d="M122.85,23.76c0,0.03-0.02,0.07-0.05,0.08c-0.06,0.01-0.09-0.06-0.11-0.1c0-0.03,0.02-0.08,0.06-0.09   C122.79,23.67,122.82,23.72,122.85,23.76z"/>
	<path class="st0" d="M125.39,24.45c0.01,0.08-0.03,0.13-0.09,0.16c-0.17,0.09-0.38,0.02-0.51-0.09c-0.03-0.06-0.07-0.12-0.03-0.18   c0.13-0.14,0.34-0.11,0.49-0.04C125.31,24.32,125.41,24.36,125.39,24.45z"/>
	<path class="st0" d="M127.03,25.16c0.01,0.05,0.04,0.12-0.01,0.17c-0.12,0.19-0.36,0.07-0.52,0.03c-0.04-0.06-0.14-0.07-0.14-0.16   c0.05-0.13,0.22-0.16,0.34-0.2C126.82,25.02,126.96,25.04,127.03,25.16z"/>
	<path class="st0" d="M126.11,25.69c-0.01,0.06,0.03,0.1,0,0.15c-0.13,0.02-0.21-0.13-0.34-0.12c-0.05-0.05-0.09-0.1-0.07-0.18   c0.06-0.05,0.15-0.04,0.22-0.02C125.99,25.56,126.05,25.62,126.11,25.69z"/>
	<path class="st0" d="M135.21,30.21c0.11,0.11,0.3,0.14,0.35,0.31c0.01,0.11,0.13,0.17,0.17,0.27c0.04,0.13,0.14,0.24,0.09,0.39   c-0.1,0.1,0.04,0.3-0.13,0.35c-0.24,0.12-0.4-0.13-0.57-0.25c-0.12-0.09-0.18-0.3-0.36-0.32c-0.2,0.03-0.34-0.13-0.49-0.23h-0.04   c-0.09-0.1-0.17-0.22-0.14-0.36c0.02-0.11,0.12-0.16,0.2-0.24c0.13-0.05,0.19,0.11,0.29,0.08c0.05-0.03,0.07-0.1,0.1-0.14   C134.86,30.12,135.07,30.07,135.21,30.21z"/>
	<path class="st0" d="M124.59,30.96c0.03,0.07,0.08,0.15,0.07,0.23c-0.1,0.02-0.24,0.08-0.32-0.03c-0.05-0.07-0.1-0.15-0.06-0.24   c0.05-0.05,0.13-0.06,0.19-0.04C124.52,30.9,124.58,30.9,124.59,30.96z"/>
	<path class="st0" d="M125.49,31.09c0.22,0.02,0.26,0.27,0.46,0.34c0.09,0.09,0.18,0.23,0.12,0.37c-0.1,0.1-0.26,0.07-0.39,0.07   c-0.09-0.04-0.16-0.13-0.25-0.18c-0.08-0.1-0.19-0.18-0.31-0.24c-0.04-0.02-0.04-0.07-0.05-0.11c-0.07-0.08-0.07-0.2-0.18-0.26   c-0.04-0.04,0-0.09,0-0.14c0.13-0.1,0.25,0.03,0.36,0.08L125.49,31.09z"/>
	<path class="st0" d="M123.96,31.29c0.17,0.03,0.23,0.22,0.33,0.33c0.03,0.08-0.04,0.09-0.08,0.13c-0.2,0.07-0.2-0.21-0.36-0.25   c-0.08-0.1-0.28-0.13-0.24-0.28c0.04-0.03,0.06-0.07,0.1-0.08C123.82,31.12,123.87,31.24,123.96,31.29z"/>
	<path class="st0" d="M124.49,32.01c0.02,0.04-0.01,0.09-0.05,0.11c-0.03,0.01-0.08-0.01-0.11-0.03c-0.03-0.02-0.05-0.07-0.03-0.11   C124.35,31.92,124.46,31.94,124.49,32.01z"/>
	<path class="st0" d="M116.36,32.18c0.07,0.11-0.05,0.19-0.08,0.3c-0.09,0.04-0.2,0-0.27-0.07c-0.03-0.09-0.04-0.2-0.05-0.3   c0.06-0.08,0.14,0.02,0.22,0.01C116.24,32.12,116.31,32.13,116.36,32.18z"/>
	<path class="st0" d="M115.82,32.17c-0.01,0.08-0.03,0.18-0.1,0.2c-0.08,0-0.13-0.05-0.13-0.13c0.01-0.05,0.03-0.1,0.07-0.13   C115.71,32.11,115.79,32.11,115.82,32.17z"/>
	<path class="st0" d="M124.78,32.35c0.03,0.09,0.13,0.16,0.1,0.28c-0.02,0.08-0.12,0.1-0.19,0.13c-0.1-0.02-0.2-0.05-0.26-0.14   c-0.08-0.1-0.01-0.19-0.03-0.31c0.03-0.04,0.05-0.13,0.13-0.12C124.64,32.17,124.73,32.24,124.78,32.35z"/>
	<path class="st0" d="M116.85,32.46c0,0.07,0.02,0.16-0.05,0.19c-0.11,0.06-0.24,0.05-0.34-0.03c-0.02-0.1,0.02-0.24,0.13-0.3   c0.08-0.02,0.16,0.05,0.23,0.08L116.85,32.46z"/>
	<path class="st0" d="M125.85,33.56c-0.06,0.05-0.1-0.05-0.16-0.04c-0.02-0.01-0.03-0.02-0.03-0.05c0.03-0.01,0.08,0,0.08-0.05   c0.04,0,0.08-0.02,0.12-0.01C125.89,33.46,125.85,33.5,125.85,33.56z"/>
	<path class="st0" d="M126.27,33.81c0.05,0.05-0.05,0.08-0.01,0.14c0.03,0.03,0.07,0.05,0.08,0.09c-0.02,0.04-0.02,0.11-0.08,0.12   c-0.09,0.03-0.19,0-0.25-0.07c-0.08-0.08-0.1-0.18-0.08-0.29c0.01-0.03,0.06-0.06,0.09-0.08   C126.12,33.72,126.16,33.84,126.27,33.81z"/>
	<path class="st0" d="M126.98,34.23c0.03,0.05,0.05,0.13,0.01,0.18c-0.01,0.03-0.05,0.03-0.08,0.03l-0.24-0.25   c-0.02-0.03-0.01-0.08,0.03-0.09C126.81,34.09,126.89,34.17,126.98,34.23z"/>
	<path class="st0" d="M126.56,34.42c0.08-0.02,0.13,0.03,0.19,0.07c0.01,0.05,0.09,0.09,0.04,0.15c-0.04,0.08-0.13,0.13-0.21,0.17   c-0.15-0.02-0.34-0.11-0.39-0.28c0.01-0.07-0.04-0.12-0.01-0.18c0.04-0.05,0.09-0.08,0.14-0.1c0.07,0.09,0.07-0.07,0.13,0   C126.51,34.32,126.48,34.4,126.56,34.42z"/>
	<path class="st0" d="M108.11,34.39c0.1,0.08-0.04,0.15-0.02,0.25c-0.09,0.08-0.23,0.05-0.33,0c-0.05-0.03-0.05-0.08-0.03-0.13   c0.03-0.1,0.14-0.18,0.24-0.19C108.03,34.32,108.07,34.36,108.11,34.39z"/>
	<path class="st0" d="M127.27,34.9c-0.02,0.11-0.02,0.26-0.15,0.3c-0.14,0-0.27-0.08-0.34-0.21c-0.01-0.09,0.04-0.16,0.11-0.22   c0.06-0.03,0.13-0.13,0.2-0.08C127.16,34.74,127.23,34.8,127.27,34.9z"/>
	<path class="st0" d="M127.73,35.04c-0.02,0.02-0.03,0.05,0,0.08c0.02,0.08,0.14-0.01,0.11,0.1c-0.02,0.08-0.04,0.17-0.14,0.19   c-0.09,0.02-0.15-0.05-0.22-0.1c-0.03-0.11-0.06-0.24-0.03-0.35c0.02-0.02,0.05-0.02,0.07-0.04   C127.6,34.93,127.67,34.98,127.73,35.04z"/>
	<path class="st0" d="M128.27,35.46c0.03,0.1,0.1,0.17,0.15,0.27c0.01,0.07,0.03,0.17-0.05,0.21c-0.05,0.05-0.13,0.04-0.2,0.05   c-0.07-0.02-0.16-0.05-0.2-0.13c0-0.08-0.07-0.13-0.06-0.2c-0.05-0.07-0.01-0.14-0.04-0.21c0.01-0.07,0.03-0.12,0.09-0.17   C128.07,35.33,128.22,35.32,128.27,35.46z"/>
	<path class="st0" d="M120.14,30.94c0.07,0.14,0.23,0.11,0.36,0.13c0.03,0.03,0.07,0.04,0.11,0.06c0.1,0.03,0.08,0.13,0.09,0.21   c-0.08,0.18-0.29,0.18-0.46,0.23l-0.15,0.15l-0.33-0.46L120.14,30.94z"/>
	<path class="st0" d="M137.94,34.93c0.01,0.04-0.04,0.04-0.05,0.07c-0.16,0.13-0.36,0.19-0.57,0.19c-0.04-0.1,0.09-0.19,0.15-0.24   c0.12-0.07,0.26-0.07,0.39-0.1C137.88,34.88,137.94,34.88,137.94,34.93z M130.55,31.74c0.11,0.15-0.13,0.22-0.11,0.36   c-0.03,0.05-0.09,0-0.14,0.02c-0.09,0.03-0.11,0.12-0.12,0.2c-0.04,0.11,0.06,0.18,0.11,0.25c0.03,0.03,0.08,0.01,0.1,0   c0.03-0.04,0.03-0.11,0.07-0.15c0.04,0.04,0.06,0.08,0.07,0.13c0.1,0.09,0.22,0.12,0.32,0.21c0.08,0.16,0.23,0.24,0.38,0.31   c0.15,0.13,0.12,0.35,0.28,0.47c0.04,0.17,0.1,0.34,0.12,0.51c-0.02,0.19,0.07,0.33,0.1,0.49c0.07,0.17,0.24,0.17,0.36,0.25   c0.04,0.07,0.14,0.08,0.14,0.17c0.08,0.03,0.01,0.13,0.04,0.19c0.01,0.14-0.01,0.29-0.04,0.43c-0.11,0.07-0.06,0.19-0.07,0.29   c0.07,0.1,0.06,0.24,0.13,0.35c0.12,0.04,0.19,0.14,0.2,0.27c-0.02,0.05,0.03,0.09,0.04,0.14c0.03,0.18-0.07,0.41,0.11,0.55   c0.03,0.08,0.11,0.11,0.18,0.13c0.2-0.05,0.42-0.05,0.58-0.19l0.13-0.14c0.2-0.07,0.41-0.24,0.64-0.13   c0.08,0.08,0.22,0.13,0.25,0.24c0.25,0.19,0.47,0.43,0.53,0.72c0.05,0.08,0.08,0.14,0.07,0.24l0.13,1.39   c0.2,0.04,0.26,0.27,0.35,0.42c0.12,0.16,0.36,0.08,0.46,0.24c0.03,0.03,0.07,0.08,0.07,0.13c-0.06,0.04-0.15,0.05-0.22,0.02   c-0.03,0.02-0.03,0.06-0.01,0.08c0.11,0.09,0.23,0.18,0.37,0.2c0.05-0.01,0.09-0.04,0.13-0.09c0.01-0.06-0.05-0.09-0.09-0.13   c-0.04-0.01-0.06-0.02-0.09-0.04c0.02-0.05,0.08,0,0.11-0.02c0.21-0.03,0.4,0.05,0.6,0.04c0.09,0.08,0.11,0.19,0.12,0.31   c-0.03,0.27,0.25,0.4,0.36,0.63c0.14,0.21,0.39,0.22,0.61,0.32c0.14,0.1,0.35,0.11,0.45,0.3c0.13,0.1,0.31,0.14,0.39,0.3   c0.07,0.02,0.11,0.11,0.19,0.07c0.13,0.07,0.24-0.07,0.37-0.01c0.16,0.05,0.26,0.21,0.39,0.31c0.09,0.07,0.13,0.19,0.23,0.24   c0,0.08,0.09,0.05,0.12,0.11c0.21,0.14,0.3,0.37,0.46,0.56c0.05,0.08,0.1,0.18,0.19,0.24c0.07,0.15,0.23,0.24,0.33,0.39   c0.08,0.03,0.13,0.13,0.21,0.18c0.01,0.13-0.02,0.3,0.11,0.37c0.18,0.09,0.37-0.02,0.55-0.02c0.13-0.04,0.21-0.17,0.34-0.19   c0.14,0.01,0.24-0.05,0.34-0.14l0.92-0.9c0.04-0.08,0.14-0.07,0.19-0.14c0.11-0.08,0.13-0.21,0.13-0.35   c0.02-0.23-0.05-0.4-0.19-0.56c-0.01-0.05-0.04-0.08-0.07-0.13c-0.03-0.16-0.16-0.28-0.2-0.44c-0.04-0.14-0.22-0.18-0.28-0.33   c-0.08-0.09-0.17-0.19-0.26-0.29c-0.13-0.16-0.29-0.31-0.29-0.53c-0.09-0.17-0.24-0.3-0.32-0.48c-0.13-0.08-0.13-0.25-0.28-0.3   c-0.16-0.14-0.11-0.39-0.32-0.5c-0.17-0.06-0.36-0.16-0.44-0.34c-0.08-0.05-0.1-0.15-0.18-0.22c-0.16-0.09-0.31-0.23-0.42-0.37   c-0.07-0.23-0.22-0.45-0.39-0.64c-0.12-0.16-0.32-0.2-0.45-0.34c-0.17-0.18-0.39-0.29-0.59-0.45c-0.18-0.24-0.32-0.53-0.58-0.74   l-0.24-1.47c-0.01,0.01-0.03,0.02-0.05,0.01c0-0.06-0.02-0.13-0.06-0.18c-0.13-0.08-0.18-0.24-0.31-0.29   c-0.14-0.07-0.34,0-0.43-0.19c-0.03-0.08-0.13-0.11-0.13-0.21c-0.03-0.15-0.02-0.32-0.12-0.45c0.01-0.09-0.07-0.15-0.05-0.25   c-0.22-0.18-0.49-0.38-0.59-0.65c-0.12-0.14-0.29-0.26-0.36-0.42c-0.2-0.13-0.4-0.25-0.63-0.32c-0.15,0.01-0.26-0.05-0.36-0.15   c-0.13-0.13-0.27-0.29-0.35-0.46c-0.13-0.12-0.28-0.2-0.46-0.13c-0.16,0.09-0.33-0.03-0.48-0.08c-0.31-0.12-0.65-0.36-0.99-0.19   c-0.23,0.15-0.54,0.07-0.77,0.25c-0.08,0.08-0.23-0.03-0.27,0.1c0,0.02-0.03,0.05-0.06,0.07L130.55,31.74z"/>
	<path class="st0" d="M113.75,40.5c0.04,0.01,0.04-0.04,0.08-0.04c0.06-0.06,0.13,0,0.19-0.03c0.08,0,0.1,0.08,0.15,0.11   c0.02,0.06-0.02,0.1-0.05,0.14c-0.08,0.05-0.19,0.07-0.29,0.03c-0.03-0.02-0.03-0.07-0.08-0.07c-0.05,0.07-0.14,0.05-0.17,0.14   c-0.08,0.08-0.2,0.02-0.3,0.03c-0.07,0-0.1-0.05-0.17-0.04c-0.05-0.05-0.11-0.1-0.12-0.17c0.04-0.14,0.19-0.24,0.29-0.32   c0.12-0.03,0.25-0.01,0.35,0.1C113.64,40.44,113.69,40.48,113.75,40.5z"/>
	<path class="st0" d="M135.29,40.37c0.04,0.04,0.05,0.09,0.02,0.14c-0.07,0.1-0.22,0.08-0.32,0.05c-0.03-0.06-0.1-0.09-0.08-0.16   C135.01,40.3,135.18,40.31,135.29,40.37z"/>
	<path class="st0" d="M130.46,46.14c0-0.1,0.18-0.09,0.12-0.2c-0.12-0.19-0.39-0.04-0.47-0.25l-0.13,0.38L130.46,46.14z"/>
	<path class="st0" d="M136.96,41.79c0.12,0.11,0.13,0.26,0.21,0.39c0.04,0.07,0.2,0.09,0.15,0.2c0.02,0.07-0.04,0.12-0.07,0.18   c-0.13,0.02-0.22-0.08-0.32-0.14c-0.05-0.06-0.1-0.13-0.18-0.13c-0.16-0.16-0.34-0.34-0.38-0.56c0-0.06,0.03-0.13,0.09-0.16   c0.04-0.04,0.12-0.03,0.18-0.02C136.76,41.61,136.85,41.73,136.96,41.79z"/>
	<path class="st0" d="M137.56,42.43c-0.01,0.01-0.02,0-0.03,0c-0.01-0.01-0.01-0.03,0.01-0.03   C137.55,42.4,137.56,42.41,137.56,42.43z"/>
	<path class="st0" d="M137.82,42.55c0.02,0.05,0.02,0.13,0.01,0.18c-0.06,0.05-0.14,0.06-0.21,0.07c-0.05-0.03-0.13-0.05-0.13-0.12   c-0.01-0.08,0.09-0.09,0.11-0.15C137.66,42.45,137.77,42.47,137.82,42.55z"/>
	<path class="st0" d="M137.83,43.26c0.02,0.04,0.06,0.1,0.11,0.1c0.04-0.01,0.1-0.05,0.13-0.01c0.03,0.06,0.1,0.04,0.12,0.1   c0.03,0.09,0.06,0.2,0.03,0.3c-0.03,0.04-0.08,0.06-0.14,0.05c-0.11-0.1-0.01-0.29-0.14-0.38c-0.04,0-0.08,0.02-0.1,0.07   c-0.02,0.09,0.17,0.13,0.09,0.23c0.02,0.04,0.02,0.08,0.02,0.13c-0.08,0.08-0.16-0.02-0.25-0.02c-0.07-0.05-0.13-0.12-0.16-0.19   c-0.02-0.06,0.02-0.1,0.08-0.12c0.03-0.01,0.07,0.01,0.08-0.03c-0.03-0.08-0.13-0.08-0.18-0.14c-0.13-0.02-0.24-0.13-0.29-0.22   c0-0.07-0.03-0.12,0.01-0.18c0.08-0.06,0.18-0.08,0.28-0.02L137.83,43.26z"/>
	<path class="st0" d="M134.36,43.19c0.02,0.03,0.03,0.09,0,0.12c-0.05,0.04-0.1,0.08-0.17,0.08c-0.05-0.03-0.13-0.04-0.15-0.1   c0-0.08,0.08-0.11,0.13-0.15C134.23,43.13,134.3,43.15,134.36,43.19z"/>
	<path class="st0" d="M134.82,43.51c0.01,0.04,0.02,0.1-0.03,0.13c-0.06,0.02-0.13,0.07-0.19,0.02c-0.04-0.03-0.07-0.08-0.07-0.13   c0.03-0.06,0.07-0.13,0.14-0.13C134.73,43.42,134.8,43.44,134.82,43.51z"/>
	<path class="st0" d="M134.37,43.67c0.12,0.12,0.22,0.26,0.2,0.44c0.01,0.12-0.11,0.19-0.07,0.31c0.08,0.15,0.31,0.26,0.2,0.45   c-0.12,0.13-0.31,0.13-0.46,0.07c-0.06-0.04-0.07-0.12-0.07-0.18c-0.08-0.11-0.1-0.29-0.26-0.33c-0.13-0.06-0.24-0.16-0.4-0.19   c-0.03-0.06-0.1-0.14-0.03-0.21c0.04-0.07,0.11-0.1,0.13-0.17c0.11-0.06,0.2-0.19,0.32-0.19   C134.08,43.68,134.21,43.64,134.37,43.67z"/>
	<path class="st0" d="M138.34,44.06c0.03,0.06,0.07,0.13,0.11,0.19c0.02,0.14,0.18,0.23,0.13,0.38c-0.09,0.07-0.14,0.21-0.28,0.17   c-0.1-0.02-0.13-0.14-0.22-0.17c-0.01-0.06-0.1-0.09-0.08-0.17c0.02-0.09,0.05-0.2,0.02-0.29c0-0.05,0.05-0.09,0.09-0.12   C138.18,44.03,138.28,44,138.34,44.06z"/>
	<path class="st0" d="M133.55,44.44c0.02,0.03,0.02,0.06,0.04,0.08c0.07-0.04,0.16-0.03,0.23-0.01c0.06,0.05,0.11,0.09,0.16,0.15   c-0.01,0.08,0.04,0.18-0.06,0.22c-0.14-0.05-0.19,0.13-0.32,0.11c-0.03-0.1,0-0.22-0.03-0.32l-0.05-0.04   c-0.15,0.08-0.13,0.46-0.37,0.29c-0.06,0-0.07-0.06-0.11-0.09c0-0.05-0.03-0.12,0-0.16c0.1-0.11,0.22-0.21,0.36-0.23   c0.03-0.03,0.05-0.06,0.09-0.05C133.5,44.45,133.53,44.44,133.55,44.44z"/>
	<path class="st0" d="M135.21,44.92c0.02,0.04,0.07,0.08,0.04,0.13c-0.07,0.06-0.16,0.07-0.24,0.03c-0.04-0.03-0.07-0.08-0.07-0.14   c0-0.04,0.03-0.07,0.07-0.07C135.09,44.85,135.15,44.88,135.21,44.92z"/>
	<path class="st0" d="M138.81,45.05c0.02,0.07-0.08,0.08-0.11,0.14c-0.09-0.02-0.17,0.08-0.24,0.01c-0.03-0.03-0.09-0.08-0.04-0.13   c0.1-0.05,0.18-0.18,0.3-0.16L138.81,45.05z"/>
	<path class="st0" d="M134.2,44.97c0.08,0.08,0.01,0.17,0.01,0.26c-0.1,0.09-0.13,0.24-0.26,0.29c-0.09-0.03-0.16,0.06-0.26,0.04   c-0.02-0.07-0.09-0.13-0.07-0.2c0.03-0.08,0.12-0.08,0.17-0.14l0.29-0.29C134.12,44.93,134.16,44.96,134.2,44.97z"/>
	<path class="st0" d="M135.57,45.03c0.02,0.09-0.08,0.09-0.14,0.09c-0.05-0.01-0.08-0.05-0.13-0.09c0.03-0.06,0.09-0.06,0.14-0.08   C135.49,44.95,135.56,44.97,135.57,45.03z"/>
	<path class="st0" d="M133.39,45.09c-0.07,0.14,0.06,0.27,0.1,0.4c0.05,0.03,0.1,0.08,0.16,0.07c0.02,0.07,0.05,0.15,0.13,0.16   c0.1-0.03,0.21,0,0.31,0.01c0.12,0.06,0.03,0.16,0.04,0.25l-0.13,0.11c-0.12,0.02-0.23,0.07-0.34,0.02   c-0.07,0.04-0.06,0.1-0.07,0.16c0.06,0.09,0.15,0.12,0.23,0.19c0.03-0.01,0.05-0.02,0.08,0c0.02,0.02,0.03,0.04,0.01,0.07   c-0.1,0.08-0.22-0.02-0.34,0.01c-0.13,0.04-0.28,0.09-0.41,0.03c-0.04-0.03-0.08-0.1-0.15-0.08c-0.05,0.08-0.13,0.13-0.21,0.17   c-0.09,0.02-0.15-0.04-0.23-0.08c-0.12-0.1-0.07-0.27-0.08-0.4c0.11-0.26,0.41-0.27,0.64-0.34c0.12-0.13,0-0.27,0.02-0.42   c-0.02-0.11,0.06-0.19,0.07-0.3c0.04-0.02,0.05-0.06,0.1-0.06C133.37,45.05,133.39,45.06,133.39,45.09z"/>
	<path class="st0" d="M138.97,45.43c0,0.1-0.13,0.08-0.19,0.15c-0.09-0.05-0.17,0.06-0.25-0.02c-0.05-0.05-0.03-0.13-0.02-0.19   c0.09-0.06,0.2,0.03,0.29-0.04C138.88,45.32,138.95,45.34,138.97,45.43z"/>
	<path class="st0" d="M139.07,45.86c0.01,0.11,0.07,0.19,0.07,0.31c0.11,0.11,0.1,0.26,0.19,0.38c0.06,0.27,0.07,0.53,0.14,0.79   c0.02,0.2,0.14,0.38,0.18,0.58c-0.02,0.17,0.02,0.33,0.04,0.48l-0.01,0.17c-0.06,0.14-0.21,0.08-0.29,0.15   c-0.12-0.01-0.1-0.15-0.18-0.22c-0.02-0.08-0.09-0.15-0.13-0.23c-0.01-0.1-0.05-0.22,0-0.32c-0.01-0.38-0.13-0.72-0.29-1.04   c-0.03-0.14-0.16-0.21-0.24-0.33c-0.03-0.15-0.05-0.28-0.15-0.4c-0.05-0.1-0.11-0.25-0.04-0.36c0.05-0.08,0.16-0.04,0.22-0.05   c0.04,0.03,0.11,0.03,0.13,0.09c-0.16,0.12-0.03,0.29-0.1,0.43c0.02,0.06-0.01,0.12,0.05,0.14c0.14,0,0.12-0.16,0.17-0.25   c0-0.13,0.03-0.27-0.04-0.38c0-0.02,0.02-0.05,0.04-0.07C138.91,45.76,139.01,45.79,139.07,45.86z"/>
	<path class="st0" d="M125.1,45.78c0.03,0.08-0.03,0.16,0.01,0.24c0.01,0.08-0.06,0.15-0.13,0.19c-0.08,0.06-0.19,0.04-0.28,0.03   c-0.09-0.02-0.1-0.12-0.18-0.16c-0.01-0.03-0.01-0.08,0-0.11c0.11-0.18,0.36,0.06,0.41-0.16C124.99,45.78,125.04,45.73,125.1,45.78   z"/>
	<path class="st0" d="M125.55,45.86c0.08,0,0.23-0.06,0.27,0.05c0.04,0.08-0.02,0.19,0.08,0.22c0.12,0,0.2-0.15,0.32-0.07   c0.05,0.07,0.1,0.14,0.18,0.17c0.03,0.02,0.02,0.07,0.02,0.09c-0.08,0.13-0.22,0.19-0.32,0.29c-0.08-0.02-0.14,0.05-0.22,0.03   c-0.11-0.01-0.16,0.11-0.26,0.13c-0.1,0.02-0.24,0.01-0.3-0.09c0.01-0.12,0.02-0.27-0.07-0.37c-0.01-0.13-0.09-0.29-0.02-0.41   c-0.01-0.07,0.07-0.07,0.11-0.09C125.41,45.81,125.48,45.84,125.55,45.86z"/>
	<path class="st0" d="M124.45,46.07c0.01,0.08-0.05,0.13-0.11,0.18c-0.08,0.02-0.16,0-0.22-0.06c-0.11,0.02-0.21,0.14-0.35,0.07   c-0.04-0.01-0.11-0.12-0.14-0.02c0,0.04-0.02,0.08-0.05,0.09h-0.11c-0.02-0.06-0.11-0.1-0.08-0.18c0.04-0.05,0.12-0.02,0.16-0.08   c0.14,0.03,0.26-0.07,0.4-0.04c0.13-0.05,0.28-0.14,0.42-0.05C124.41,46.01,124.44,46.03,124.45,46.07z"/>
	<path class="st0" d="M119.09,46.27c-0.03-0.12-0.19,0-0.23-0.14c-0.08,0.01-0.1,0.1-0.16,0.13c-0.09,0.01-0.16,0.07-0.24,0.06   c-0.03-0.02-0.1-0.03-0.08-0.09c0.05-0.07,0.07-0.14,0.15-0.19c0.07-0.05,0.17,0.02,0.24-0.02c0.1,0.04,0.18-0.09,0.26-0.03   l0.25,0.08L119.09,46.27z"/>
	<path class="st0" d="M129.13,46.56c-0.16-0.02-0.33,0.03-0.44-0.12c0.02-0.08-0.12-0.11-0.06-0.19l0.24-0.38l0.38,0.35   L129.13,46.56z"/>
	<path class="st0" d="M129.78,47.13c-0.09-0.01-0.18-0.01-0.25,0.04c-0.11,0-0.2-0.09-0.25-0.18c-0.02-0.07,0.03-0.13,0.05-0.19   l0.35-0.08L129.78,47.13z"/>
	<path class="st0" d="M134.78,46.11c0.05-0.02,0.11-0.02,0.13-0.07c0.04,0,0.12-0.03,0.15,0.02c0.09,0.04,0.01,0.13,0,0.19   c-0.1,0.06-0.2-0.01-0.31,0c-0.13-0.04-0.29,0.01-0.4-0.09c-0.02-0.03-0.02-0.08,0.01-0.12c0.04-0.07,0.12-0.02,0.18-0.01   C134.6,46.11,134.69,46.09,134.78,46.11z"/>
	<path class="st0" d="M123.32,46.27c0.02,0.05,0.01,0.12-0.02,0.16c-0.04,0.03-0.09,0.02-0.13,0.01c-0.09-0.05-0.03-0.12-0.02-0.18   c0.03-0.04,0.07-0.14,0.13-0.06L123.32,46.27z"/>
	<path class="st0" d="M120.64,46.25c0.01,0.07-0.03,0.15-0.09,0.18c-0.08,0.02-0.11-0.07-0.15-0.1c-0.03-0.06,0.02-0.1,0.04-0.14   C120.51,46.16,120.6,46.19,120.64,46.25z"/>
	<path class="st0" d="M118.27,46.24c-0.04,0.02-0.01,0.08-0.01,0.11c-0.06,0.03-0.07,0.14-0.14,0.14c-0.1-0.01-0.21-0.02-0.26-0.11   c-0.01-0.04,0.03-0.07,0.05-0.09c0.03-0.01,0.09,0,0.11-0.03c0.09,0.01,0.19,0.03,0.24-0.05   C118.28,46.21,118.28,46.24,118.27,46.24z"/>
	<path class="st0" d="M132.25,46.27c-0.01,0.02-0.01,0.03-0.02,0.04c-0.03,0-0.03-0.04-0.01-0.06   C132.23,46.24,132.26,46.24,132.25,46.27z"/>
	<path class="st0" d="M131.45,46.46c0.01,0.03,0.05,0.08,0.02,0.12c-0.02,0.08-0.11,0.07-0.18,0.07c-0.06-0.01-0.09-0.07-0.13-0.1   c0-0.06,0.02-0.13,0.08-0.15C131.32,46.36,131.39,46.41,131.45,46.46z"/>
	<path class="st0" d="M117.91,46.57c0.03,0.01,0.07,0.05,0.08,0.09c-0.02,0.08-0.08,0.13-0.15,0.15c-0.07,0.01-0.15-0.02-0.22-0.06   c-0.03-0.04-0.03-0.11-0.03-0.16c0.03-0.05,0.08-0.1,0.13-0.11C117.79,46.5,117.89,46.48,117.91,46.57z"/>
	<path class="st0" d="M121.27,46.59c0.01,0.04-0.02,0.09-0.03,0.13c-0.02,0.04-0.07,0.05-0.11,0.03c-0.04,0.01-0.08-0.04-0.09-0.08   c-0.01-0.07,0.01-0.13,0.05-0.16C121.15,46.54,121.26,46.49,121.27,46.59z"/>
	<path class="st0" d="M132.25,46.77c0.06,0.06,0.07,0.14,0.04,0.21c-0.01,0.04-0.05,0.07-0.09,0.08c-0.07,0.06-0.12,0.17-0.22,0.15   c-0.22,0.02-0.38-0.05-0.59-0.08c-0.06-0.04-0.06-0.09-0.09-0.14c-0.01-0.07,0.07-0.12,0.13-0.13c0.13,0,0.24-0.06,0.35-0.14   C131.96,46.71,132.13,46.66,132.25,46.77z"/>
	<path class="st0" d="M125.34,46.86c0.04,0.01,0.08,0.04,0.1,0.08c0.03,0.09-0.09,0.14-0.1,0.23c-0.04,0.05-0.05,0.13-0.12,0.15   c-0.17-0.01-0.28,0.13-0.4,0.21c-0.13,0.15-0.35,0.29-0.41,0.49c0,0.08-0.07,0.13-0.11,0.19c-0.07,0.02-0.13-0.03-0.18-0.08   c-0.04-0.05,0.01-0.12,0.02-0.17c0.04-0.03,0.05-0.09,0.08-0.13c0.09-0.18,0.23-0.33,0.25-0.53c0.02-0.24,0.32-0.12,0.41-0.33   c0.08-0.08,0.11-0.23,0.24-0.23C125.18,46.81,125.25,46.88,125.34,46.86z"/>
	<path class="st0" d="M117.63,46.93c-0.02,0.07-0.03,0.14-0.11,0.16c-0.04,0.02-0.09-0.01-0.12-0.03c-0.02-0.08-0.14-0.1-0.1-0.19   c0.04-0.06,0.11-0.03,0.15-0.08C117.54,46.8,117.62,46.83,117.63,46.93z"/>
	<path class="st0" d="M121.53,46.86c0.03,0.03,0.01,0.08-0.01,0.11c-0.05,0.03-0.1,0.03-0.15,0c-0.04-0.02-0.08-0.07-0.04-0.12   c0.03-0.03,0.04-0.06,0.09-0.06C121.46,46.79,121.51,46.82,121.53,46.86z"/>
	<path class="st0" d="M116.48,47.71c-0.03,0.1,0.02,0.22-0.04,0.3c0,0.07-0.04,0.1-0.08,0.14c-0.03,0.03-0.08,0.03-0.13,0.02   c-0.05-0.03-0.04-0.09-0.06-0.14c0.02-0.15,0.04-0.31,0.2-0.38C116.41,47.67,116.47,47.66,116.48,47.71z"/>
	<path class="st2" d="M111.9,49.17c0.14,0.19,0.36,0.02,0.55,0.07c0.02-0.12,0.17-0.06,0.23-0.14c0.03-0.01,0.04,0.02,0.04,0.04   c0.02,0.07-0.03,0.13-0.09,0.16c-0.09,0.02-0.2,0.02-0.27,0.09c-0.12-0.01-0.22,0.04-0.33,0.02c-0.08-0.12-0.29-0.1-0.27-0.27   c0.07-0.03,0.12-0.1,0.2-0.08L111.9,49.17z"/>
	<path class="st0" d="M139.86,49.85c0,0.07,0.01,0.15-0.05,0.19c-0.03,0.02-0.07,0.02-0.1,0.01c-0.06-0.07-0.05-0.16-0.06-0.24   c0.02-0.02,0.02-0.07,0.06-0.08C139.8,49.7,139.81,49.81,139.86,49.85z"/>
	<path class="st0" d="M139.57,50.61c0.03,0.05,0.03,0.1,0,0.15c-0.03,0.03-0.07,0.07-0.11,0.06c-0.04,0-0.09-0.02-0.11-0.04   c-0.02-0.07,0.04-0.14,0.06-0.21C139.47,50.54,139.56,50.55,139.57,50.61z"/>
	<path class="st0" d="M121.8,51.57c0.03,0.02,0.03,0.07,0.01,0.08c-0.09,0.05-0.16-0.07-0.24-0.09c-0.01-0.03-0.01-0.08,0.01-0.1   C121.69,51.35,121.72,51.55,121.8,51.57z"/>
	<path class="st0" d="M121.38,51.57c0.02,0.04-0.02,0.07-0.04,0.09c0,0.05-0.01,0.1-0.05,0.13c-0.06-0.02-0.13-0.02-0.14-0.09   c0-0.05-0.05-0.09-0.02-0.15c0.03-0.06,0.1-0.08,0.16-0.08L121.38,51.57z"/>
	<path class="st0" d="M121.79,51.85c0.05,0.05-0.02,0.1-0.02,0.15c-0.07,0.05-0.14,0.05-0.22,0.03c-0.03-0.02-0.06-0.03-0.07-0.06   c-0.01-0.06,0.02-0.1,0.04-0.15C121.61,51.74,121.69,51.88,121.79,51.85z"/>
	<path class="st0" d="M116.75,52.2c0.05,0.08,0.06,0.19,0.01,0.28c-0.05,0.05-0.12,0.14-0.2,0.12c-0.21-0.04-0.19-0.33-0.4-0.35   c-0.01-0.03-0.02-0.05-0.01-0.08c0.09-0.03,0.09-0.13,0.16-0.17C116.48,52,116.64,52.08,116.75,52.2z"/>
	<path class="st0" d="M117.25,52.71c0.05,0.12-0.08,0.22-0.01,0.33c0.05,0.04,0.14,0.05,0.18,0.12c0.03,0.16-0.15,0.07-0.21,0.13   c-0.22-0.02-0.43,0.07-0.66,0.02c-0.1-0.02-0.16-0.11-0.21-0.2c-0.01-0.14,0.09-0.25,0.22-0.31c0.04-0.02,0.08-0.02,0.12,0   c0.08,0.07-0.01,0.19,0.09,0.24c0.01,0.06,0.03,0.12,0.08,0.15c0.05,0.01,0.07-0.03,0.08-0.08c-0.02-0.03,0.01-0.11-0.06-0.1   c-0.04-0.03,0.01-0.06,0-0.09c-0.01-0.07-0.12-0.12-0.08-0.19c0.03-0.05,0.08-0.14,0.16-0.14   C117.09,52.55,117.18,52.63,117.25,52.71z"/>
	<path class="st0" d="M137.87,52.93c0.01,0.06,0.01,0.13-0.05,0.18c-0.08,0.07-0.19,0.07-0.29,0.04c-0.04-0.03-0.04-0.08-0.06-0.13   c0.05-0.11,0.17-0.19,0.29-0.19C137.82,52.82,137.84,52.89,137.87,52.93z"/>
	<path class="st2" d="M115.49,52.96c-0.02,0.05-0.03,0.11-0.07,0.13c-0.05,0-0.03-0.06-0.04-0.08c0-0.04,0.02-0.07,0.04-0.11   C115.46,52.9,115.47,52.94,115.49,52.96z"/>
	<path class="st0" d="M116.17,53.18c0.04,0.08-0.03,0.14-0.04,0.21c0,0.04,0.05,0.12-0.01,0.13c-0.05,0.04-0.12,0.01-0.18,0.02   c-0.03-0.03-0.09-0.08-0.05-0.13c0.06-0.09,0.05-0.22,0.16-0.27C116.11,53.13,116.14,53.15,116.17,53.18z"/>
	<path class="st0" d="M136.18,53.41c0.01,0.03-0.04,0.03-0.06,0.05c-0.06,0.01-0.09-0.03-0.13-0.08c0.01-0.04-0.04-0.1,0.01-0.13   c0.05,0.01,0.09-0.05,0.13-0.02L136.18,53.41z"/>
	<path class="st0" d="M136.38,53.33c0,0.06,0.03,0.14-0.04,0.18c-0.04,0-0.06-0.02-0.07-0.05c-0.02-0.06-0.08-0.11-0.02-0.17   C136.3,53.24,136.36,53.29,136.38,53.33z"/>
	<path class="st0" d="M137.08,53.4c-0.03,0.04,0,0.13-0.07,0.14c-0.11,0.05-0.2-0.2-0.27,0c-0.04,0.03-0.1,0.01-0.14-0.01   c-0.04-0.03-0.01-0.09-0.05-0.13c-0.01-0.08,0.09-0.04,0.14-0.06c0.04,0.01,0.08,0.05,0.11,0.08c0.04-0.05,0.11-0.08,0.18-0.08   C137.01,53.34,137.06,53.35,137.08,53.4z"/>
	<path class="st0" d="M116.78,53.53c0.05,0.08,0.03,0.19-0.02,0.27c-0.13,0.07-0.22-0.08-0.35-0.07c-0.08-0.02-0.18-0.04-0.18-0.14   c0.07-0.07,0.17-0.08,0.24-0.11C116.58,53.52,116.7,53.48,116.78,53.53z"/>
	<path class="st0" d="M117.39,53.57c-0.03,0.12,0.11,0.18,0.17,0.27c0,0.05-0.07,0.11-0.02,0.16c0.09,0.06,0.24-0.03,0.29,0.1   c0.08,0.06,0.18,0.03,0.24,0.1c0.07,0.13,0.24,0.27,0.13,0.45c-0.01,0.03-0.05,0.08-0.09,0.1c-0.13,0.01-0.28-0.02-0.39,0.03   c-0.09-0.03-0.2,0-0.27,0.06c-0.15-0.04-0.31,0.02-0.45,0.05c-0.11-0.07-0.01-0.19-0.03-0.29c0.03-0.12,0.13-0.16,0.23-0.24   c0.07,0,0.14-0.01,0.19-0.08c0.02-0.11,0.18-0.14,0.13-0.27c0.01-0.03-0.02-0.06-0.04-0.07c-0.15,0-0.31-0.01-0.44-0.09   c-0.04-0.08-0.02-0.17-0.02-0.25c0.07-0.11,0.22-0.1,0.34-0.09L117.39,53.57z"/>
	<path class="st0" d="M121.51,53.85c0.02,0.07,0.05,0.12,0.02,0.18c-0.03,0.03-0.08,0.05-0.12,0.04c-0.04-0.01-0.06-0.06-0.08-0.09   c-0.01-0.07,0.03-0.13,0.09-0.16C121.45,53.82,121.51,53.8,121.51,53.85z"/>
	<path class="st0" d="M122.04,53.89c0,0.05-0.02,0.09-0.07,0.11c-0.07,0-0.11-0.09-0.18-0.05c0.01,0.03,0,0.08-0.03,0.08   c-0.07,0.01-0.13-0.01-0.15-0.07c0.01-0.04,0.04-0.08,0.08-0.12c0.05,0,0.08,0.05,0.12,0.07   C121.84,53.82,122.02,53.74,122.04,53.89z"/>
	<path class="st0" d="M116.43,54.12c0.03,0.19-0.03,0.4,0.04,0.58c0.01,0.08-0.01,0.16-0.01,0.23h-0.05   c-0.11-0.13-0.27-0.23-0.39-0.35c0.01-0.06-0.04-0.12-0.01-0.18c0.13,0.01,0.14-0.15,0.21-0.23c0.01-0.07,0.04-0.13,0.08-0.19   C116.36,54.01,116.38,54.09,116.43,54.12z"/>
	<path class="st0" d="M122.06,55.44c0.06,0.09,0.07,0.19,0.13,0.29c-0.02,0.12-0.14,0.14-0.22,0.23c-0.13,0.03-0.13-0.1-0.21-0.15   c0.01-0.08-0.05-0.18,0.02-0.24c-0.02-0.15,0.02-0.27,0.04-0.4c0.01-0.03,0.06-0.04,0.09-0.06   C122.04,55.15,121.98,55.34,122.06,55.44z"/>
	<path class="st0" d="M122.5,56.02c0.11,0.03,0.22,0.08,0.29,0.18c0.06,0.08,0,0.17-0.02,0.24c-0.04,0.08-0.12,0.08-0.18,0.11   c-0.2,0-0.34-0.12-0.49-0.23c-0.08-0.06-0.08-0.18-0.05-0.26c0.07-0.05,0.1-0.13,0.19-0.15C122.34,55.88,122.42,55.96,122.5,56.02z   "/>
	<path class="st0" d="M120.57,55.99c0.03,0.05,0.1,0.09,0.06,0.16c-0.08,0.03-0.17,0.02-0.25,0.02c-0.07,0.08-0.03,0.19,0.03,0.27   c0.05,0.06,0.16,0.13,0.14,0.21c-0.01,0.13-0.01,0.27-0.13,0.32c-0.07,0.01-0.15,0-0.21-0.05c-0.14-0.14-0.2-0.34-0.23-0.53   c0.02-0.08,0.04-0.14,0.13-0.17c0.04-0.02,0.1,0,0.13-0.05c-0.01-0.1,0.03-0.19,0.11-0.24C120.43,55.92,120.52,55.95,120.57,55.99z   "/>
	<path class="st0" d="M137.6,56.91c0.07,0.13,0.18,0.29,0.12,0.44c-0.2,0.16-0.46,0.13-0.69,0.18c-0.15-0.01-0.28-0.1-0.39-0.19   c-0.08-0.01-0.11-0.11-0.15-0.16c-0.02-0.11,0.09-0.13,0.15-0.18c0.08,0.01,0.1-0.09,0.18-0.09c0.11-0.1,0.25-0.1,0.39-0.12   C137.34,56.72,137.47,56.84,137.6,56.91z"/>
	<path class="st0" d="M104.95,58.16c0.13,0.13,0.06,0.33,0.19,0.44c0.09-0.01,0.2-0.08,0.28,0.02c0.03,0.19,0.16,0.32,0.18,0.5   c-0.01,0.19-0.11,0.37-0.08,0.57c0.01,0.07-0.05,0.11-0.07,0.17c-0.09,0.02-0.16-0.02-0.23-0.06c-0.07-0.18-0.25-0.3-0.34-0.48   c-0.02-0.03-0.02-0.09-0.06-0.13c-0.01-0.13-0.09-0.23-0.1-0.36c-0.04-0.05-0.01-0.13-0.04-0.19c-0.02-0.12-0.11-0.22-0.07-0.34   c0.02-0.08,0.09-0.15,0.18-0.17C104.83,58.15,104.91,58.12,104.95,58.16z"/>
	<path class="st0" d="M117.92,58.89c0.17,0.13,0.37-0.02,0.55,0.08c0.08,0.06,0.14,0.14,0.18,0.23c0.01,0.16-0.06,0.3-0.2,0.39   c-0.09,0.05-0.2,0.04-0.28,0.07c-0.16,0.08-0.4,0.13-0.55,0c-0.07-0.07-0.18-0.13-0.17-0.25c0.05-0.05,0.15-0.08,0.13-0.18   l-0.13-0.12c-0.02-0.09-0.09-0.2-0.01-0.29c0.04-0.03,0.09-0.04,0.13-0.09C117.7,58.71,117.84,58.76,117.92,58.89z"/>
	<path class="st0" d="M119.59,58.79h0.03H119.59z"/>
	<path class="st0" d="M105.67,60.17c0.03,0.04,0,0.09,0.03,0.13c0,0.08-0.03,0.16-0.12,0.18c-0.07,0.04-0.12-0.02-0.18-0.03   c-0.03-0.07-0.11-0.08-0.13-0.16c0-0.08-0.02-0.13,0.01-0.21c0.05-0.06,0.12-0.09,0.19-0.08   C105.56,60.05,105.59,60.12,105.67,60.17z"/>
	<path class="st0" d="M147.03,60.12c0.03,0.03,0.02,0.08-0.01,0.12c-0.08,0.1-0.23,0.04-0.31,0.13c-0.07,0.02-0.16,0.04-0.22,0   c-0.04-0.04-0.08-0.09-0.06-0.15c0.04-0.04,0.07-0.1,0.13-0.11c0.16,0.05,0.24-0.18,0.4-0.07L147.03,60.12z"/>
	<path class="st0" d="M105.82,60.88c0,0.04-0.03,0.08-0.08,0.09c-0.07,0.02-0.13-0.03-0.2-0.04c-0.04-0.03-0.1-0.08-0.08-0.14   c0.07-0.08,0.18-0.02,0.26,0L105.82,60.88z"/>
	<path class="st0" d="M105.99,61.09c0,0.02,0.02,0.04,0.01,0.06c-0.03,0.03-0.08,0.04-0.13,0.02c-0.03-0.01-0.06-0.03-0.07-0.07   c-0.01-0.05,0.06-0.07,0.09-0.08C105.94,61.01,105.98,61.04,105.99,61.09z"/>
	<path class="st0" d="M106.07,61.34c-0.02,0.1-0.13,0.17-0.13,0.28c-0.02,0.08-0.09,0.05-0.13,0.1c-0.04,0.01-0.1,0.01-0.13-0.02   c-0.03-0.03-0.03-0.08-0.02-0.11c0.03-0.09,0.14-0.06,0.19-0.13c0-0.06-0.04-0.13,0.02-0.18   C105.93,61.19,106.03,61.26,106.07,61.34z"/>
	<path class="st0" d="M92.37,61.77c0.03,0.06-0.01,0.13-0.01,0.19c-0.07,0.14-0.22,0.02-0.32,0.05c-0.09-0.05-0.08-0.14-0.14-0.21   c0-0.07,0.02-0.13,0.08-0.15c0.07-0.02,0.14,0,0.21,0L92.37,61.77z"/>
	<path class="st0" d="M90.67,62c0.03,0.06-0.02,0.1-0.03,0.15c-0.04,0.04-0.11,0.02-0.16,0.01c-0.11-0.07-0.16-0.2-0.28-0.25   c-0.02-0.03-0.02-0.06,0-0.08c0.04-0.05,0.08-0.08,0.14-0.09C90.5,61.72,90.59,61.88,90.67,62z"/>
	<path class="st0" d="M105.6,61.84c0.08,0.11-0.09,0.13-0.13,0.21c-0.04,0.02-0.08-0.01-0.11-0.03c-0.09-0.1,0.08-0.15,0.08-0.24   C105.5,61.75,105.59,61.78,105.6,61.84z"/>
	<path class="st0" d="M96.88,61.89c-0.02,0.03-0.07,0.02-0.09,0c-0.01-0.03-0.04-0.05-0.03-0.08   C96.79,61.85,96.92,61.78,96.88,61.89z"/>
	<path class="st0" d="M90.29,62.3c0.01,0.03,0.03,0.05,0.03,0.08c-0.09,0.11-0.24-0.03-0.33,0.08c-0.02,0.02-0.03-0.01-0.03-0.03   c0.01-0.11,0.03-0.23,0.15-0.28C90.2,62.15,90.24,62.25,90.29,62.3z"/>
	<path class="st0" d="M149.23,63.03c0.05,0.07-0.02,0.13-0.03,0.19c-0.03,0.04-0.09,0.02-0.13,0.02c-0.04-0.02-0.09-0.04-0.1-0.09   c0.01-0.07,0.01-0.17,0.1-0.19C149.13,62.95,149.22,62.94,149.23,63.03z"/>
	<path class="st0" d="M90.26,63.26c-0.01,0.05-0.03,0.11-0.09,0.12c-0.12,0-0.23-0.07-0.29-0.16c-0.03-0.07,0.05-0.09,0.09-0.1   c0.1,0.02,0.16-0.11,0.25-0.05C90.25,63.11,90.24,63.19,90.26,63.26z"/>
	<path class="st0" d="M148.95,63.51c0.01,0.05,0,0.11-0.02,0.15c-0.03,0.04-0.11,0.1-0.16,0.05c-0.05-0.04-0.05-0.11-0.05-0.16   c0-0.04,0.04-0.08,0.07-0.1C148.85,63.44,148.93,63.44,148.95,63.51z"/>
	<path class="st0" d="M133.75,63.66c0.04,0.18-0.05,0.36-0.14,0.5c-0.08,0.06-0.17,0.08-0.25,0.03c-0.13-0.07-0.09-0.24-0.11-0.37   c0.04-0.08,0.08-0.19,0.16-0.23C133.52,63.59,133.7,63.5,133.75,63.66z"/>
	<path class="st0" d="M126.45,63.86c-0.01,0.12-0.05,0.21-0.07,0.33c-0.08,0.09-0.18,0.11-0.28,0.13c-0.1-0.01-0.2-0.05-0.24-0.15   c0.07-0.2,0.3-0.25,0.46-0.38C126.36,63.81,126.43,63.8,126.45,63.86z"/>
	<path class="st0" d="M121.3,64.17c0.06,0.07,0.04,0.15,0.03,0.24c-0.02,0.06-0.09,0.06-0.13,0.03c-0.09-0.03-0.07-0.13-0.1-0.19   c0-0.04,0.03-0.08,0.06-0.09C121.2,64.15,121.26,64.15,121.3,64.17z"/>
	<path class="st0" d="M147.94,64.33c0,0.12-0.03,0.23-0.11,0.32c-0.11,0.14-0.06,0.44-0.3,0.43c-0.09-0.02-0.22-0.02-0.24-0.13   c-0.01-0.11-0.05-0.25,0.03-0.35c0.11-0.14,0.28-0.2,0.38-0.35C147.78,64.21,147.91,64.22,147.94,64.33z"/>
	<path class="st2" d="M90.13,64.45c-0.04,0.03-0.04-0.03-0.06-0.04v-0.09C90.07,64.37,90.17,64.39,90.13,64.45z"/>
	<path class="st2" d="M90.62,64.65c0.05,0.07,0.15,0.15,0.14,0.26c-0.06,0.07-0.11,0.14-0.16,0.22c-0.04,0.02-0.04-0.03-0.05-0.06   c-0.04-0.11-0.05-0.23-0.01-0.34c0.07-0.06-0.01-0.14,0.01-0.22C90.61,64.53,90.6,64.6,90.62,64.65z"/>
	<path class="st0" d="M121.53,64.7c0,0.13-0.01,0.3-0.15,0.39c-0.07,0.03-0.14,0.01-0.19-0.03c-0.06-0.03-0.04-0.09-0.05-0.14   c0.02-0.14,0.07-0.27,0.21-0.31C121.42,64.61,121.5,64.62,121.53,64.7z"/>
	<path class="st0" d="M125.06,64.8c0.04,0.26-0.28,0.24-0.43,0.35c-0.14,0.04-0.3,0.06-0.43,0.01c-0.02-0.05-0.09-0.09-0.05-0.14   c0.06-0.05,0.13-0.13,0.23-0.13c0.14,0.03,0.21-0.1,0.34-0.09C124.82,64.71,124.99,64.66,125.06,64.8z"/>
	<path class="st0" d="M122.55,65.12c-0.02,0.08,0.04,0.22-0.06,0.29c-0.15,0-0.33,0.03-0.46-0.05c-0.08-0.04-0.02-0.14-0.02-0.2   c0.08-0.09,0.17-0.14,0.25-0.22c0.07-0.02,0.14-0.05,0.2-0.03C122.55,64.95,122.51,65.05,122.55,65.12z"/>
	<path class="st2" d="M90.96,65.17c-0.01,0.06,0.07,0.08,0.05,0.13h-0.03c-0.04-0.06-0.13-0.13-0.11-0.2   C90.92,65.09,90.96,65.12,90.96,65.17z"/>
	<path class="st0" d="M139.91,66.99c0,0.06,0.01,0.13-0.01,0.19c-0.09,0.08-0.16,0.24-0.29,0.18c-0.05-0.04-0.1-0.07-0.12-0.13   c0.02-0.13,0.02-0.26,0.09-0.36C139.71,66.82,139.84,66.87,139.91,66.99z"/>
	<path class="st0" d="M91.86,67.65c-0.01,0.06,0.01,0.1-0.02,0.15c-0.03,0.05-0.09,0.06-0.14,0.08c-0.08,0-0.14-0.06-0.2-0.12   l-0.05-0.18c-0.05-0.08-0.04-0.17-0.11-0.24c0-0.05-0.02-0.09,0.01-0.13c0.03-0.04,0.07-0.08,0.12-0.09   C91.72,67.15,91.77,67.46,91.86,67.65z"/>
	<path class="st0" d="M139.53,67.68c0.04,0.05,0.03,0.13,0.03,0.18c-0.05,0.09-0.13,0.23-0.27,0.2c-0.08,0-0.15-0.06-0.18-0.13   c0-0.06-0.03-0.13,0.01-0.18c0.07-0.08,0.16-0.11,0.25-0.13C139.44,67.61,139.51,67.63,139.53,67.68z"/>
	<path class="st0" d="M94.41,67.71c0,0.03,0,0.09-0.04,0.07c-0.03-0.03-0.05-0.07-0.03-0.1C94.37,67.63,94.39,67.68,94.41,67.71z"/>
	<path class="st0" d="M93.36,68.86c0.06,0.12,0.2,0.19,0.17,0.34c-0.07,0.1-0.18,0.15-0.29,0.13c-0.16-0.08-0.34-0.27-0.36-0.46   c-0.01-0.07,0.01-0.14,0.08-0.18C93.13,68.64,93.22,68.82,93.36,68.86z"/>
	<path class="st0" d="M93.91,69.7c0.03,0.05,0.09,0.07,0.09,0.13c0.09,0.13,0.18,0.28,0.23,0.44c-0.02,0.04-0.02,0.1-0.08,0.12   c-0.05,0.04-0.13,0.04-0.2,0.04c-0.19-0.08-0.31-0.27-0.34-0.46c-0.03-0.09-0.22-0.15-0.12-0.27c0.07-0.06,0.13-0.17,0.23-0.19   C93.86,69.5,93.84,69.65,93.91,69.7z"/>
	<path class="st0" d="M135.05,70.38c-0.01,0.06-0.08,0.05-0.11,0.08c-0.06-0.02-0.14-0.02-0.17-0.09c-0.03-0.05-0.05-0.11-0.03-0.18   c0.02-0.04,0.06-0.04,0.09-0.01C134.88,70.27,135.02,70.26,135.05,70.38z"/>
	<path class="st0" d="M114.93,74.39c0.03,0.07,0.03,0.17-0.01,0.23c-0.07,0.04-0.13,0.1-0.2,0.07c-0.07-0.02-0.14-0.06-0.15-0.14   c0.03-0.08-0.01-0.17,0.08-0.21c0.01-0.03,0.02-0.06,0.05-0.07C114.8,74.28,114.9,74.3,114.93,74.39z"/>
	<path class="st0" d="M117.62,76.72c0.05,0.08,0.02,0.2-0.03,0.27c-0.04,0.03-0.08,0.05-0.14,0.05c-0.06-0.04-0.16-0.05-0.17-0.14   c-0.01-0.09,0.01-0.2,0.1-0.25C117.48,76.64,117.58,76.64,117.62,76.72z"/>
	<path class="st0" d="M101.18,78.72c0.12,0.13,0.3,0.23,0.3,0.41c0.02,0.06,0,0.13-0.02,0.19c-0.03,0.04-0.06,0.07-0.1,0.09   c-0.12,0-0.21-0.1-0.29-0.19c-0.18-0.18-0.34-0.34-0.5-0.51c-0.07-0.02-0.09-0.1-0.13-0.17c0-0.07,0.01-0.13,0.05-0.18   c0.08-0.05,0.18-0.05,0.26-0.03C100.94,78.41,101.02,78.61,101.18,78.72z"/>
	<path class="st0" d="M89.62,92.26c7.29,3.08,12.16-1.46,20.15-1.46c5.19,0,15.07,1.3,21.67,9.08l-1.67,0.54   c-3.73-5.13-8.64-7.89-12.91-7.89c-3.51-0.05-8.8,3.56-15.13,3.56C98.32,96.09,91.99,95.39,89.62,92.26z"/>
	<path class="st0" d="M149.54,92.28c-7.29,3.08-12.15-1.46-20.15-1.46c-5.19,0-15.07,1.3-21.66,9.08l1.67,0.54   c3.73-5.13,8.64-7.89,12.91-7.89c3.51-0.05,8.81,3.57,15.13,3.57C140.84,96.12,147.16,95.42,149.54,92.28z"/>
	<path class="st0" d="M104.37,89.83c-1.51,0.27-6.37,1.51-8.97,1.35c-2.59-0.16-9.08-1.51-12.91-8.48   c3.89,2.97,10.54,4.11,13.07,4.76c2.54,0.65,4.65,1.57,6.21,1.84c-3.73-1.46-5.67-3.3-6.59-5.3c-1.3-2.59-1.89-4.65-2.92-8.65   c1.78,1.73,4.91,5.34,6.11,6.65C100.69,84.53,101.34,88.69,104.37,89.83z"/>
	<path class="st0" d="M93.68,85.35c-2.62-0.98-6.81-1.54-9.05-2.87c-3.05-1.82-7.09-6.17-7.96-13.02c2.31,4.32,7.13,7.35,9.17,8.99   c2.04,1.64,4.87,4.7,6.19,5.6c-2.79-2.88-4.23-5.89-4.51-7.66c-0.1-2.9-0.77-5.55-0.58-9.72c0.91,2.31,3.94,7.39,4.53,9.07   C93.07,80.3,92.04,82.3,93.68,85.35z"/>
	<path class="st0" d="M86.28,76.45c-2.16-1.91-7.73-6.27-9.15-8.74c-1.77-3.08-3.09-6.64-3.08-10.78c1.24,4.78,5.51,8.49,7.04,10.62   c1.53,2.13,2.69,5.56,3.72,6.77c-1.92-3.51-1.97-6.42-1.98-8.42c-0.03-2.77,0.47-6.26,1.54-9.85c0.96,2.63,1.26,4.12,1.42,5.89   C86.34,68.29,84.17,73.62,86.28,76.45z"/>
	<path class="st0" d="M80.86,65.38c-1.74-3.4-5.08-7.1-6.04-10.33c-1.01-3.4-1.63-7.44-0.51-11.42c0.24,4.88,3,7.28,4,11.58   c0.52,2.26,0.96,4.73,1.44,6.33c-0.26-3.68,0.64-6.12,1.54-8.16c0.71-1.54,1.42-2.72,3.42-5.89c0.26,3.29-0.89,7.49-1.19,8.32   C82.84,57.72,80.12,61.98,80.86,65.38z"/>
	<path class="st0" d="M79.17,55.71c-0.63-3.35-2.08-7.67-2.28-10.68c-0.18-2.59,0.45-8.74,4-12.35c-1.47,3.46-0.86,7.04-0.57,9.64   c0.42,3.9-1.13,6.25-0.82,7.81c0.45-1.57,0.91-3.72,2.18-5.25c1.95-2.15,3-2.79,6.63-6.38c-1.38,3.26-3.63,7.37-4.1,8.15   C82.89,48.81,79.14,52.48,79.17,55.71z"/>
	<path class="st0" d="M81.39,44.06c0.41-3.73-0.6-5.3-0.03-8.27c0.49-2.55,2.24-7.09,5.88-9.41c-1.06,1.62-1.97,3.83-2.36,6.42   c-0.58,3.88-1.45,4.51-1.54,6.1c0.83-1.4,2.43-3.26,4.04-4.41c2.43-1.58,3.4-2.1,5.6-4.32c-0.97,2.96-4.05,6.39-4.69,7.05   C85.53,40.08,83.6,40.44,81.39,44.06z"/>
	<path class="st0" d="M95.45,24.24c-1.78,0.7-5.83,3.13-7.02,4.54c-1.16,1.37-2.65,4.11-3.19,6.27c1.27-1.27,3.08-2.21,4.54-3.57   C91.24,30.13,93.29,26.72,95.45,24.24z"/>
	<path class="st0" d="M134.68,89.85c1.51,0.27,6.37,1.51,8.97,1.35c2.59-0.16,9.08-1.51,12.91-8.48   c-3.89,2.97-10.54,4.11-13.07,4.75c-2.54,0.65-4.65,1.57-6.21,1.84c3.73-1.46,5.67-3.29,6.59-5.29c1.3-2.59,1.89-4.64,2.92-8.64   c-1.79,1.73-4.91,5.34-6.11,6.64C138.35,84.56,137.71,88.72,134.68,89.85z"/>
	<path class="st0" d="M145.37,85.37c2.62-0.98,6.81-1.54,9.04-2.87c3.05-1.82,7.1-6.16,7.96-13.02c-2.31,4.32-7.13,7.35-9.17,8.99   c-2.04,1.64-4.88,4.7-6.19,5.6c2.79-2.88,4.23-5.89,4.51-7.66c0.1-2.9,0.77-5.55,0.58-9.72c-0.91,2.31-3.95,7.39-4.53,9.07   C145.97,80.33,147,82.33,145.37,85.37z"/>
	<path class="st0" d="M152.76,76.48c2.16-1.91,7.73-6.27,9.15-8.74c1.77-3.08,3.09-6.64,3.08-10.78c-1.24,4.77-5.51,8.49-7.04,10.62   c-1.53,2.13-2.69,5.56-3.72,6.77c1.93-3.51,1.97-6.42,1.98-8.42c0.03-2.77-0.47-6.26-1.54-9.85c-0.96,2.63-1.27,4.13-1.42,5.89   C152.71,68.32,154.88,73.65,152.76,76.48z"/>
	<path class="st0" d="M158.19,65.4c1.74-3.4,5.08-7.1,6.04-10.33c1.01-3.4,1.63-7.44,0.51-11.42c-0.24,4.88-3,7.28-3.99,11.58   c-0.52,2.26-0.96,4.73-1.44,6.33c0.26-3.68-0.64-6.12-1.54-8.16c-0.71-1.54-1.43-2.72-3.42-5.89c-0.26,3.29,0.89,7.49,1.19,8.32   C156.21,57.75,158.93,62.01,158.19,65.4z"/>
	<path class="st0" d="M159.87,55.74c0.63-3.35,2.08-7.67,2.28-10.69c0.18-2.59-0.45-8.74-4-12.35c1.47,3.46,0.85,7.04,0.57,9.64   c-0.42,3.9,1.13,6.25,0.82,7.81c-0.45-1.57-0.92-3.72-2.18-5.25c-1.95-2.15-3-2.79-6.63-6.38c1.38,3.26,3.63,7.36,4.1,8.15   C156.15,48.84,159.91,52.51,159.87,55.74z"/>
	<path class="st0" d="M157.65,44.09c-0.41-3.73,0.6-5.3,0.03-8.27c-0.49-2.55-2.23-7.09-5.88-9.41c1.06,1.62,1.97,3.83,2.37,6.42   c0.58,3.88,1.44,4.51,1.54,6.1c-0.83-1.41-2.43-3.26-4.04-4.41c-2.43-1.58-3.4-2.1-5.6-4.32c0.97,2.96,4.05,6.39,4.69,7.05   C153.51,40.1,155.45,40.47,157.65,44.09z"/>
	<path class="st0" d="M143.59,24.26c1.78,0.7,5.84,3.13,7.03,4.54c1.16,1.37,2.64,4.11,3.19,6.27c-1.27-1.27-3.08-2.22-4.54-3.57   C147.81,30.15,145.76,26.75,143.59,24.26z"/>
	<path class="st0" d="M89.85,62.83c0,0.01,0.01,0.03,0.02,0.04c0.09,0.03,0.22,0.07,0.31,0.01c0.01-0.02,0.04-0.04,0.06-0.05H89.85z   "/>
	<path class="st0" d="M115.98,48.63c-0.03-0.02-0.07-0.02-0.1,0H115.98z"/>
	<path class="st0" d="M110.58,58.09c-0.01-0.02-0.03-0.03-0.04-0.03c-0.07,0.03-0.13-0.03-0.19,0.02c-0.01,0.01-0.01,0.01-0.01,0.02   H110.58z"/>
	<path class="st0" d="M114.8,57.94c0.04-0.04,0.05-0.11,0.12-0.15c-0.04-0.08,0.07-0.06,0.07-0.13c0.13-0.11,0.18-0.28,0.28-0.41   l0.19-0.17c0.03-0.11,0.17-0.16,0.14-0.29c0-0.1,0.03-0.2,0.13-0.24c0.14-0.06,0.29-0.13,0.44-0.15c0.04-0.02,0.08-0.08,0.13-0.07   c0.05,0.11-0.13,0.15-0.07,0.28c0.01,0.03,0.04,0.08,0.08,0.07c0.07-0.03,0.09-0.1,0.11-0.17c-0.04-0.18,0-0.34,0.02-0.52   c0.08-0.1,0.06-0.23,0.08-0.35c-0.04-0.1-0.08-0.22-0.04-0.32c-0.01-0.1,0.08-0.14,0.13-0.21c0.14-0.08,0.35-0.1,0.5-0.03   c0.12-0.07,0.27-0.01,0.38-0.09c0.07,0.03,0.13,0,0.2-0.03c0.14,0.03,0.29,0.08,0.41-0.02c0.05,0.01,0.1,0.03,0.15,0.04   c0.33-0.02,0.58,0.16,0.85,0.31c0.03,0.08,0.09,0.13,0.07,0.21c-0.02,0.13-0.16,0.12-0.23,0.21c-0.06,0.21,0.19,0.05,0.25,0.18   c0.06,0.13-0.02,0.29-0.1,0.39c-0.02,0.18-0.24,0.28-0.18,0.46c-0.04,0.05-0.09,0.11-0.15,0.13c-0.02,0.13-0.13,0.14-0.22,0.21   c-0.01,0.07,0.1,0.1,0.13,0.17c0.03,0.1-0.06,0.17-0.08,0.25c-0.01,0.04-0.02,0.09-0.04,0.13c-0.1,0.02-0.18,0.13-0.29,0.07   c-0.04,0-0.04,0.03-0.04,0.06c0.02,0.03,0.06,0.02,0.09,0.02c0.04,0.01,0.06,0.05,0.08,0.08c0.04,0.11-0.07,0.17-0.13,0.22   c-0.04,0-0.08,0.01-0.1,0.04c-0.08,0.18-0.3,0.18-0.47,0.23c-0.19,0.08-0.36-0.08-0.54,0c-0.19,0.18-0.51,0.18-0.74,0.08   c-0.12,0-0.19,0.1-0.29,0.15c-0.15,0.04-0.28,0.12-0.4,0.22l-0.82-0.16L114.8,57.94z"/>
	<path class="st0" d="M119.05,61.35c-0.1-0.01,0,0.13-0.08,0.18c-0.05,0.01-0.09-0.02-0.13-0.03c-0.1-0.06-0.03-0.2-0.08-0.27   l0.21-0.08L119.05,61.35z"/>
	<path class="st0" d="M135.47,70.55c0.04,0.05,0.02,0.13,0.04,0.18c0.01,0.05,0.05,0.09,0.04,0.14c0.12,0.11,0.13,0.28,0.27,0.35   c0.05,0.08,0.05,0.19,0.06,0.29c0.07,0.08,0.12,0.16,0.13,0.26c0.1,0.05,0.17,0.15,0.29,0.16c0.13,0.02,0.25,0.03,0.37,0.07   c0.07-0.01,0.16-0.07,0.22-0.01l0.83-0.66c0.03-0.14,0.1-0.29,0.07-0.46c-0.01-0.21-0.02-0.43-0.13-0.61c0-0.2-0.09-0.38-0.14-0.56   c0.02-0.24,0.07-0.51-0.17-0.64c-0.07-0.04-0.12-0.12-0.13-0.19c0.03-0.07,0.04-0.18-0.01-0.24c-0.05-0.1-0.17-0.07-0.24-0.14   c-0.21-0.05-0.41-0.16-0.64-0.15c-0.07,0.03-0.13,0.05-0.16,0.12c-0.01,0.13,0.01,0.28-0.11,0.36c0.05,0.26-0.06,0.48-0.06,0.73   c-0.02,0.04-0.07,0.06-0.11,0.04L135.47,70.55z"/>
	<path class="st0" d="M134.67,69.77c0.07,0.14-0.16,0.07-0.18,0.21c-0.01,0.07,0.02,0.12,0.08,0.14c0.11,0.01,0.16-0.1,0.22-0.18   l0.13-0.27L134.67,69.77z"/>
	<path class="st0" d="M138.64,49.7c-0.02,0.06-0.01,0.13-0.06,0.19c-0.03,0.11-0.05,0.21-0.1,0.31c-0.04,0.11-0.06,0.23-0.09,0.34   c0.05,0.15-0.13,0.19-0.14,0.33c-0.11,0.12-0.07,0.29-0.14,0.42c-0.07,0.1-0.1,0.21-0.17,0.3c-0.02,0.18-0.03,0.36,0.02,0.54   c0,0.1-0.08,0.17-0.03,0.27c-0.02,0.06,0.06,0.11,0.1,0.14c0.13,0.07,0.23-0.07,0.35-0.03l0.78-1.7c0.08-0.17,0.18-0.33,0.24-0.5   c0.1-0.1,0.17-0.25,0.14-0.4c0.11-0.12,0.01-0.29,0.03-0.45c0.07-0.09,0.04-0.23,0.09-0.33c-0.06-0.08-0.06-0.19-0.15-0.25   c-0.26,0.04-0.45,0.26-0.63,0.45c-0.08,0.04-0.1,0.15-0.15,0.21C138.7,49.54,138.64,49.7,138.64,49.7z"/>
	<path class="st0" d="M118.96,61.75c-0.01,0-0.03-0.01-0.04-0.01c-0.01,0-0.02,0-0.03,0.01H118.96z"/>
	<path class="st0" d="M121.66,57.6c-0.05-0.02-0.09-0.01-0.14,0H121.66z"/>
	<path class="st2" d="M113.88,56.27c0,0.12-0.09,0.2-0.1,0.32c-0.06,0.03-0.02,0.13-0.06,0.17c-0.02,0.06,0.01,0.14-0.04,0.19   c0,0.03,0,0.05-0.02,0.06c-0.02,0.01-0.03-0.02-0.03-0.03c0.01-0.03-0.02-0.05-0.03-0.06c-0.02-0.05-0.02-0.12-0.08-0.13   c-0.04,0.01-0.11,0.01-0.12-0.05c0.03-0.1,0.13-0.18,0.14-0.3c0.04-0.12,0.17-0.17,0.27-0.22   C113.84,56.22,113.87,56.24,113.88,56.27z"/>
	<path class="st0" d="M118.53,48.77l0.34-0.11c0.02-0.01,0.03-0.02,0.03-0.03c0.01-0.03-0.01-0.07-0.02-0.1   c-0.11-0.07-0.27-0.08-0.39-0.02c-0.06,0.02-0.07,0.07-0.1,0.11c-0.01,0.01-0.02,0.02-0.03,0.03c0,0.04-0.01,0.08-0.05,0.1   c-0.05,0.01-0.08-0.06-0.11-0.09c0-0.01,0.01-0.03,0.01-0.04c0.02-0.13,0.02-0.27,0.13-0.36l-0.72-0.62   c-0.11-0.02-0.24,0.07-0.33-0.02c-0.04-0.21,0.26-0.41,0.02-0.58c-0.11-0.02-0.21,0.06-0.27,0.15c-0.07,0.14-0.15,0.27-0.22,0.41   c-0.11,0.11-0.17,0.25-0.16,0.4c-0.04,0.08-0.17,0.12-0.09,0.23c-0.11,0.12-0.18,0.32-0.35,0.35c-0.01,0.01-0.03,0.02-0.05,0.04   c-0.04,0.03-0.09,0.05-0.14,0.02c-0.01-0.01-0.02-0.02-0.03-0.02h-0.1c0,0-0.01,0-0.01,0.01c-0.19,0.07-0.01,0.39-0.27,0.34   c-0.04-0.05-0.11-0.1-0.17-0.06c-0.11,0.06-0.21,0.18-0.34,0.13l-1.33,0.05c0,0.08-0.08,0.09-0.13,0.13h-0.1   c-0.06,0.05-0.09,0.13-0.18,0.11c-0.05-0.07,0.1-0.13,0-0.2c-0.07-0.11-0.23-0.07-0.32-0.14c-0.09-0.1-0.24,0.1-0.25-0.08   c-0.04-0.04-0.1-0.02-0.15-0.01c-0.18-0.01-0.29,0.13-0.48,0.1c-0.05,0.02-0.08,0.08-0.13,0.06c-0.03-0.04,0.03-0.06,0.01-0.09   c-0.11-0.16-0.29-0.15-0.41-0.3c-0.01-0.01-0.01-0.03-0.02-0.04c-0.1-0.17-0.28-0.33-0.48-0.33c-0.16-0.12-0.32-0.24-0.51-0.24   c-0.29-0.07-0.6-0.16-0.89-0.07c-0.09-0.01-0.16,0.03-0.24,0.02c-0.2,0.04-0.37,0.18-0.51,0.34c-0.14,0.06-0.3,0.13-0.44,0.07   l-0.01-0.02l-1.31,0.17c-0.03,0.03-0.06,0.05-0.09,0.08c-0.1,0.08-0.21,0.15-0.29,0.27c-0.11,0.08-0.26,0.03-0.37,0.1   c-0.13,0.02-0.22,0.15-0.34,0.19c-0.06,0.06-0.11,0.14-0.08,0.23c0.08,0.11,0.19,0.19,0.33,0.16l0.69-0.22   c0.14-0.1,0.31-0.14,0.49-0.14c0.02,0.05-0.02,0.11-0.07,0.13c-0.09,0.08-0.2-0.02-0.3,0.03l-0.43,0.2   c-0.13,0.08-0.3,0.03-0.42,0.11c-0.08,0.07-0.2,0.08-0.28,0.16c-0.1,0.03-0.18,0.09-0.28,0.13c-0.13,0.08-0.27,0.18-0.44,0.13   c-0.12-0.07-0.27-0.05-0.4-0.02c-0.06,0.04-0.11,0.08-0.15,0.13c-0.13,0.14-0.19,0.32-0.28,0.48c0.03,0.11-0.08,0.16-0.12,0.25   c-0.11,0.09-0.2,0.19-0.28,0.3c-0.01,0.14-0.11,0.23-0.11,0.38c-0.1,0.13-0.23,0.24-0.26,0.39c-0.04,0.1,0,0.24-0.07,0.33   c0.01,0.05-0.02,0.08-0.03,0.12c0,0.11,0.03,0.21,0.08,0.3c0.06,0.28-0.2,0.42-0.36,0.61c-0.01,0.01-0.01,0.01-0.02,0.02   c-0.03,0.08-0.11,0.12-0.13,0.2l-0.49,1.06c-0.04,0.14-0.07,0.3-0.12,0.44c-0.1,0.19-0.41,0.21-0.38,0.47   c0,0.28-0.15,0.5-0.18,0.76c-0.04,0.12-0.18,0.2-0.13,0.34c0.04,0.08-0.02,0.13-0.02,0.2c0.03,0.09,0.03,0.19,0.09,0.27   c0.09,0.11,0.24,0.11,0.3,0.23c0.03,0.15-0.11,0.26-0.21,0.35c-0.17,0.07-0.4,0.17-0.56,0.04c-0.12-0.1-0.22-0.2-0.37-0.22   c-0.1-0.02-0.18-0.1-0.28-0.13l-1.23-0.35c-0.19-0.03-0.41,0-0.54,0.16c-0.18,0.23-0.17,0.53-0.4,0.73   c-0.06,0.05-0.13,0.09-0.2,0.14c-0.08,0.05-0.14,0.12-0.16,0.21c-0.07,0.13-0.19,0.21-0.2,0.36c-0.08,0.11-0.07,0.25-0.13,0.36   c-0.12,0.08-0.15,0.19-0.23,0.29c-0.05,0.08-0.04,0.18-0.12,0.25c-0.02,0.04-0.03,0.07-0.03,0.11c0,0.06,0.02,0.13,0,0.2   c0.1,0.22-0.04,0.39-0.1,0.59c-0.02,0.06-0.02,0.11-0.02,0.17c-0.03,0.18,0.15,0.3,0.13,0.49c-0.01,0.04-0.02,0.09-0.04,0.13   c-0.04,0.12-0.08,0.23-0.09,0.35c-0.04,0.07,0.02,0.14-0.03,0.19c-0.13,0.06-0.24,0.23-0.41,0.18l-0.31,0.03   c-0.03,0.04-0.07,0.04-0.12,0.04c-0.01,0-0.03,0-0.04,0.01c-0.18,0.12-0.45,0.08-0.66,0.09c-0.13,0.04-0.27-0.01-0.4-0.02   l-1.36-0.02c-0.1,0.12-0.23,0-0.34-0.03c-0.01,0-0.02-0.01-0.03-0.02c-0.08-0.05-0.12-0.15-0.21-0.2c-0.05-0.13-0.13-0.28-0.27-0.3   c-0.14-0.02-0.27,0.02-0.37,0.11c-0.12,0.08-0.29,0.04-0.41,0.1c-0.04,0.03-0.06,0.08-0.03,0.13c0.04,0.04,0.05,0.09,0.06,0.15   c0,0,0,0.01-0.01,0.01c-0.02,0.04-0.03,0.1-0.09,0.12c-0.08-0.03-0.1,0.08-0.16,0.08c-0.16-0.03-0.3,0.04-0.4,0.13   c-0.05,0.02-0.12,0.02-0.16-0.02c-0.09-0.08-0.13-0.19-0.2-0.29c0.05-0.02,0.11,0.02,0.14-0.03c-0.01-0.13-0.07-0.25-0.08-0.39   c-0.09-0.13-0.23-0.21-0.38-0.19c-0.14,0.07,0.02,0.24-0.11,0.31c-0.12,0.02-0.12-0.18-0.24-0.12c-0.05,0.03-0.11,0.07-0.15,0.12   c0.02,0.07,0.05,0.13,0.12,0.19c0.07,0,0.13,0.11,0.21,0.05c0.01-0.04,0.05-0.08,0.08-0.1c0.11,0.07,0.29-0.01,0.34,0.13   c0,0,0,0,0,0.01c-0.08,0-0.14,0.06-0.21,0.02c-0.13,0.03-0.25-0.02-0.37,0.04c-0.13,0.04-0.16,0.19-0.25,0.29   c-0.11,0.08-0.18,0.21-0.33,0.25c-0.05,0-0.08-0.05-0.13-0.02c-0.08-0.03-0.15-0.08-0.24-0.09c-0.03,0.1-0.15,0.18-0.13,0.29h0.39   c0.03-0.02,0.05-0.04,0.04-0.08c0.02-0.01,0.02-0.02,0.04-0.01c0,0.02,0.01,0.06,0.02,0.09c0,0.03,0,0.06-0.02,0.08   c0.01,0.14,0.03,0.26,0.02,0.4c0.07,0.05,0.02,0.16,0.07,0.23c0.06,0.2,0.06,0.44,0.12,0.64c0.06,0.03,0.05,0.09,0.05,0.14   c-0.05,0.04-0.01,0.13-0.06,0.17c-0.09-0.08-0.03-0.2-0.03-0.31c-0.04-0.06-0.08-0.14-0.15-0.16c-0.06,0.03-0.13,0.07-0.2,0.05   c0.02-0.08-0.01-0.16,0.02-0.22c0-0.03-0.02-0.07,0.02-0.11c0.03-0.02,0.07-0.03,0.05-0.08c-0.09-0.07-0.08-0.19-0.2-0.19   c-0.03-0.01-0.06-0.05-0.1-0.03c-0.14,0.09-0.08,0.25-0.05,0.38c0.08,0.09,0.05,0.24,0.17,0.3c0.01,0.03,0.01,0.05-0.02,0.07   c-0.05,0-0.08,0.01-0.12,0.03l-0.02,0.11c0.08,0.14,0.08,0.33,0.25,0.42c0.04,0.13,0.05,0.28,0.18,0.37   c0.01,0.02,0.03,0.04,0.04,0.07c0.05,0.12,0.06,0.25,0.06,0.39c0.03,0.05,0.09,0.06,0.08,0.13c-0.04-0.02-0.08-0.04-0.13-0.05   c-0.06,0.04-0.03,0.13-0.06,0.21c0.02,0.04,0.05,0.08,0.09,0.11c0.05,0.04,0.1,0.06,0.16,0.07c0.05,0.01,0.1-0.02,0.13-0.07   c0,0,0.01-0.01,0.01-0.01c0.02-0.09-0.11-0.13-0.12-0.21c0.04-0.02,0.08,0,0.13,0.01c0.05,0.06,0.09,0.14,0.13,0.22   c0.04,0.08,0.07,0.16,0.11,0.23c-0.01,0.04,0.02,0.11-0.02,0.13c-0.05-0.04-0.08-0.1-0.12-0.14c-0.05-0.04-0.12-0.08-0.19-0.06   c-0.06,0.08,0.01,0.15,0.04,0.22c0.05,0.11,0.17,0.1,0.26,0.12l0.03-0.03c0.04,0.05,0.09,0.13,0.06,0.2   c0.04,0.15,0.13,0.29,0.27,0.37c0.1,0.06,0.15-0.08,0.22-0.11c0.02-0.21,0.08-0.44-0.05-0.62c-0.06-0.08,0-0.21-0.05-0.31   c0,0,0,0,0,0c-0.03-0.18-0.11-0.33-0.25-0.47c-0.02-0.05-0.1-0.1-0.08-0.17c0.08,0.04,0.19,0.08,0.27,0   c0.06-0.04,0.16-0.06,0.17-0.15c0-0.01,0-0.01,0-0.02c0.02-0.03,0.05-0.05,0.08-0.03c0.01,0.01,0.02,0.03,0.03,0.05   c0.02,0.08-0.02,0.19,0.07,0.23c0.23,0.11,0.38,0.34,0.52,0.54c0.01,0.01,0.01,0.02,0.02,0.02c0.1,0.11,0.25,0.13,0.37,0.21   c0.11,0.05,0.25,0.05,0.35-0.02c0.05-0.05,0.08-0.12,0.08-0.18c0-0.05-0.01-0.09-0.02-0.14c0.02-0.05,0-0.15,0.08-0.16   c0.13,0.04,0.14,0.2,0.22,0.3c0,0,0,0,0,0c0.04,0.15,0.14,0.31,0.3,0.36c0.13,0.08,0.07,0.24,0.18,0.33   c0.15,0.13,0.35-0.02,0.52,0.06c0.03-0.03,0.02-0.07,0.01-0.1c-0.13-0.1-0.02-0.29-0.16-0.4c0.01-0.04-0.01-0.11,0.05-0.12   c0.09,0.02,0.06,0.13,0.12,0.19c0.02,0.18,0.08,0.36,0.06,0.54c0.05,0.08,0.11,0.15,0.12,0.25c0.15,0.22,0.43,0.07,0.64,0.07   c0.07,0.05,0.11,0.13,0.1,0.22c-0.05,0.04-0.02,0.12-0.01,0.19c0,0,0,0.01,0.01,0.02c0.13,0.18,0.24,0.39,0.36,0.58   c0.12,0.06,0.13,0.19,0.25,0.23c0.2,0.12,0.28,0.37,0.5,0.46c0.16,0.03,0.33,0.02,0.49,0.02c0.13-0.03,0.18-0.15,0.24-0.24   c-0.01-0.03,0.03-0.06,0.05-0.08c0.05,0,0.07,0.05,0.09,0.08c0.03,0.19,0.01,0.39,0.1,0.56c0.03,0.24,0.29,0.36,0.41,0.56   c0.19,0.16,0.38,0.29,0.6,0.39c0.17,0.03,0.31,0.13,0.48,0.19l1.85,0.64v-0.03l0.21-0.05c0.13-0.13,0.31-0.18,0.49-0.15   c0.13,0.08,0.25,0.16,0.38,0.23l1.01,0.76c0.16,0.17,0.36,0.26,0.53,0.45c0.18,0.11,0.4,0.02,0.59,0.12   c0.27,0.04,0.45-0.13,0.72-0.12c0.12-0.09,0.28-0.12,0.41-0.18c0.27-0.03,0.48-0.18,0.72-0.28c0.08-0.08,0.18-0.09,0.29-0.08   c0.19,0.04,0.39,0.08,0.55-0.02c0.13-0.04,0.23,0.02,0.35,0.03c0.08,0.04,0.18-0.01,0.26,0.01c0.18-0.03,0.35-0.06,0.48-0.21   c0.11-0.03,0.18-0.13,0.29-0.18c0.06-0.11,0.16-0.23,0.13-0.36c0.03-0.11-0.14-0.21-0.02-0.29L106.15,68c0,0-0.08-0.21-0.15-0.44   c-0.09-0.26-0.18-0.53-0.18-0.53c-0.03,0.04-0.09,0.04-0.13,0.03c-0.07-0.04-0.13-0.12-0.22-0.1c-0.07-0.03-0.15-0.03-0.22,0.02   c-0.2-0.02-0.41,0.03-0.61,0.05c-0.07-0.12,0.08-0.2,0.07-0.33c0.05-0.09,0.13-0.17,0.22-0.19c0.07-0.08,0.18-0.05,0.25-0.11   c0.09-0.03,0.15-0.1,0.19-0.18c-0.01-0.07,0.01-0.15,0.03-0.22c0.02-0.07,0.03-0.14,0-0.22c-0.07-0.16-0.03-0.38-0.07-0.55   c0-0.01,0-0.01,0-0.02c-0.02-0.09-0.01-0.17-0.02-0.29c-0.04-0.19-0.24-0.29-0.32-0.46l-0.03-0.06c-0.11-0.15-0.24-0.29-0.28-0.49   c-0.13-0.15-0.05-0.38-0.13-0.56c0.05-0.18,0.02-0.35-0.01-0.52c-0.01-0.06-0.02-0.12-0.03-0.17c-0.03-0.02-0.05-0.05-0.03-0.08   c0.1-0.15,0.36-0.07,0.39-0.28c0.08-0.02,0.03-0.11,0.09-0.15c0.05-0.04,0.13,0,0.18-0.05c0-0.02,0-0.04-0.01-0.06   c-0.01-0.04-0.04-0.07-0.08-0.08c-0.11-0.07-0.16,0.08-0.25,0.07c-0.1-0.03-0.05-0.23-0.19-0.15c-0.02,0.01-0.04,0.03-0.04,0.05   c0.02,0.04,0,0.08-0.01,0.12c0,0,0,0,0,0.01c-0.03,0.05-0.07,0.07-0.11,0.09c-0.02-0.03-0.03-0.06-0.02-0.1   c0.01-0.05,0.03-0.1,0.04-0.15c0.09-0.06,0.06-0.16,0.13-0.22c-0.01-0.08,0-0.17-0.07-0.22c-0.04-0.01-0.1-0.01-0.1-0.07   c-0.08-0.01-0.11-0.07-0.13-0.13c-0.02-0.05-0.04-0.1-0.1-0.13c-0.01-0.08-0.08-0.15-0.07-0.24c0.03-0.03,0.08-0.02,0.12,0   c0.03,0.03,0.06,0.03,0.09,0.02c0.04-0.03,0.05-0.09,0.04-0.13c-0.06-0.08-0.14-0.13-0.24-0.13c-0.03-0.06-0.08-0.12-0.11-0.18   c-0.01-0.04-0.02-0.08,0-0.12c0.03-0.05,0.11-0.02,0.11-0.09c0.03-0.15-0.1-0.27-0.06-0.43c-0.05-0.04-0.08-0.14-0.17-0.13   c-0.05-0.01-0.05,0.06-0.08,0.07c-0.2-0.05-0.32,0.24-0.5,0.06c0.01-0.05,0.02-0.1,0.05-0.14c0.02-0.05,0.06-0.09,0.12-0.12   c0.11-0.03,0.28,0.08,0.34-0.09c0.08-0.13-0.05-0.22-0.06-0.34c-0.15-0.17-0.29-0.35-0.46-0.5c-0.03-0.08-0.08-0.13-0.11-0.21   c-0.06-0.04-0.09-0.13-0.17-0.13c-0.07-0.05-0.13-0.12-0.18-0.19c-0.02-0.03-0.03-0.05-0.05-0.08c-0.07-0.03-0.07-0.11-0.07-0.18   c0.01-0.15,0.07-0.28,0.1-0.41c0.06-0.22-0.17-0.35-0.23-0.52c-0.08-0.14-0.03-0.31-0.02-0.48c0-0.11,0.14-0.18,0.22-0.24   c0.22-0.09,0.46,0,0.69-0.06c0.13-0.03,0.25-0.13,0.29-0.26c0.01-0.05,0-0.12,0.03-0.17c-0.06-0.26,0.03-0.5,0.11-0.73   c0.01-0.03,0.01-0.07,0.04-0.07c0.13,0.04,0.25,0.11,0.4,0.06c0.14-0.01,0.26,0.07,0.4,0.02l0.14-0.13   c0.04-0.08,0.04-0.18,0.12-0.24l-0.49-1.02c0-0.08,0-0.16-0.01-0.24c-0.01-0.06-0.02-0.12-0.06-0.18   c-0.04-0.09,0.05-0.16,0.04-0.25c0.06-0.14,0.2-0.16,0.31-0.23c0.15-0.1,0.33-0.15,0.51-0.19c0.14,0.02,0.29-0.01,0.41,0.02   c0.16,0.01,0.34,0.05,0.4,0.2c0.06,0.08,0.18,0.13,0.15,0.25c0.09,0.11,0.11,0.25,0.14,0.38c0,0.02,0.01,0.05,0.02,0.07   c0.04,0.07-0.02,0.14-0.01,0.2l-0.2,1.02c0.04,0.09,0.07,0.19,0.15,0.27c0.02,0.01,0.03,0.01,0.05,0.02   c0.07,0.02,0.14,0.02,0.21,0.06c-0.02,0.09-0.07,0.18-0.16,0.23c0,0.08-0.02,0.17,0.01,0.24c-0.03,0.13-0.05,0.28-0.18,0.35   c-0.1,0-0.17,0.08-0.27,0.07c-0.08,0.04-0.14,0.15-0.24,0.17c-0.1,0-0.18-0.01-0.28-0.03c-0.15-0.24-0.3-0.61-0.65-0.6   c-0.06,0.01-0.11,0.06-0.14,0.11c-0.02,0.19,0.19,0.32,0.13,0.51c0.04,0.08-0.02,0.19,0.05,0.25c0.02,0.07,0.01,0.14,0,0.2   c-0.02,0.1-0.04,0.19-0.04,0.29c-0.02,0.12-0.01,0.24-0.04,0.36c0,0.03-0.04,0.06-0.08,0.08c-0.11-0.02-0.18-0.18-0.3-0.19   c-0.08,0.03-0.21-0.01-0.23,0.11c-0.11,0.15,0.03,0.28,0.06,0.41c0.03,0.11,0.1,0.24,0.22,0.27c0.09,0.01,0.21-0.05,0.28,0.03   c0.03,0.08,0.06,0.15,0.11,0.21c0.01,0.01,0.02,0.03,0.03,0.04c0.08,0.02,0.18,0.05,0.25,0.01c0.02-0.01,0.04-0.03,0.05-0.04   c0.01-0.01,0.03-0.02,0.04-0.02c0.01,0,0.01,0.01,0.01,0.02c0.01,0.02,0,0.06-0.01,0.09c-0.04,0.06,0.02,0.11,0.03,0.16   c0.07,0.07,0.14,0.14,0.23,0.12c0.03-0.02,0.04-0.07,0.03-0.12c-0.03-0.08-0.14-0.09-0.14-0.18c0.06-0.03,0.11-0.05,0.17-0.05   c0.01-0.01,0.01-0.01,0.02-0.02c0.11-0.1,0.27-0.14,0.32-0.29c0.01-0.08-0.08-0.1-0.13-0.14l-0.13-0.02   c-0.13,0.05-0.08,0.2-0.17,0.26c-0.07,0.04-0.14,0.02-0.19,0.08c-0.03-0.24,0.02-0.49,0.06-0.73c0.03-0.02,0.03-0.08,0.07-0.08   c0.08,0.04,0.13,0.12,0.22,0.14c0.06-0.03,0.11-0.12,0.18-0.13c0.06-0.08,0.14-0.09,0.22-0.13c0.03,0.03,0.03,0.09,0.04,0.14   c-0.11,0.08-0.09,0.29-0.28,0.25c-0.04,0.02-0.02,0.07-0.01,0.1c0.05,0.04,0.13,0.05,0.2,0.05c0.12,0.03,0.23-0.26,0.29-0.05   l0.85-0.56c0.08-0.08,0.25-0.13,0.21-0.29c0.02-0.02,0.05-0.02,0.08-0.02l0.19,0.2c0.13,0.05,0.2,0.21,0.36,0.23   c0.14,0.09,0.31,0.01,0.48,0.03c0.03-0.03,0.08,0.01,0.11,0.01c0.1-0.02,0.19,0.03,0.29,0c0.12,0.06,0.26,0.04,0.38,0.08   c0.14,0.11,0.16,0.29,0.22,0.46c0.05,0.15,0.22,0.16,0.35,0.16c0.02,0,0.03-0.01,0.04-0.02c0-0.09-0.04-0.16-0.03-0.24   c0.04,0,0.05,0.05,0.08,0.06c0.13-0.01,0.17,0.15,0.28,0.19c0.07,0.06,0.13,0.16,0.23,0.13c0.06,0.07,0.18,0.04,0.19,0.15   c0,0,0,0.01,0,0.01c-0.02,0.02-0.04,0-0.06-0.01h-0.25c-0.03,0.03-0.05,0.07-0.06,0.11c-0.02,0.15,0.14,0.22,0.22,0.31   c0.08,0.15,0.24,0.29,0.38,0.38c0.09,0.07,0.13-0.1,0.21-0.03c0.1,0.07,0.02,0.24,0.13,0.3c0.11,0.03,0.2,0.01,0.29-0.04   c0.1-0.14-0.09-0.26-0.11-0.4c0.01-0.02,0.04-0.01,0.06,0c0.01,0.02,0.02,0.04,0.05,0.03c0.04-0.11,0-0.24-0.08-0.31   c-0.03-0.02-0.07-0.01-0.08-0.05c-0.02-0.06-0.04-0.14,0.02-0.19c0.08,0.01,0.13,0.06,0.2,0.07c0.03,0.03,0.04,0.08,0.05,0.12   c0.08,0.06,0.1,0.14,0.13,0.23c-0.01,0.06-0.09,0.11-0.06,0.19c0.03,0.05,0.11,0.07,0.1,0.15c-0.04,0.06-0.02,0.14-0.08,0.2   c-0.04,0.1,0.13,0.13,0.08,0.22c-0.03,0.06,0.01,0.11,0.03,0.16c0.03,0.06,0.1,0.1,0.15,0.14c0.04,0.04,0.07,0.08,0.02,0.16   c0.02,0.07-0.08,0.09-0.02,0.15c0.08,0.07,0.17,0.08,0.27,0.07c0.19,0,0.19-0.18,0.24-0.31c0.02-0.02,0.05-0.05,0.06-0.08   c0.08-0.12,0.08-0.28,0.03-0.41c0.07-0.17,0.33-0.15,0.37-0.35c0.05-0.08,0.17-0.09,0.18-0.19c0.09-0.18,0.06-0.41,0.2-0.57   c0-0.01,0.01-0.03,0.01-0.04c0.02-0.06,0.06-0.12,0.13-0.12l0.71-1.07l0.2-0.14c0.06-0.03,0.15,0.02,0.19-0.06   c0.04-0.08,0.1-0.15,0.18-0.18c0.01,0,0.01-0.01,0.02-0.01c0.04-0.03,0.08-0.05,0.13-0.03c0.01,0.01,0.02,0.03,0.02,0.05   c0,0.03-0.01,0.06-0.01,0.08c-0.03,0.04-0.03,0.08-0.04,0.13c0.01,0.05,0.05,0.08,0.1,0.09c0.13-0.04,0.23,0.08,0.34,0   c0.09-0.05,0.15-0.16,0.14-0.27c0.01-0.01,0.01-0.02,0.01-0.03c0.03-0.11,0.02-0.25,0.09-0.35c0-0.15,0.1-0.25,0.17-0.37   c0.11-0.14,0.23-0.27,0.28-0.44c0.08-0.09,0.13-0.2,0.24-0.26c0.03-0.02,0.03-0.06,0.03-0.09c-0.04-0.04-0.08-0.06-0.13-0.07   c-0.02,0-0.03,0-0.05-0.01c-0.08-0.03-0.17-0.08-0.2-0.14c0.05-0.23,0.06-0.49,0.03-0.72c0.01-0.08,0.13-0.15,0.06-0.23   c-0.08-0.08-0.17-0.14-0.25-0.22c-0.09-0.03-0.09,0.11-0.17,0.08h-0.06l-0.11,0.18c0.01,0.09-0.02,0.21,0.07,0.26   c0.08-0.01,0.17,0.04,0.24-0.02c0.06-0.01,0.11,0.02,0.13,0.08c0.01,0.04-0.01,0.1-0.06,0.11c-0.15,0.04-0.29,0.09-0.44,0.14   c-0.08,0.05-0.02,0.16-0.09,0.22c0,0.08-0.04,0.18-0.02,0.27c0.01,0.03,0.03,0.06,0.06,0.09c0.06,0.13-0.12,0.2-0.15,0.32   c-0.07,0.07-0.15,0.12-0.23,0.16c-0.02,0.06-0.07,0.08-0.12,0.1c-0.06,0.02-0.08-0.03-0.1-0.07c0-0.04,0.02-0.08,0.05-0.1   c0.04-0.01,0.1,0.02,0.12-0.03c0.01-0.04-0.02-0.05-0.05-0.07c-0.13,0.01-0.1-0.17-0.23-0.19c-0.11-0.04-0.27-0.05-0.38,0.01   c-0.04,0.07-0.07,0.17-0.17,0.18c-0.08-0.01-0.18,0.1-0.22-0.01c-0.1-0.07-0.22,0.01-0.32,0.03c-0.08,0.04-0.18,0-0.25,0.07   c-0.13-0.01-0.31-0.01-0.44,0.06c-0.09,0.04-0.19,0.01-0.29,0.02c0.02-0.04,0.08-0.07,0.06-0.13c-0.05-0.05-0.12-0.08-0.19-0.07   c-0.07,0.02-0.15,0.03-0.2,0.1c0.01,0.07-0.07,0.1-0.05,0.18l-0.05,0.03c-0.15-0.04-0.31-0.01-0.45-0.09   c-0.03-0.05,0.05-0.1,0.09-0.15c0.15-0.18,0.43-0.1,0.56-0.3c0.01-0.04,0-0.08-0.02-0.12c-0.01-0.04-0.03-0.08-0.01-0.13l0.02-0.24   c0.11-0.19,0.21-0.4,0.34-0.59c0.08-0.02,0.14-0.09,0.13-0.18l0.03-0.03c0.15-0.04,0.33-0.05,0.49-0.02c0.1,0.1,0.16,0.22,0.3,0.25   c0.05,0.02,0.14,0.06,0.19,0l0.11-0.15c0-0.09-0.14-0.17-0.06-0.25c0.19,0.02,0.21,0.2,0.34,0.31c0.08,0.07,0,0.15,0,0.23   c-0.06,0.05-0.17-0.02-0.2,0.08c-0.07,0.05,0,0.13-0.07,0.19c-0.09,0.08-0.17,0.18-0.14,0.31c0.01,0.05-0.07,0.08-0.03,0.14   c0.13,0.02,0.28,0.07,0.41,0c0.12-0.08,0.06-0.2,0.09-0.3c0-0.13-0.19-0.24-0.05-0.37c0.14,0.03,0.11,0.19,0.18,0.28   c0.03,0.14,0.01,0.32,0.13,0.42c0.05,0.03,0.1,0.03,0.15,0.04c0.05,0.01,0.09,0.01,0.14,0.03c0.11-0.07,0.22,0.05,0.31-0.03   c0,0,0.01,0,0.01-0.01c-0.06-0.12,0.07-0.27-0.03-0.4l-0.01-0.13l0.13-0.12c-0.02-0.19,0.14-0.35,0.03-0.54   c0-0.12,0-0.25,0.03-0.37c0.02-0.07,0.04-0.13,0.08-0.18c0.06,0,0.09,0.06,0.14,0.08c0.21,0.01,0.38-0.13,0.58-0.13   c0.03-0.09,0.13-0.04,0.13-0.13c0.13-0.02,0.2-0.15,0.22-0.27c0.03-0.15-0.14-0.11-0.22-0.16c-0.15-0.1-0.39-0.15-0.55-0.04   c-0.03,0.08-0.13,0.13-0.16,0.2c-0.03,0.03-0.08,0.05-0.08,0c-0.04-0.08-0.02-0.18,0.02-0.25c0.12-0.09,0.18-0.23,0.29-0.31   c0.04-0.14,0.17-0.23,0.25-0.33c0.09-0.02,0.2,0.02,0.29-0.04c0.16-0.08,0.09-0.29,0.18-0.4c0.03-0.13,0.07-0.28,0.23-0.34   c0.13-0.02,0.28-0.04,0.41-0.07c0.29-0.03,0.5-0.26,0.78-0.31c0.08-0.01,0.14-0.05,0.21-0.07c0.11-0.15,0.23-0.28,0.36-0.4   c0.06-0.06,0.13-0.12,0.2-0.18c0.04-0.07,0.11-0.14,0.04-0.22c-0.05-0.08-0.16-0.17-0.1-0.28c0.03-0.06,0.04-0.13-0.01-0.18   c-0.09-0.05,0.02-0.15-0.04-0.23C118.5,48.98,118.38,48.84,118.53,48.77z M106.1,56.82c-0.02,0.05,0.03,0.15-0.04,0.15   c-0.06-0.08-0.14-0.09-0.24-0.1c-0.12,0.01-0.23,0.07-0.33,0.14L105.48,57c0-0.14,0.01-0.26,0.05-0.39   c0.03-0.06-0.01-0.14,0.02-0.19c0.07-0.01,0.03,0.08,0.1,0.07c0.12,0.09,0.23,0.19,0.37,0.23c0.04-0.01,0.09-0.04,0.14-0.02   C106.19,56.75,106.12,56.78,106.1,56.82z M109.03,57c-0.05,0.04-0.12,0.04-0.19,0.05c-0.03-0.01-0.03-0.05-0.01-0.08   c0.07-0.07,0.14-0.16,0.25-0.13l0.02,0.02C109.13,56.93,109.03,56.94,109.03,57z M111.48,57.81c-0.1-0.02-0.13-0.13-0.2-0.19v-0.06   c0.09,0,0.18,0.03,0.23,0.11C111.48,57.72,111.55,57.78,111.48,57.81z M112.34,58.7c0.12,0.03,0.22-0.04,0.35-0.03   c0.05,0.01,0.12-0.01,0.13,0.05c0,0.02,0,0.04-0.03,0.04c-0.13-0.04-0.1,0.15-0.2,0.18c-0.06,0-0.12,0.04-0.17,0   c-0.06-0.14-0.22-0.14-0.32-0.22c-0.02-0.04-0.09-0.08-0.08-0.12C112.13,58.65,112.23,58.68,112.34,58.7z M111.81,58.15   c0.08,0.08,0.17,0.16,0.2,0.27c-0.02,0.03,0,0.07-0.03,0.08c-0.14-0.08-0.2-0.25-0.35-0.3c0-0.08-0.14-0.15-0.07-0.23   C111.68,57.95,111.71,58.1,111.81,58.15z"/>
	<path class="st0" d="M139.09,48.61c-0.11-0.07-0.24-0.12-0.38-0.12c-0.04,0.03-0.09,0.09-0.12,0.01c-0.02-0.05-0.04-0.09-0.04-0.14   c0.07-0.02,0.13,0.04,0.19,0c0.1-0.07,0.05-0.18,0.06-0.27c-0.05-0.05,0-0.15-0.06-0.19c-0.07-0.04-0.13-0.09-0.22-0.07   c-0.05,0.01-0.08,0.05-0.13,0.05c-0.14-0.16,0.08-0.28,0.06-0.45c0.07-0.06-0.01-0.14,0.03-0.2c-0.03-0.1-0.09-0.19-0.13-0.29   c0.04-0.13,0-0.24-0.05-0.35c-0.02-0.02-0.04-0.03-0.05-0.05c-0.07-0.1-0.05-0.25-0.1-0.37c-0.04-0.06-0.03-0.14-0.08-0.2   c0.03-0.24-0.24-0.38-0.34-0.58c-0.04-0.04-0.1-0.08-0.17-0.05c-0.09-0.05-0.25,0.03-0.27-0.13l-0.22-0.4   c-0.01-0.1,0.08-0.15,0.1-0.24c0.05-0.13,0.19-0.18,0.29-0.24c0.03-0.07,0.06-0.19,0-0.24c-0.05-0.1-0.16-0.09-0.25-0.11   c-0.1,0.03-0.2,0.07-0.29,0.14c-0.04,0-0.11,0.03-0.13-0.03c0.04-0.08,0.13-0.15,0.17-0.23c0-0.13,0.07-0.22,0.04-0.35   c-0.07-0.07-0.13-0.2-0.26-0.16c-0.12-0.03-0.18,0.07-0.28,0.11c-0.12,0-0.27-0.02-0.33-0.15c-0.04-0.08-0.12-0.14-0.11-0.24   c-0.13-0.08-0.19-0.2-0.26-0.32c0.02-0.15,0.1-0.3,0.05-0.46c-0.07-0.2-0.34-0.07-0.37-0.29c-0.1-0.21-0.31-0.39-0.41-0.59   c-0.11-0.09-0.22-0.22-0.38-0.15c-0.03,0.02-0.06,0.02-0.09,0.01c-0.06-0.07-0.19-0.13-0.13-0.26c0.04-0.05,0.04-0.13,0.05-0.19   c-0.06-0.09-0.01-0.24-0.09-0.34c-0.05-0.04-0.14-0.08-0.15-0.16l-0.65-0.89c-0.09,0-0.13-0.11-0.18-0.17   c-0.03-0.11-0.11-0.24-0.03-0.34c0.1-0.03,0.24,0.02,0.33-0.07c0.04-0.05,0.07-0.13,0.03-0.19c-0.05-0.08-0.11-0.18-0.21-0.18   c-0.07,0.03-0.12,0.07-0.14,0.14c0.01,0.07-0.03,0.13-0.04,0.18h-0.02c-0.05-0.14-0.13-0.26-0.18-0.4   c-0.05-0.04-0.09-0.09-0.1-0.15c-0.01-0.03-0.01-0.05,0-0.08c0.04-0.03,0.05-0.1,0.02-0.14c-0.13-0.13-0.08-0.36-0.25-0.46   c-0.14-0.13-0.34-0.21-0.48-0.38c-0.05,0.01-0.08-0.03-0.12-0.04c-0.12,0.01-0.23,0.02-0.3,0.12c-0.16-0.01-0.2-0.19-0.31-0.28   c-0.08-0.1-0.13-0.24-0.24-0.34c-0.01-0.17-0.17-0.27-0.27-0.39c-0.14-0.08-0.23-0.22-0.33-0.35c-0.08-0.15-0.29-0.18-0.33-0.34   c-0.05-0.06-0.12-0.08-0.19-0.08c-0.1,0.01-0.2,0.07-0.26,0.13c-0.01,0.18,0.15,0.31,0.26,0.45c0.08,0.18,0.23,0.33,0.34,0.49   c-0.05,0.15,0.17,0.19,0.13,0.35c-0.02,0.03-0.05,0.04-0.09,0.03c-0.03-0.05-0.08-0.08-0.14-0.08c-0.04,0.02-0.09,0.07-0.13,0.03   c-0.14-0.07-0.08-0.25-0.14-0.36c-0.09-0.08-0.19-0.12-0.26-0.21c-0.04-0.02-0.07-0.03-0.08-0.07l0.06-0.12   c0.01-0.13-0.13-0.2-0.2-0.31c-0.09-0.08-0.18,0.07-0.27,0.1c-0.08,0.03-0.1,0.11-0.14,0.18c0.04,0.08,0.14,0.1,0.23,0.13   c0.05,0.01,0.12-0.01,0.14,0.05c0.01,0.06-0.06,0.04-0.09,0.06c-0.09,0-0.18-0.05-0.25-0.09c-0.13,0.01-0.29-0.05-0.39,0.08   c-0.07,0.09,0.02,0.27-0.13,0.27c-0.08-0.08-0.03-0.2-0.13-0.27c-0.01-0.06-0.06-0.13-0.12-0.16c-0.14,0.03-0.2,0.19-0.23,0.31   c-0.02,0.04,0.25,0.52,0.22,0.51l0-0.01c0,0,0.42-0.01,0.57-0.05c-0.02-0.08,0.08-0.04,0.12-0.07c0.11-0.12,0.24,0,0.37,0   c0.13,0.02,0.25,0.06,0.38,0.04c0.17,0.05,0.15,0.29,0.36,0.29c0.03,0.01,0.03-0.02,0.04-0.04c0.02-0.04-0.03-0.09,0.02-0.13   c0.1-0.01,0.04,0.12,0.13,0.13c0.08,0.08-0.01,0.25,0.13,0.29c0.14,0.08,0.14,0.26,0.26,0.36c0.02,0.09,0.09,0.17,0.1,0.25   l0.03,0.03c-0.03,0.01-0.04,0.08-0.04,0.15c-0.01,0.13-0.02,0.28-0.06,0.26c0,0,1.46,1.7,2.15,2.5c0.21,0.24,0.35,0.4,0.35,0.4   c0.08,0.09,0.16,0.21,0.25,0.29c0.04,0.07,0.12,0.1,0.12,0.19c0.15,0.13,0.28,0.3,0.4,0.45c0.03,0.03,0.07,0.08,0.07,0.13   c0.01,0.12-0.16,0.18-0.07,0.31c0.04,0.07,0.1,0.18,0.2,0.16c0.04-0.01,0.04-0.06,0.08-0.07c0.18-0.02,0.24,0.19,0.36,0.28   c0,0.07,0.1,0.09,0.1,0.16c0.15,0.18,0.29,0.38,0.41,0.57c0.14,0.08,0.1,0.26,0.22,0.36c0.12,0.19,0.29,0.36,0.34,0.58   c0.05,0.08,0.13,0.18,0.06,0.27c-0.14,0.12-0.42-0.04-0.48,0.21c-0.04,0.13,0.01,0.27-0.04,0.39c-0.09,0.05-0.2,0.14-0.2,0.26   c0.04,0.05,0.03,0.13,0.08,0.18c0.1,0.03,0.17,0.12,0.28,0.12c0.12,0.09,0.24,0.15,0.4,0.11c0.11,0.03,0.2,0.12,0.31,0.16   c0.07,0.13,0.18,0.24,0.32,0.3c0.16,0.09,0.35,0.2,0.44,0.39c0.12,0.18,0.16,0.4,0.25,0.6c0.02,0.08,0.09,0.16,0.1,0.25   c0.1,0.2,0.08,0.44,0.2,0.64l0.04,0.2c-0.06,0.13-0.18,0.23-0.15,0.38c0,0,0,0,0,0c0.03,0.15,0.08,0.29,0.11,0.44   c-0.14,0.08-0.29,0.21-0.32,0.38c-0.03,0.11-0.1,0.2-0.19,0.26c-0.04,0.13-0.13,0.24-0.15,0.37c-0.13,0.15-0.29,0.29-0.42,0.45   c-0.13,0.01-0.27-0.02-0.4,0c-0.08-0.04-0.21,0.08-0.23-0.07c-0.03-0.13,0.1-0.22,0.06-0.36c-0.05-0.15,0.1-0.27,0.14-0.41   c0.11-0.09,0.21-0.19,0.19-0.34c-0.05-0.06-0.1-0.14-0.07-0.23c0.05-0.06,0.15-0.08,0.15-0.18c0.03-0.1-0.06-0.19-0.14-0.24   c-0.07-0.01-0.13-0.04-0.17-0.09c-0.09-0.1-0.14-0.25-0.28-0.3c-0.06,0.02-0.08-0.06-0.13-0.06c-0.18-0.1-0.39-0.13-0.6-0.13   c-0.04,0.04-0.1,0.04-0.15,0.05c-0.2,0.09-0.34,0.27-0.49,0.43c-0.04,0.05-0.08,0.09-0.13,0.13c-0.13,0.14-0.14,0.44-0.4,0.42   c-0.2-0.02-0.2-0.24-0.36-0.33c-0.06-0.08-0.19-0.07-0.2-0.19c-0.02,0-0.03-0.02-0.03-0.03c-0.01-0.02-0.02-0.05-0.02-0.08   c0.03-0.07,0.11-0.12,0.16-0.18c0.04-0.01,0.05,0.04,0.07,0.07c0.02,0.07-0.01,0.13,0,0.19c0,0,0,0.01,0.01,0.01   c0.04,0.08,0.05,0.18,0.16,0.2c0.16-0.02,0.34,0.03,0.45-0.13c0.02-0.03,0.03-0.06,0.03-0.09c0-0.05-0.01-0.1-0.03-0.14   c-0.19-0.1-0.35-0.38-0.6-0.25c-0.14-0.04-0.1-0.24-0.26-0.27c-0.05,0.03-0.12,0.05-0.14-0.02c-0.01-0.06-0.09-0.08-0.1-0.13   c-0.1-0.13,0.02-0.3-0.13-0.4c-0.04-0.06-0.08-0.11-0.13-0.17c-0.16-0.17-0.37-0.29-0.58-0.39c-0.2-0.03-0.38-0.1-0.58-0.12   c-0.09-0.02-0.14-0.11-0.24-0.09c-0.07-0.07-0.16,0.01-0.22-0.04l-1.04,0.35c0.02,0.06-0.05,0.08-0.08,0.1   c-0.07,0.04-0.12-0.02-0.18,0c-0.06,0.07-0.14,0.12-0.2,0.19c-0.05,0.05-0.08,0.11-0.07,0.19c-0.01,0.03-0.01,0.07-0.04,0.07   c-0.12-0.05-0.23-0.13-0.38-0.12c-0.06,0.03-0.14,0.04-0.17,0.12c0.01,0.12,0.08,0.22,0.06,0.35c0.06,0.18,0.18,0.35,0.28,0.5   c0.01,0.02-0.02,0.06-0.06,0.07c-0.13,0.01-0.24-0.09-0.36-0.14c-0.07-0.14-0.22-0.16-0.34-0.23c0.02-0.06,0.09-0.02,0.13-0.03   c0.1,0,0.09-0.11,0.18-0.13c0.02-0.01,0.03-0.05,0.01-0.07c-0.04-0.08-0.11-0.14-0.19-0.17c-0.04-0.13-0.18-0.2-0.15-0.35   c0.03-0.02,0.06-0.04,0.1-0.06c0.06-0.04,0.12-0.08,0.16-0.15c0.02-0.14,0.01-0.31,0.17-0.35c0.06-0.07,0.13-0.14,0.13-0.24   c-0.07-0.14-0.15-0.34-0.32-0.38l-0.04-0.02c-0.18-0.04-0.4-0.05-0.52,0.1c-0.1,0.03-0.15,0.14-0.2,0.23   c-0.15,0.09-0.18,0.36-0.41,0.29c-0.15,0.01-0.27,0.07-0.42,0.03c-0.07-0.14-0.03-0.35,0.04-0.46c0.14-0.14,0.27-0.29,0.41-0.4   c0-0.01,0-0.01,0.01-0.02c0.04-0.04,0.2,0.02,0.24-0.03c0.12-0.05,0.23,0.03,0.34,0c0.06,0,0.13,0,0.16-0.07   c-0.02-0.09,0.05-0.19,0-0.27c0.02-0.07-0.05-0.18,0.05-0.21l-0.88-0.69c-0.05-0.05-0.1-0.13-0.2-0.07   c-0.02,0.03-0.08,0.04-0.12,0.03c-0.02-0.03-0.04-0.07-0.04-0.13c0.05-0.04,0.13-0.09,0.09-0.16c-0.04-0.07-0.12-0.02-0.17,0   c-0.13,0.02-0.25,0.11-0.35,0.19c-0.18,0.08-0.29,0.27-0.44,0.39c-0.04,0.06-0.11,0.05-0.16,0.08c-0.1,0.07-0.2,0.15-0.25,0.26   c0,0.08,0.09,0.1,0.13,0.14c0.08-0.02,0.13,0.07,0.21,0.05c0.06,0.03,0.08,0.14,0.15,0.12c0.14-0.03,0.25-0.19,0.4-0.19   c0.03,0.01,0.07-0.02,0.09,0.03c0,0.06-0.01,0.13-0.03,0.18c-0.08,0.1-0.22,0.17-0.27,0.3c-0.02,0.02-0.05,0.03-0.07,0.05   c-0.09,0.08-0.17,0.18-0.25,0.26c-0.08,0.03-0.15,0.12-0.2,0.19c-0.05,0.01-0.05,0.07-0.1,0.08c-0.09,0.1-0.3-0.06-0.38,0.06   c-0.08,0.07-0.19,0.1-0.29,0.15c-0.16,0.09-0.3,0.25-0.46,0.34c-0.09,0.09-0.18,0.21-0.29,0.29c-0.04,0.03-0.08,0.06-0.13,0.07   c-0.05,0.07-0.15,0.13-0.12,0.22c-0.05,0.03-0.02,0.09-0.01,0.13c0.02,0.06,0.1,0.11,0.04,0.17c-0.09,0.07-0.21,0.06-0.29,0.13   c-0.09,0-0.16,0.06-0.24,0.08c-0.12,0.02-0.3,0.08-0.41-0.01c-0.03-0.15-0.17-0.32-0.32-0.35c-0.14-0.02-0.19-0.18-0.31-0.25   c-0.16-0.04-0.3-0.15-0.48-0.16c-0.13,0.15-0.36,0.15-0.5,0.31c-0.15,0.11-0.34,0-0.49-0.01c-0.03-0.03,0-0.08,0.01-0.12   c0.05-0.08,0.17-0.04,0.19-0.14c0.04-0.02,0.07-0.05,0.1-0.07c0.03-0.03,0.06-0.06,0.1-0.07c0.15-0.17,0.37-0.18,0.57-0.25   c0.13-0.1,0.28-0.13,0.39-0.25c0.16-0.1,0.11-0.32,0.19-0.47c-0.03-0.11,0.05-0.23,0.03-0.34c-0.01-0.04-0.03-0.07-0.06-0.1   c-0.02-0.08-0.1-0.08-0.15-0.12c-0.18-0.04-0.27,0.12-0.38,0.19c0,0.01-0.01,0.02-0.02,0.03c-0.13,0.14-0.35,0.09-0.45,0.28   c-0.2,0.1-0.31,0.3-0.46,0.46c0.02,0.05-0.07,0.09-0.03,0.14c-0.06,0.06,0,0.18-0.11,0.19c-0.12-0.01-0.24-0.06-0.36-0.05   c-0.16-0.07-0.38-0.04-0.56-0.1c-0.1-0.04-0.24,0-0.31-0.12l-0.41,0.02c0,0-0.11,0.31-0.19,0.56c-0.05,0.16-0.1,0.28-0.1,0.28   c-0.06,0.16,0.12,0.25,0.04,0.4c0,0.04,0.03,0.08,0.07,0.09c0.1-0.03,0.21,0.02,0.3-0.04c0.03,0,0.07,0.03,0.09,0.07   c-0.01,0.06-0.09,0.07-0.11,0.13l-0.45-0.07c-0.11-0.15-0.29-0.05-0.44-0.04c-0.07,0-0.1,0.07-0.17,0.07   c-0.03,0.07-0.14,0.04-0.13,0.14c-0.01,0.13,0.04,0.24,0.08,0.35c0,0.01,0.01,0.02,0.01,0.04v0.03c0.08,0.14,0.23,0.15,0.33,0.27   c0.07,0.13,0.23,0.11,0.3,0.21c0.04,0.12,0.07,0.28,0.21,0.31c0.12,0.05,0.27,0.03,0.35-0.06c0.21-0.01,0.34,0.15,0.54,0.15   c0.08,0.01,0.17-0.01,0.24-0.02c0.21-0.02,0.19,0.21,0.26,0.32c0.11,0.12,0.22,0.18,0.35,0.26c0.13,0.17,0.29,0.3,0.35,0.5   l0.19,0.16c0.13,0.03,0.27-0.05,0.39,0.02c0.08,0.02,0.14-0.14,0.18-0.03c0,0.16-0.16,0.26-0.13,0.43   c0.02,0.05,0.02,0.11,0.02,0.18c0,0.04-0.01,0.07-0.03,0.1c0.01,0.06,0.05,0.1,0.04,0.17c0.04,0.09,0.15,0.13,0.22,0.19   c0.04,0.08-0.02,0.17-0.01,0.25c-0.04,0.23-0.42,0.1-0.35,0.37c-0.03,0.03,0,0.08,0,0.11c-0.05,0.12-0.13,0.21-0.24,0.29   c-0.01,0.11,0.11,0.17,0.12,0.27c0.05,0.03,0.1,0.08,0.17,0.05c0.03-0.02,0.06-0.06,0.1-0.03c0.05,0.07,0.15,0.11,0.16,0.2   c0.1,0.18,0.18,0.39,0.27,0.59c0.06,0.07,0.12,0.19,0.23,0.18c0.08,0,0.13-0.06,0.18-0.11c0.01-0.05,0.02-0.12,0.08-0.15   c0.03-0.02,0.06,0,0.06,0.02c0.02,0.05-0.02,0.07-0.05,0.09c-0.03,0.05-0.02,0.13-0.04,0.18c-0.01,0.03-0.03,0.04-0.06,0.06   c-0.08,0.04-0.19,0.09-0.22,0.18c-0.02,0.13,0.13,0.08,0.2,0.13c0.16-0.07,0.34-0.05,0.5-0.13c0.18-0.03,0.33-0.09,0.47-0.22   c0.01-0.01,0.03-0.01,0.04-0.01c0.03-0.01,0.06-0.01,0.1,0c0,0,0.01,0,0.01,0c0.04,0.02,0.03,0.08,0.02,0.11   c-0.04,0.09-0.21,0.09-0.15,0.23c0.03,0.03,0.04,0.08,0.09,0.1c0.06-0.01,0.13,0.02,0.15,0.06c-0.01,0.07-0.08,0-0.13,0.02   c-0.25,0.02-0.49-0.08-0.73-0.06c-0.11,0.02-0.23,0.07-0.33-0.01c-0.07,0.03-0.15,0.03-0.22,0.03c-0.03,0.03-0.08,0.04-0.1,0.09   c-0.03,0.25,0.2,0.45,0.4,0.56c0.04,0.05,0.13,0.09,0.12,0.17c-0.08,0.08-0.11,0.18-0.16,0.27c0.01,0.1,0.07,0.21-0.01,0.3   c-0.01,0.09,0,0.19-0.04,0.27c-0.13,0.09-0.24,0.22-0.22,0.39c0,0.1-0.06,0.16-0.11,0.23c-0.01,0.02-0.03,0.05-0.04,0.08   c-0.1,0.05-0.2-0.03-0.32-0.02c-0.25,0.09-0.58,0.08-0.81-0.05c-0.01,0-0.02-0.01-0.02-0.01h-0.14c-0.04,0.01-0.09,0.03-0.14,0.03   c-0.13,0.1-0.29,0.19-0.34,0.34c-0.07,0.09-0.09,0.21-0.17,0.3c-0.1,0.08-0.13,0.2-0.19,0.3c-0.07,0.11-0.05,0.23-0.09,0.34   c-0.04,0.17,0.02,0.34-0.12,0.47c-0.04,0.07-0.07,0.14-0.1,0.22c-0.04,0.15-0.2,0.2-0.28,0.33c-0.02,0.12,0,0.25-0.09,0.34   c0,0,0.06,0.04,0.15,0.11c0.2,0.14,0.54,0.38,0.54,0.38c0-0.1,0.06-0.18,0.12-0.26c0.05-0.02,0.1,0,0.15,0.02   c0.05,0.08,0.06,0.19,0.13,0.26c0.03,0.09,0.04,0.18,0.12,0.24c0.04,0.08,0.04,0.22,0.16,0.23c0.09,0.04,0.18,0.07,0.27,0.06   c0.13-0.03,0.09-0.17,0.14-0.24c0.03-0.09,0.03-0.19,0.02-0.3c0.06-0.08,0.08-0.18,0.09-0.28c-0.01-0.04-0.03-0.07-0.05-0.11   c-0.04-0.05-0.08-0.09-0.13-0.14c-0.01-0.08,0-0.17-0.07-0.22c0.04-0.2-0.04-0.41,0.04-0.6c0-0.08-0.02-0.19,0.08-0.24   c0.11-0.03,0.2,0.08,0.22,0.17c0.02,0.11-0.05,0.21-0.02,0.31c-0.08,0.1,0.02,0.23-0.03,0.33c0.03,0.09,0.01,0.22,0.11,0.27   c0.11,0.06,0.28,0.01,0.36,0.11c0,0.01,0.01,0.01,0.01,0.02c-0.01,0.08-0.11,0.06-0.15,0.13c-0.09,0.01-0.2,0.03-0.25,0.13   c-0.04,0.13,0.09,0.22,0.15,0.31c-0.02,0.07,0.04,0.12,0,0.17c-0.06,0.07-0.16,0.11-0.2,0.18c-0.13,0.05-0.12,0.24-0.26,0.27   c-0.13,0.03-0.21-0.09-0.34-0.07c-0.07-0.04-0.18-0.01-0.23-0.08c-0.04-0.05,0.04-0.09,0.01-0.15c-0.13-0.12-0.22-0.25-0.23-0.43   c-0.06-0.04-0.14-0.05-0.21-0.05l-0.25,0.4c0.05,0.13,0.11,0.32,0.04,0.46c-0.04,0.04-0.1,0.06-0.15,0.11   c-0.01,0.01-0.02,0.02-0.03,0.04c-0.02,0.04-0.03,0.09-0.01,0.14c0.02,0.03,0.09,0.06,0.07,0.12c-0.07,0.03-0.13-0.04-0.2-0.03   c-0.06-0.02-0.16,0.08-0.18-0.03c-0.02-0.06-0.03-0.13-0.07-0.18c-0.02-0.02-0.04-0.03-0.06-0.04c-0.04-0.03-0.09-0.06-0.09-0.11   c0.04-0.07,0.02-0.14,0.02-0.23c-0.04-0.05-0.13-0.07-0.11-0.14l-0.58,0.09c0.02,0.09,0.03,0.19,0.07,0.26   c-0.01,0.05,0.07,0.08,0.05,0.13c0,0.01-0.01,0.01-0.01,0.02c-0.06,0.01-0.11,0.07-0.18,0.04c-0.03-0.03-0.05-0.05-0.09-0.06h-0.07   c-0.08,0.03-0.02,0.17-0.11,0.2c0-0.07-0.07-0.14-0.01-0.2c0,0,0,0,0.01-0.01c0-0.12-0.13-0.17-0.2-0.23   c-0.13-0.02-0.22,0.08-0.32,0.13c-0.02,0.03-0.03,0.06-0.03,0.1c0,0.02,0,0.04,0,0.05c0.01,0.05,0.08,0.08,0.06,0.13   c-0.1,0.03-0.18,0.15-0.2,0.25c-0.04,0.16,0.15,0.22,0.25,0.29c0.09,0.01,0.2,0.03,0.24-0.07c0.07-0.12,0.15-0.24,0.19-0.37   c0.07,0.03,0.09,0.13,0.18,0.13c0.03,0.07,0.09,0.13,0.06,0.21c-0.05,0.06-0.13,0.04-0.18,0.08c-0.06,0.06-0.14,0.13-0.11,0.23   c0.01,0.06,0.08,0.11,0.13,0.14c0.13-0.02,0.24-0.12,0.38-0.07c0.06-0.03,0.07-0.11,0.12-0.15c0.13-0.02,0.17-0.24,0.32-0.15   c0.09-0.02,0.23,0,0.27-0.12c0.02-0.03,0.02-0.05,0.05-0.06c0.11,0.05,0.03,0.17,0.01,0.24c-0.05,0.04-0.12,0.03-0.18,0.07   c-0.1,0.07-0.22,0.08-0.33,0.14c-0.06,0.04-0.02,0.15-0.11,0.16c-0.17,0.02-0.41-0.12-0.52,0.06c-0.04,0.05-0.05,0.12-0.05,0.18   c0,0.04,0.01,0.09,0.02,0.13c0.05,0.07,0.13,0.08,0.18,0.14c0.05,0.02,0.07-0.04,0.1-0.02c0.09,0.11,0.15,0.25,0.09,0.4   c-0.04,0.08-0.1,0.15-0.2,0.16c-0.17-0.01-0.35-0.03-0.52-0.03c-0.1,0.02-0.24-0.02-0.3,0.07c-0.08,0.04-0.13,0.14-0.18,0.21   c0.01,0.12-0.03,0.21-0.08,0.3c0,0.01,0,0.01,0,0.02c0,0.07-0.04,0.14-0.03,0.21c-0.09,0.11,0.02,0.23,0.02,0.34   c-0.03,0.1-0.01,0.23-0.06,0.33c0,0.09,0.08,0.15,0.13,0.23c0.11,0.05,0.25,0.03,0.31,0.16c0,0.04,0.01,0.08,0.04,0.12   c0,0.01,0,0.01,0.01,0.01c0.09,0.04,0.19,0.04,0.26-0.01c0.02-0.01,0.03-0.02,0.04-0.04c0.13,0,0.23-0.11,0.36-0.12   c0.05-0.03,0.05-0.08,0.06-0.14c0.12-0.08,0.27-0.13,0.41-0.09c0.08-0.03,0.21,0.07,0.23-0.06c0-0.07-0.01-0.14,0.03-0.2   c0.05-0.07,0.18-0.06,0.18-0.17c0.05-0.08,0.05-0.21,0.17-0.26c0.1-0.05,0.22-0.08,0.28-0.19c0-0.05-0.06-0.09-0.07-0.13   c0-0.02,0-0.03,0.01-0.05c0.02-0.04,0.05-0.08,0.09-0.08c0.12-0.03,0.23,0.05,0.33-0.02c0.16-0.14,0.31-0.31,0.52-0.34   c0.03-0.05,0.1-0.04,0.14-0.03c0.17,0.09,0.16,0.32,0.35,0.38c0.09,0,0.17,0.03,0.25,0.02c0.11,0.05,0.23,0.08,0.34,0.12   c0.08,0.03,0.14,0.07,0.2,0.14c0.12,0.05,0.07,0.2,0.21,0.21c0.04,0.07,0.1,0.11,0.17,0.13c0.1-0.07,0.09-0.22,0.07-0.34   c-0.03-0.04-0.06-0.09-0.05-0.14c0-0.01,0-0.02,0.01-0.03c0.04-0.06,0.18-0.02,0.15-0.12c-0.06-0.13-0.24-0.12-0.27-0.25   c-0.06-0.04-0.11,0.02-0.17,0.02c-0.04-0.1-0.15-0.07-0.22-0.15c-0.06,0.01-0.09-0.06-0.14-0.07c-0.08-0.04-0.17-0.08-0.21-0.15   c0-0.06,0.02-0.13,0.08-0.13c0.17-0.01,0.32,0.06,0.49,0.08c0.14,0.1,0.33,0.1,0.46,0.25c0.03,0.01,0.08,0.04,0.08,0.08   c0.02,0.07-0.07,0.13,0,0.19c0.08,0.07,0.08,0.19,0.14,0.27c0.02,0.02,0.04,0.04,0.07,0.06c0.07-0.03,0.14,0.03,0.19-0.03   c0.02,0,0.02,0.01,0.02,0.02c0.01,0.04-0.04,0.05-0.05,0.08c0.06,0.1,0.15,0.28,0.3,0.25c0.09-0.03,0.15-0.1,0.23-0.14   c0.11,0.05,0.18-0.05,0.28-0.03c0.06-0.06,0.05-0.13,0.04-0.21c0-0.04-0.01-0.08,0-0.12c-0.05-0.12-0.18-0.19-0.29-0.22   c-0.02-0.02-0.02-0.06-0.02-0.08c0.06-0.03,0.08-0.08,0.09-0.14c0.23-0.03,0.39,0.19,0.52,0.36c0.1,0.04,0.21,0.05,0.3,0.11   c0.16,0.06,0.25-0.07,0.35-0.14c0.09-0.04,0.23-0.04,0.24-0.16c-0.02-0.07,0.09-0.09,0.07-0.17c0.07-0.16,0.28-0.14,0.43-0.2   c0.09-0.05,0.17-0.14,0.28-0.14c0.13,0.01,0.18,0.15,0.22,0.25c0.02,0.15,0.02,0.3-0.04,0.45c0.03,0.06,0.03,0.15,0,0.21   c0,0,0,0,0,0.01c-0.04,0.04-0.08,0.08-0.09,0.13c-0.12,0.17-0.3,0.18-0.45,0.29c-0.13,0.18-0.34,0.24-0.55,0.24   c-0.16,0.09-0.35,0.13-0.53,0.15c-0.06,0.06-0.15,0.04-0.23,0.06c-0.15-0.04-0.26,0.06-0.4,0.07c-0.11,0.07-0.26,0.08-0.35,0.2   c-0.11,0.05-0.09,0.16-0.17,0.22c0,0,0,0,0,0c-0.09,0.21-0.36,0.19-0.55,0.22c-0.18,0.02-0.28-0.13-0.45-0.12   c-0.19,0.02-0.41,0.08-0.59-0.01c-0.04-0.02-0.03-0.06-0.03-0.09c0-0.01,0-0.02-0.01-0.04c-0.05-0.12-0.14-0.22-0.15-0.36   c-0.03-0.11-0.13-0.18-0.23-0.2l-0.3,0.01c-0.16,0.06-0.31,0.15-0.5,0.14c-0.13,0.02-0.3,0.01-0.44-0.04   c-0.09,0.04-0.2-0.02-0.29,0.05c-0.1,0.02-0.2,0.02-0.28,0.07c-0.22,0.03-0.38,0.2-0.51,0.37c0,0.01-0.01,0.02-0.02,0.02   c-0.03,0.05-0.1,0.04-0.15,0.06c-0.09,0.04-0.16,0.12-0.27,0.13c-0.08,0.09-0.18-0.01-0.27,0.01c-0.22,0.01-0.4-0.08-0.61-0.08   c-0.13,0.13-0.29,0.19-0.41,0.31c-0.04,0.15-0.23,0.13-0.33,0.24l-1.37,0.76c0.05,0.09-0.09,0.14-0.14,0.19   c-0.13,0.06-0.21,0.18-0.35,0.24c-0.04,0.14-0.23,0.12-0.26,0.27c-0.07,0.13-0.12,0.26-0.12,0.41c0.04,0.1-0.07,0.13-0.07,0.22   c-0.06,0.13-0.08,0.28-0.11,0.41c-0.14,0.15-0.49,0.07-0.48,0.36c0.05,0.27,0.22,0.49,0.33,0.73c0.08,0.12,0.17,0.24,0.22,0.38   c0.13,0.18,0.28,0.31,0.43,0.47c0.02,0.13,0.09,0.22,0.14,0.33c0.11,0.09,0.17,0.2,0.29,0.28c0.07,0.12,0.2,0.19,0.29,0.27   c0.09,0.01,0.13,0.09,0.21,0.11c0.12,0.07,0.19,0.2,0.29,0.27c0.27,0.06,0.56,0.01,0.85,0.06c0.11-0.04,0.21,0.02,0.3,0.05   c0.17-0.01,0.33,0,0.48,0.05c0.25,0.03,0.51,0.08,0.77,0.1c0.04,0.02,0.08,0.03,0.08,0.08l1.03-0.32c0.23-0.09,0.5,0.01,0.74,0.01   c0.14,0.05,0.28,0.06,0.39,0.14c0.13-0.02,0.24-0.05,0.35-0.1c0.06,0.02,0.1-0.03,0.15-0.01c0.02,0.1-0.22,0.16-0.07,0.24   c0.08-0.01,0.18,0.02,0.25-0.03c0.03-0.02,0.01-0.08,0.06-0.09c0.12,0.04,0.04,0.19,0.07,0.26c-0.03,0.08-0.06,0.14-0.04,0.23   l1.15,0.99c0.12,0.04,0.19,0.16,0.31,0.18c0,0,0.06,0.05,0.11,0.09c0.03,0.03,0.06,0.05,0.06,0.05l0.04,0.23   c0.14,0.13,0.34,0.26,0.34,0.48c0.05,0.08,0.05,0.19,0.14,0.24c0.04,0.05,0.09,0.12,0.07,0.19c-0.02,0.13-0.11,0.24-0.13,0.36   c-0.01,0.06-0.04,0.11-0.08,0.15c0,0.13-0.04,0.22-0.04,0.35c0.06,0.18,0.18,0.35,0.23,0.54c0.07,0.13,0.23,0.13,0.27,0.25   c0,0.23,0.25,0.34,0.42,0.42c0.08,0.08,0.22,0.05,0.31,0.1c0.17,0.05,0.29,0.24,0.38,0.39c0.13,0.05,0.26,0.14,0.31,0.29   c0.1,0.05,0.14,0.18,0.24,0.25v0.03l1.01,0.88c0.09-0.03,0.07,0.1,0.15,0.09c0.08,0.01,0.14-0.07,0.21,0   c0.13,0.18,0.34,0.17,0.51,0.24c0.15,0.05,0.28-0.07,0.42-0.01c0.09-0.03,0.18-0.09,0.24-0.17c0.09,0.01,0.19-0.05,0.26-0.11   c0.02-0.02,0.07,0,0.07-0.04c0.04-0.14,0.19-0.18,0.31-0.22c0.13-0.06,0.28-0.11,0.4-0.18c0.16,0.03,0.28-0.08,0.39-0.18   c0.02-0.14,0.17-0.15,0.25-0.24c0.07-0.04,0.15-0.08,0.23-0.1c0.08-0.09,0.22-0.06,0.31-0.13c0.03-0.03,0.04-0.07,0.04-0.11   c0.14-0.02,0.14-0.16,0.25-0.22c0.16-0.06,0.29-0.2,0.44-0.29c0.26-0.17,0.54-0.29,0.79-0.44c0.27-0.08,0.41-0.36,0.61-0.52   l0.33-1.55c-0.01-0.11-0.01-0.24-0.04-0.35c0.01-0.15,0.17-0.23,0.24-0.34c0.04-0.1,0.08-0.22,0.1-0.34   c0.01-0.12-0.01-0.24-0.07-0.34l-0.11-0.14c-0.04-0.13-0.1-0.27-0.24-0.34c0-0.19,0.19-0.31,0.29-0.47   c0.14-0.14,0.21-0.3,0.31-0.47c0.07-0.06,0.12-0.16,0.2-0.2c0.09-0.1,0.13-0.24,0.23-0.33c0.02-0.06,0.08-0.08,0.09-0.13   c0.05-0.12,0.08-0.29-0.03-0.38c-0.08-0.16-0.25-0.27-0.31-0.44c-0.09-0.09-0.19-0.17-0.27-0.28c-0.09-0.08-0.13-0.21-0.25-0.23   c-0.09-0.05-0.24,0-0.3-0.12c-0.19-0.05-0.28-0.22-0.42-0.36c-0.18-0.18-0.13-0.49-0.08-0.72c-0.02-0.13,0.11-0.19,0.18-0.28   c0,0,0.03-0.12,0.07-0.29c0.14-0.59,0.44-1.86,0.44-1.86c-0.03-0.12,0-0.25-0.02-0.36c0.02-0.1-0.04-0.2-0.03-0.3   c-0.04-0.04,0-0.1-0.04-0.14c-0.01-0.03-0.01-0.06-0.02-0.1c-0.03-0.14-0.06-0.29-0.13-0.43c0.01-0.15-0.09-0.27-0.09-0.41   c-0.04-0.12-0.12-0.22-0.21-0.32c-0.08-0.06-0.2-0.05-0.3-0.02c-0.15,0.12-0.17,0.3-0.33,0.42c0.01,0.08-0.07,0.12-0.09,0.19   c-0.11,0.12-0.15,0.29-0.29,0.4c-0.03,0.06-0.08,0.12-0.1,0.19c-0.01,0.04,0,0.07,0.03,0.11c0,0.1-0.06,0.18-0.08,0.28   c-0.04,0.1-0.14,0.08-0.21,0.11c-0.19-0.09-0.38,0.03-0.56,0.03c-0.17,0.03-0.33,0.12-0.52,0.11c-0.16,0.1-0.36,0-0.52-0.04   c-0.08-0.05-0.18-0.09-0.27-0.12c-0.16,0.02-0.26-0.12-0.41-0.09c-0.14-0.05-0.32-0.04-0.46-0.1c-0.17-0.1-0.37-0.1-0.53-0.19   c-0.07-0.03-0.14-0.07-0.21-0.1c-0.06-0.02-0.12-0.03-0.19-0.03c-0.14-0.04-0.27-0.08-0.39-0.19c-0.13-0.06-0.29-0.03-0.39-0.15   c-0.21-0.03-0.42,0.02-0.62-0.07c-0.03-0.03-0.03-0.08-0.03-0.11c0.07-0.02,0.07-0.1,0.14-0.12c0.12-0.01,0.24-0.04,0.34-0.03   c0.05,0.07,0.13,0.1,0.21,0.08c0.03-0.01,0.03-0.05,0.03-0.08c-0.09-0.08-0.22-0.13-0.2-0.27c0.04-0.04,0.09-0.07,0.13-0.11   c0.06-0.01,0.02,0.07,0.04,0.1c0.04,0.14,0.14,0.25,0.25,0.35c0.23,0.04,0.44,0.13,0.66,0.14c0.21,0.08,0.45,0.12,0.64,0.23   c0.21,0.15,0.48,0.02,0.72,0.1c0.1,0.03,0.23,0.03,0.32,0.1c0.06,0,0.12,0.02,0.18,0.04c0.13,0.05,0.24,0.12,0.37,0.14   c0.14,0.11,0.35,0.12,0.51,0.19c0.23-0.04,0.47-0.04,0.68-0.13c0.04,0.02,0.07,0,0.11-0.03c0.03-0.05,0.05-0.11,0.06-0.17   c0.01-0.06,0-0.12-0.03-0.18c0.01-0.13,0.13-0.2,0.2-0.3c0.1-0.07,0.13-0.18,0.2-0.26c-0.03-0.15,0.03-0.28,0.08-0.4   c0.02-0.08,0.1-0.13,0.13-0.19c0-0.01,0-0.03,0.01-0.04c0.03-0.15,0.08-0.3,0.05-0.45c0.05-0.13,0.04-0.29,0.07-0.43   c0.06-0.07,0.03-0.17,0.12-0.22c0.01-0.12,0.16-0.18,0.17-0.29c0-0.01,0-0.03-0.01-0.05c0.02-0.15-0.13-0.29-0.03-0.43   c0.02-0.13-0.02-0.25,0-0.39c0.04-0.06-0.02-0.12-0.02-0.17c-0.13-0.08-0.21-0.21-0.23-0.35c0,0,0,0,0-0.01   c-0.03-0.07-0.02-0.16-0.11-0.19c-0.09-0.13-0.24-0.11-0.39-0.1c-0.15,0.09-0.33,0.11-0.48,0.17c-0.1,0.02-0.22,0.03-0.28,0.13   c0,0,0,0,0,0c-0.02,0.07,0.01,0.15-0.07,0.19c-0.03,0.06-0.09,0.11-0.1,0.18c0.01,0.2-0.13,0.38-0.29,0.5   c-0.14,0-0.3-0.11-0.44-0.01c-0.09,0.03-0.08,0.16-0.19,0.17c-0.24-0.03-0.47,0.08-0.64-0.13c-0.04-0.02-0.08-0.05-0.09-0.09   c0.02-0.07,0.14-0.03,0.16-0.13c0.06-0.13,0.21-0.06,0.32-0.08c0.15-0.01,0.28-0.03,0.44-0.02c0.14-0.03,0.29-0.09,0.39-0.21   c0.14-0.1,0.1-0.28,0.19-0.4c0.02-0.03,0.04-0.05,0.06-0.07c0.04-0.08,0.09-0.16,0.18-0.18c0.15-0.02,0.3-0.03,0.44-0.07   c0.2-0.12,0.33-0.32,0.46-0.5c0.02-0.08,0.07-0.13,0.08-0.21c0.04-0.15,0.18-0.23,0.25-0.36c0.01-0.03,0.03-0.05,0.03-0.08   c0.04-0.09-0.09-0.21,0.06-0.24c0.13-0.17,0.35-0.29,0.35-0.5c0.02-0.14,0.12-0.26,0.1-0.41c0-0.09,0.06-0.16,0.05-0.26   c0.03-0.02,0.06-0.05,0.1-0.04c0.04,0.07,0.04,0.17,0.02,0.23c0.03,0.09-0.01,0.19,0.04,0.28c-0.01,0.05,0.03,0.09,0.04,0.13   c0.07,0.07,0.18,0.01,0.25,0.07c0.08-0.01,0.14,0,0.2-0.05c0.09,0.02,0.13-0.04,0.19-0.08c0.05-0.06,0.13-0.12,0.09-0.19   c0-0.04,0.02-0.07,0.03-0.1c0.03-0.06-0.01-0.16,0.09-0.19c0.11-0.04,0.18,0.05,0.28,0.06c0.15,0.14,0.4,0.14,0.59,0.1   c0.19-0.1,0.4-0.13,0.57-0.29c0.29-0.05,0.58-0.09,0.83-0.22c0.24-0.03,0.47-0.12,0.73-0.12l0.1-0.1c0.04-0.18-0.11-0.3-0.17-0.45   l-0.08-0.19c-0.03-0.04-0.06-0.07-0.1-0.1c-0.14-0.13-0.31-0.23-0.41-0.4c-0.1-0.05-0.22-0.09-0.28-0.21   c-0.1-0.15-0.31-0.04-0.44-0.13c-0.09-0.09-0.17-0.19-0.17-0.32c-0.03-0.09,0.02-0.2-0.06-0.28c-0.03-0.25-0.36-0.34-0.35-0.6   c-0.05-0.13-0.03-0.28-0.15-0.36c0-0.08-0.08-0.12-0.09-0.19c-0.08-0.1-0.23-0.16-0.29-0.28c-0.01-0.02-0.01-0.04-0.02-0.05   c-0.02-0.05-0.08-0.08-0.05-0.14l0.16-1.04c-0.03-0.03-0.03-0.07-0.01-0.09c0.1-0.07,0.22-0.11,0.35-0.12   c0.09-0.1,0.21-0.18,0.34-0.2c0.15-0.14,0.48-0.14,0.45-0.41c-0.12-0.15-0.17-0.33-0.18-0.52c0.04-0.12,0.14-0.15,0.25-0.18   c0.04-0.01,0.07-0.03,0.11-0.05c0.11-0.02,0.23-0.07,0.34-0.05c0.08,0.01,0.14-0.07,0.22-0.08c0.25,0.04,0.47-0.06,0.72-0.05   c0.07-0.06,0.22-0.06,0.21-0.19c0.03-0.05,0.03-0.12,0.05-0.17c0.09-0.13,0.18-0.27,0.27-0.39c0.24-0.08,0.42-0.31,0.5-0.53   c0.07-0.15,0.19-0.29,0.21-0.46c0.05-0.09,0.09-0.19,0.06-0.3c0.01-0.05,0.04-0.09,0.08-0.12l0.04-0.12   c-0.01-0.01-0.02-0.04-0.02-0.05c0-0.07,0.06-0.12,0.09-0.2c0,0,0,0,0,0c-0.02-0.13-0.03-0.29,0.08-0.36   c0.13,0.04,0.19-0.1,0.29-0.12C139.09,48.76,139.15,48.68,139.09,48.61z M125.3,61.67c0.07-0.01,0.13,0.03,0.15,0.08   c0.06,0.1-0.06,0.17-0.09,0.24c-0.06,0.03-0.15,0.01-0.21-0.03c-0.02-0.05-0.03-0.1-0.02-0.15   C125.18,61.76,125.25,61.72,125.3,61.67z M126.33,62.42c-0.18,0.14-0.42,0.14-0.63,0.21c-0.15-0.03-0.24,0.13-0.37,0.16   c-0.06,0.06-0.14,0.09-0.22,0.11c-0.14,0.12-0.29,0.19-0.43,0.3c-0.02,0.08-0.13,0.13-0.08,0.24c0.02,0.04,0.05,0.08,0.02,0.13   c-0.1,0.06-0.18,0.18-0.31,0.17c-0.02,0.04-0.05,0.05-0.08,0.04c-0.08-0.14,0.14-0.2,0.19-0.3c-0.01-0.12,0.05-0.24-0.04-0.34   c0.05-0.08,0.15-0.14,0.14-0.25c0.06-0.03,0.11-0.07,0.12-0.13c0.03-0.15-0.14-0.23-0.12-0.37c0.11-0.06,0.09-0.21,0.2-0.25   c0.03,0.01,0.07,0.04,0.08,0.07c0,0.04-0.06,0.08-0.03,0.12c0.06,0.09,0.16,0.12,0.26,0.1c0.12-0.08,0.28-0.15,0.34-0.29   c0.05-0.04,0.13-0.01,0.2-0.03c0.08-0.05,0.18-0.02,0.25-0.1c0.15-0.01,0.31,0.02,0.46,0.04c0.05,0.02,0.1,0.04,0.13,0.1   C126.42,62.25,126.47,62.38,126.33,62.42z M128.6,61.06c-0.12,0.08-0.09,0.25-0.25,0.26c-0.15,0.02-0.21-0.13-0.27-0.23   c0-0.12-0.11-0.16-0.19-0.2c-0.22-0.02-0.46,0.07-0.66-0.03c-0.08,0.01-0.16-0.02-0.23-0.08c-0.03-0.03-0.03-0.07-0.03-0.11   l-0.13-0.12c-0.03-0.12-0.08-0.29,0.04-0.38c0.1-0.04,0.13-0.19,0.25-0.16l0.04,0.08c0.04,0.03,0.09,0.08,0.09,0.13   c-0.03,0.09-0.19,0.12-0.15,0.24c0.08,0.06,0.2,0.05,0.29,0.04c0.09-0.04,0.24-0.1,0.33-0.02c0.09,0.02,0.17-0.05,0.26-0.01   c0.14-0.05,0.23,0.09,0.37,0.1c0.12,0.09,0.27,0.14,0.35,0.29C128.7,60.94,128.6,60.98,128.6,61.06z"/>
	<path class="st0" d="M117.34,58.07c-0.01,0.03-0.01,0.07-0.04,0.08c-0.04,0.01-0.07-0.01-0.08-0.04c-0.01-0.03,0.01-0.06,0.04-0.08   C117.29,58.04,117.32,58.05,117.34,58.07z"/>
	<line class="st3" x1="119.6" y1="22.13" x2="119.6" y2="48.09"/>
	<line class="st3" x1="119.6" y1="67.39" x2="119.6" y2="86.38"/>
	<line class="st4" x1="133.36" y1="67.72" x2="142.61" y2="76.96"/>
	<line class="st4" x1="96.85" y1="31.54" x2="114.94" y2="49.63"/>
	<line class="st4" x1="124.15" y1="49.64" x2="142.24" y2="31.55"/>
	<line class="st4" x1="96.67" y1="76.85" x2="115.36" y2="58.17"/>
	<line class="st5" x1="87.23" y1="54.11" x2="110.92" y2="54.11"/>
	<line class="st5" x1="133.53" y1="54.09" x2="151.87" y2="54.09"/>
	<path class="st3" d="M119.6,86.44c17.72,0,32.3-14.53,32.3-32.25c0-17.72-14.58-32.06-32.3-32.06c-17.72,0-32.36,14.34-32.36,32.06   C87.24,71.91,101.88,86.44,119.6,86.44z"/>
	<path class="st3" d="M132.2,31.85c-3.74-2.09-8.05-3.29-12.63-3.29c-14.18,0-25.88,11.47-25.88,25.65S105.39,80,119.57,80   c14.18,0,25.84-11.62,25.84-25.8c0-3.97-0.91-7.73-2.54-11.08"/>
	<path class="st3" d="M138.22,49.01c-2.3-8.09-9.83-14.01-18.65-14.01c-10.63,0-19.41,8.6-19.41,19.23c0,1.91,0.28,3.75,0.81,5.5"/>
	<path class="st3" d="M105.71,67.74c3.54,3.6,8.46,5.85,13.85,5.85c10.64,0,19.38-8.72,19.38-19.35c0-1.14-0.1-2.25-0.29-3.33"/>
	<path class="st3" d="M130.76,60.55c1.06-1.87,1.67-4.02,1.67-6.31c0-7.09-5.83-12.82-12.92-12.82c-6.41,0-11.8,4.68-12.78,10.82"/>
	<path class="st3" d="M106.79,56.64c1.14,5.95,6.45,10.49,12.71,10.49c1.96,0,3.83-0.45,5.5-1.24"/>
	<path class="st3" d="M121.36,47.97c-0.57-0.16-1.17-0.25-1.8-0.25c-0.78,0-1.53,0.14-2.22,0.38"/>
	<path class="st3" d="M113.67,57.23c1.1,2.14,3.34,3.62,5.89,3.62c0.4,0,0.79-0.04,1.17-0.11"/>
</g>
</svg>